<svg xmlns="http://www.w3.org/2000/svg" viewBox="0 0 160.482 45"><defs><style>.a{fill:#8dc63f;}.b{fill:#c2b59b;}.c{fill:#65544b;}</style></defs><g transform="translate(0.072 -0.002)"><g transform="translate(-0.072 0.002)"><path class="a" d="M362.392,13.664c-.369,1.713,1.142,3.123,4.4,2.72,2.787-.336,3.828-2.049,4.869-4.97L372.2,9.5s-1.78.336-5.1,1.007C364.407,11.045,362.728,12.052,362.392,13.664Z" transform="translate(-240.631 -6.31)"/><path class="b" d="M156.447,22.065a13.6,13.6,0,0,0-5.575.907l-3.358,7.556c.336-1.377.739-2.787,1.175-4.265,2.552-8.731,5-14.676,5-14.676h-8.127l-.369,1.276a8.582,8.582,0,0,0-6.347-1.545c-4.869.47-9.034,4.332-8.933,9.3a6.963,6.963,0,0,1-2.519,2.116c-1.478.638-1.813-.269-1.511-1.377.235-.84,2.821-9.84,2.821-9.84h-8.127s-1.478,5.071-2.485,8.631a7.5,7.5,0,0,1-2.855,2.552c-1.478.638-1.813-.269-1.511-1.377.235-.84,2.821-9.84,2.821-9.84h-8.127s-.907,2.116-2.284,2.485a2.282,2.282,0,0,1-.638.1c.94-2.855-.1-4.063-.1-4.063h0a1.273,1.273,0,0,0-.907-.6,3.117,3.117,0,0,0-3.627,2.687,4.01,4.01,0,0,0,1.343,3.022c-.4.974-2.855,6.347-5.675,7.522-1.478.638-1.813-.269-1.511-1.377.235-.84,2.821-9.84,2.821-9.84H89.718s-1.007,3.493-1.948,6.717c-.672,2.284-1.679,3.728-3.19,4.466-1.343.672-1.813-.269-1.511-1.377.235-.84,2.821-9.84,2.821-9.84H77.763s-.705,2.418-1.478,5.1c-1.007,1.981-2.888,5.205-5,6.112-1.478.638-1.813-.269-1.511-1.377.1-.4,1.142-4.03,2.183-7.623h3.56l.638-2.216h-3.56C73.431,8.5,74.1,6.08,74.1,6.08L65.4,8.061l-.94,3.291H61.442L60.8,13.568h3.022c-.269.907-.537,1.881-.806,2.787-.974,1.981-2.888,5.272-5.037,6.179-1.478.638-1.813-.269-1.511-1.377.235-.84,2.821-9.84,2.821-9.84H51.166s-.168.571-.437,1.478a8.621,8.621,0,0,0-6.582-1.746c-4.937.47-9.168,4.433-8.933,9.5.2,4.4,4.063,6.448,7.254,6.448A7.958,7.958,0,0,0,48.68,24.55,4.985,4.985,0,0,0,53.281,27a10.043,10.043,0,0,0,8.228-4.634C61.442,25.356,63.86,27,66.58,27a10.155,10.155,0,0,0,8.228-4.6c-.034,2.989,2.351,4.6,5.071,4.6a8.564,8.564,0,0,0,6.985-3.526C87.334,25.759,89.45,27,91.834,27a9.226,9.226,0,0,0,5.373-1.713h0s3.627-2.25,7.254-9a4.818,4.818,0,0,0,.739.134,3.223,3.223,0,0,0,1.881-.369c-.437,1.545-.94,3.224-1.343,4.6-1.209,4.1,1.578,6.381,4.8,6.381a9.512,9.512,0,0,0,7.22-3.392c.537,2.183,2.619,3.392,4.937,3.392a9.785,9.785,0,0,0,7.791-4.063,7.3,7.3,0,0,0,6.717,4.063,9.072,9.072,0,0,0,4.131-.907l-4.668,16.12,8.7-1.981s2.653-9.134,5.944-12.224c5.81-5.541,9.1-3.224,9.1-3.224S160.409,22.468,156.447,22.065ZM49.05,19.949c-.772,2.552-2.082,4.466-4.03,4.6-2.485.168-2.787-3.358-1.646-6.112,1.075-2.619,3.224-4.8,4.9-4.5C49.453,14.173,50.36,15.617,49.05,19.949Zm94.77,0c-.772,2.552-2.082,4.466-4.03,4.6-2.485.168-2.787-3.358-1.646-6.112,1.075-2.619,3.224-4.8,4.9-4.5C144.189,14.173,145.129,15.617,143.82,19.949ZM38.673,3.93A4.724,4.724,0,0,1,42.2,3.191S41.326.639,37.632.1c-3.493-.47-7.22.571-8.832,6.213C28.43,7.658,28.2,8.4,28.2,8.4l-2.082,7.321,1.343-8.362a20,20,0,0,0-6.75-5.373A13.834,13.834,0,0,0,5.426,4.635c-4.9,4.836-3.493,11.149.369,12.09,4.231,1.007,5.743-3.862,5.743-3.862s-5.205.705-5.877-2.653c-.4-2.049,1.209-5.138,5.709-4.4a9.827,9.827,0,0,1,5.205,2.418C16,11.99,14.124,19.513,8.415,21.527A6.006,6.006,0,0,1,1.43,19.311a4.273,4.273,0,0,0-.873,5.373c2.351,4,9.5,3.593,13.635-1.881,2.754-3.627,3.862-9.3,4.3-12.426,1.713,2.351,3.224,5.743,4.735,10.444,2.888,9.168,3.325,21.761,3.325,21.761L36.524,7.826C36.49,7.792,37.229,4.971,38.673,3.93Z" transform="translate(0.072 -0.002)"/><g transform="translate(155.276 11.585)"><path class="b" d="M463.811,34.5a1.478,1.478,0,1,1,0,2.955,1.478,1.478,0,1,1,0-2.955Zm0,.3a1.161,1.161,0,0,0-1.142,1.175,1.14,1.14,0,0,0,1.142,1.175,1.176,1.176,0,0,0,0-2.351Zm-.235,1.948h-.336V35.272a2.725,2.725,0,0,1,.571-.034.867.867,0,0,1,.5.1.353.353,0,0,1,.168.3.357.357,0,0,1-.3.336v.034c.134.034.2.168.269.369a1,1,0,0,0,.1.369h-.369a1.3,1.3,0,0,1-.1-.369c-.034-.168-.1-.235-.3-.235h-.168v.6Zm0-.84h.168c.2,0,.336-.067.336-.2s-.1-.235-.3-.235c-.1,0-.168,0-.2.034Z" transform="translate(-462.3 -34.5)"/></g></g><g transform="translate(46.089 29.822)"><path class="c" d="M139.707,91.218c.034-.067.034-.134.1-.269.034-.134.1-.269.134-.4a2.173,2.173,0,0,0,.134-.437c.034-.067.034-.134.067-.168.168,0,.369-.034.6-.034a9.509,9.509,0,0,1,1.007-.067c.336-.034.672-.067,1.007-.067.336-.034.6-.067.84-.067h.034a.528.528,0,0,0,.437-.4.423.423,0,0,0-.4-.5h-.1c-.3.034-.672.067-1.041.1s-.772.067-1.175.1-.772.067-1.142.067c-.369.034-.705.034-1.007.034h-.034c-.437.067-.5.336-.5.437a.567.567,0,0,0,.1.336.537.537,0,0,0,.336.168,1.638,1.638,0,0,1-.134.369c-.034.134-.1.269-.134.4a1.561,1.561,0,0,1-.1.3l-.369,1.175c-.1.336-.2.638-.3.974a.557.557,0,0,0-.4.4.567.567,0,0,0,.1.336l.034.034c-.1.336-.168.705-.235,1.041a9.633,9.633,0,0,0-.168,1.377,2.307,2.307,0,0,0,.369,1.511,1.826,1.826,0,0,0,1.108.739,2.175,2.175,0,0,0,.672.067,4.1,4.1,0,0,0,.873-.1A6.341,6.341,0,0,0,142.226,98a.486.486,0,0,0,.269-.6.437.437,0,0,0-.638-.2h-.034q-.453.2-1.007.4a4.358,4.358,0,0,1-1.108.235,1.658,1.658,0,0,1-.84-.1.565.565,0,0,1-.369-.47,1.915,1.915,0,0,1-.034-.437v-.47c.034-.4.067-.84.134-1.243.067-.369.134-.705.235-1.075.134,0,.269-.034.437-.034l.806-.1c.269-.034.571-.067.806-.1q.4-.05.705-.1a.573.573,0,0,0,.47-.47.411.411,0,0,0-.1-.3.448.448,0,0,0-.336-.134h-.134q-.3.05-.705.1l-1.578.168h-.067c.067-.235.134-.437.2-.672Zm10.209.269h0a.254.254,0,0,0,.134.034h.134a.494.494,0,0,0,.5-.3.572.572,0,0,0,0-.336.483.483,0,0,0-.336-.2h-.2c-.067,0-.1,0-.134.034-.034,0-.067.034-.1.034h-.034c-.034,0-.067.034-.1.067a.734.734,0,0,0-.1.168,1.453,1.453,0,0,0-.034.168v.067A.427.427,0,0,0,149.916,91.487Zm.269-.537Zm-.336,1.444h-.134a.834.834,0,0,0-.537.571,4.747,4.747,0,0,0-.2.739,3,3,0,0,0-.1.739,1.386,1.386,0,0,1-.034.3v.034c-.067.5-.134,1.075-.168,1.646a14.872,14.872,0,0,1-.2,1.713,9.489,9.489,0,0,1-.437,1.679,5.714,5.714,0,0,1-.806,1.478c-.168.168-.369.369-.638.6a3.062,3.062,0,0,1-.772.571,1.359,1.359,0,0,1-.638.235c-.034,0-.1,0-.168-.134a.571.571,0,0,1-.034-.235,1.505,1.505,0,0,0-.034-.4.4.4,0,0,0-.537-.336.42.42,0,0,0-.369.47l.1.806a.942.942,0,0,0,.369.571,1.029,1.029,0,0,0,.571.134h.034a1.708,1.708,0,0,0,.672-.134,2.962,2.962,0,0,0,.672-.3,6.3,6.3,0,0,0,.806-.6,5.06,5.06,0,0,0,.705-.772,8.053,8.053,0,0,0,.6-.873c.168-.3.3-.638.437-.94a9.375,9.375,0,0,0,.336-1.31l.2-1.31c.067-.437.1-.873.134-1.276s.1-.84.168-1.243a6.5,6.5,0,0,1,.134-.907,5.731,5.731,0,0,1,.235-.873.432.432,0,0,0,.134-.4A.882.882,0,0,0,149.849,92.393Zm10.075.067a.648.648,0,0,0-.336.1c-.034.034-.067.034-.067.067a9.481,9.481,0,0,0-.705,1.041c-.2.336-.437.672-.638,1.041-.2.336-.4.672-.638,1.007-.2.336-.437.672-.672,1.007-.034.034-.067.1-.168.235a2.564,2.564,0,0,1-.269.369c-.034.034-.067.1-.1.134a6.031,6.031,0,0,1,.067-.739,8.593,8.593,0,0,1,.168-.907,9.617,9.617,0,0,1,.235-.94c.067-.3.168-.571.235-.84s.134-.47.168-.6v-.067a.66.66,0,0,0-.1-.336.426.426,0,0,0-.3-.134.507.507,0,0,0-.47.3c0,.034,0,.034-.034.067-.067.3-.168.6-.235.907l-.2.907c0,.034-.034.168-.067.336l-.1.5-.1.5a1.7,1.7,0,0,0-.067.3v.034l-.1.705-.034.235v.336a.746.746,0,0,0,.168.369.616.616,0,0,0,.47.235,1.185,1.185,0,0,0,.739-.369,6.689,6.689,0,0,0,.638-.705c.2-.269.369-.5.537-.772a2.871,2.871,0,0,1,.3-.47c.067-.1.168-.269.3-.47s.2-.369.269-.47a6.581,6.581,0,0,0,.4-.705c.034-.067.1-.168.134-.235a3.513,3.513,0,0,1-.134.571c-.168.571-.3,1.175-.437,1.746l-.134.571a1.207,1.207,0,0,0-.067.369h0a3.829,3.829,0,0,0-1.142.5,5.625,5.625,0,0,0-.974.84,5.978,5.978,0,0,0-.772,1.041,5.591,5.591,0,0,0-.537,1.108,7.105,7.105,0,0,0-.3,1.041,2.154,2.154,0,0,0,.034.94,1.3,1.3,0,0,0,.2.369,1.05,1.05,0,0,0,.369.3,1.818,1.818,0,0,0,.5.134h.067a1.348,1.348,0,0,0,.5-.1,1.466,1.466,0,0,0,.5-.336,4.256,4.256,0,0,0,.369-.437c.1-.134.2-.3.3-.437s.134-.235.2-.336a7.242,7.242,0,0,0,.537-1.142,11.512,11.512,0,0,0,.4-1.108,9.264,9.264,0,0,0,.269-.907c.067-.2.1-.4.168-.6h.134a.494.494,0,0,0,.5-.3.4.4,0,0,0-.034-.336.484.484,0,0,0-.336-.2h-.034c.034-.1.034-.168.067-.269l.134-.571c.134-.672.3-1.31.437-1.948a8.213,8.213,0,0,0,.2-2.015C160.327,92.628,160.159,92.461,159.924,92.461Zm-1.679,6.481a8.672,8.672,0,0,1-.269.873c-.1.3-.2.571-.3.873a9.128,9.128,0,0,1-.369.84,5.292,5.292,0,0,1-.5.806,2.989,2.989,0,0,1-.638.672.5.5,0,0,1-.235-.034c-.1-.067-.168-.134-.168-.2a1,1,0,0,1-.034-.705,3.314,3.314,0,0,1,.336-.907,6.739,6.739,0,0,1,.571-.907,8.53,8.53,0,0,1,.672-.806,2.745,2.745,0,0,1,.3-.269,3.566,3.566,0,0,1,.369-.3c.134-.1.269-.168.4-.269A1.006,1.006,0,0,0,158.245,98.942Zm12.023-6.179a3.207,3.207,0,0,0-1.511-.269h-.034a.422.422,0,0,0-.336.235.117.117,0,0,1-.034.067v.067a.464.464,0,0,0,.2.369.3.3,0,0,0,.235.1h.537a.723.723,0,0,1,.369.067,1.636,1.636,0,0,1,.235.1,1.921,1.921,0,0,1,.235.269,1.244,1.244,0,0,1,.269.6,3.044,3.044,0,0,1-.034.772,3.937,3.937,0,0,1-.3.806,5.345,5.345,0,0,1-.437.739,3.772,3.772,0,0,1-.6.672,2.978,2.978,0,0,1-.6.437.362.362,0,0,1-.369,0c-.034,0-.134-.1-.235-.537a3.968,3.968,0,0,1,.1-1.545c.067-.134.1-.235.168-.369a1.241,1.241,0,0,1,.168-.369.2.2,0,0,0,.034-.134.565.565,0,0,0-.3-.437.3.3,0,0,0-.168-.034.406.406,0,0,0-.3.1l-.1.1a3.388,3.388,0,0,0-.235.5,2.8,2.8,0,0,0-.134.5c-.1.2-.2.437-.3.672a6.657,6.657,0,0,1-.369.672,3.664,3.664,0,0,1-.437.571,2.173,2.173,0,0,0-.269.3,5.368,5.368,0,0,1-.168-.705,4.86,4.86,0,0,1,.034-1.209,9.363,9.363,0,0,1,.235-1.276c.1-.437.2-.84.3-1.175v-.067a.66.66,0,0,0-.1-.336.649.649,0,0,0-.3-.168.432.432,0,0,0-.47.269.033.033,0,0,1-.034.034,6.973,6.973,0,0,0-.2.806c-.067.336-.134.705-.2,1.075s-.1.772-.134,1.175-.034.772-.034,1.108a2.426,2.426,0,0,0,.168.907.841.841,0,0,0,.638.537h.067a1.344,1.344,0,0,0,.907-.3,3.866,3.866,0,0,0,.47-.571c.067-.134.168-.235.235-.369,0,.067.034.1.034.168a1.61,1.61,0,0,0,.6.84,1.342,1.342,0,0,0,1.041.168,2.708,2.708,0,0,0,1.175-.772,6.627,6.627,0,0,0,.705-.873,5.049,5.049,0,0,0,.806-2.25,2.171,2.171,0,0,0-.2-1.142A3.575,3.575,0,0,0,170.267,92.763Zm5,3.056c.1-.369.235-.705.336-1.007.1-.336.2-.6.269-.84a5.239,5.239,0,0,1,.168-.537,3.488,3.488,0,0,1,.1-.4.687.687,0,0,0,0-.369.568.568,0,0,0-.235-.336.174.174,0,0,0-.134-.067.846.846,0,0,0-.638.2,2.622,2.622,0,0,0-.5.537c-.168.235-.336.47-.537.772-.168.269-.369.571-.537.873s-.336.571-.47.873c-.134.2-.235.4-.336.571.2-.873.437-1.746.705-2.653.235-.907.672-2.754.907-3.627V89.74a.659.659,0,0,0-.1-.336.426.426,0,0,0-.3-.134.507.507,0,0,0-.47.3c0,.034-.034.034-.034.067-.235.907-.672,2.72-.907,3.627s-.47,1.813-.705,2.687c-.067.369-.168.739-.269,1.108a3.115,3.115,0,0,0-.034,1.243c0,.034.034.067.034.1a.409.409,0,0,0,.4.2.5.5,0,0,0,.3-.134c.034,0,.034-.034.067-.067.1-.134.2-.235.269-.336l.134-.2a.7.7,0,0,0,.134-.2,1.119,1.119,0,0,0,.1-.2c.034-.1.1-.2.168-.369.067-.134.168-.336.3-.571l1.007-1.813a8.491,8.491,0,0,1,.437-.739c-.034.134-.1.269-.134.4-.067.168-.1.3-.134.4-.034.134-.067.2-.067.235a6.526,6.526,0,0,1-.168.672c-.067.269-.168.571-.235.84a8.59,8.59,0,0,0-.168.907,4.08,4.08,0,0,0,0,.907,1.724,1.724,0,0,0,.336.806,1.434,1.434,0,0,0,.806.537h.1a.427.427,0,0,0,.437-.235.458.458,0,0,0,.067-.336.508.508,0,0,0-.269-.269.634.634,0,0,1-.4-.369,1.557,1.557,0,0,1-.134-.705,5.052,5.052,0,0,1,.1-.974A6.743,6.743,0,0,1,175.271,95.819Zm5.239,1.948h0c-.134.067-.168.067-.2.1a.547.547,0,0,1-.1-.2,1.7,1.7,0,0,1-.067-.437v-.4a2.066,2.066,0,0,1,.034-.437,5.632,5.632,0,0,1,.1-.6,5.216,5.216,0,0,1,.134-.705,7.554,7.554,0,0,1,.168-.739c.067-.168.134-.369.2-.537a4.578,4.578,0,0,0,.134-.571v-.067a.271.271,0,0,0-.1-.3.174.174,0,0,0-.134-.067.457.457,0,0,0-.5,0,1.426,1.426,0,0,0-1.041-.369,2.556,2.556,0,0,0-1.511.873,5.071,5.071,0,0,0-.739.94,6.105,6.105,0,0,0-.537,1.041,6.6,6.6,0,0,0-.336,1.075,5.677,5.677,0,0,0-.1,1.007,1.173,1.173,0,0,0,.336,1.007.908.908,0,0,0,.84.134,2.36,2.36,0,0,0,.873-.437,4.052,4.052,0,0,0,.806-.705,6.727,6.727,0,0,0,.47-.537,4.962,4.962,0,0,0,.034.705,2.145,2.145,0,0,0,.2.739.977.977,0,0,0,.571.47c.067,0,.134.034.2.034a1.342,1.342,0,0,0,.705-.235c.034,0,.034-.034.067-.034a.4.4,0,0,0,.067-.571A.43.43,0,0,0,180.51,97.767Zm-.806-3.66a2.55,2.55,0,0,1-.134.369l-.134.336c-.067.168-.168.336-.235.5a4,4,0,0,1-.3.5c-.1.168-.235.336-.336.5a1.768,1.768,0,0,1-.4.47,4.611,4.611,0,0,1-.806.705.949.949,0,0,1-.4.168s-.034,0-.067-.067a1.236,1.236,0,0,1,0-.638,7.287,7.287,0,0,1,.369-1.41,4.958,4.958,0,0,1,.772-1.343c.067-.067.134-.168.269-.3a1.344,1.344,0,0,1,.4-.336,2.5,2.5,0,0,1,.4-.235.426.426,0,0,1,.2-.034h.134c.1.034.168.067.168.1l.2.3a.033.033,0,0,0,.034.034Zm6.515-2.116h0a.545.545,0,0,0,.47-.235.123.123,0,0,0,.034-.1l.47-1.78v-.067a.66.66,0,0,0-.1-.336.426.426,0,0,0-.3-.134.507.507,0,0,0-.47.3c0,.034-.034.034-.034.067l-.47,1.78v.1A.388.388,0,0,0,186.219,91.99ZM198.846,97.7h-.1l-.269.067c-.034-.437-.067-1.243-.067-1.679a8.705,8.705,0,0,1,.134-1.612.344.344,0,0,0-.1-.336.4.4,0,0,0-.336-.134.507.507,0,0,0-.47.3c-.1.235-.2.5-.3.772s-.235.5-.336.772a7.1,7.1,0,0,1-.369.705,3.75,3.75,0,0,1-.336.537,2.047,2.047,0,0,1-.571.537.421.421,0,0,1-.369.1.243.243,0,0,1-.2-.134.716.716,0,0,1-.1-.4,5.92,5.92,0,0,1,.134-.907c.1-.369.235-.705.369-1.075a5.009,5.009,0,0,1,.6-1.007,3.98,3.98,0,0,1,.772-.739.571.571,0,0,1,.47-.067,1.463,1.463,0,0,1,.571.235c.034,0,.034.034.067.034a.539.539,0,0,0,.537-.1.425.425,0,0,0,.034-.6c-.034-.034-.067-.034-.067-.067a2.69,2.69,0,0,0-.705-.269,3.348,3.348,0,0,0-.537-.067h-.034a1.982,1.982,0,0,0-.47.067,1.137,1.137,0,0,0-.269.1,2.88,2.88,0,0,0-1.108.907,5.554,5.554,0,0,0-.739,1.209,6.377,6.377,0,0,0-.437,1.276,4.682,4.682,0,0,0-.168,1.075,1.562,1.562,0,0,0,.1.672,1.154,1.154,0,0,0,.437.537,1.6,1.6,0,0,0,.705.235h.034a1.537,1.537,0,0,0,.806-.269A1.59,1.59,0,0,0,196.6,98a3.556,3.556,0,0,0,.336-.4c.1-.134.168-.269.269-.4l.2-.4c0-.034.034-.034.034-.067.034.3.067.94.1,1.243a3.99,3.99,0,0,0-.84.437,5.011,5.011,0,0,0-.907.772,9.657,9.657,0,0,0-.739.907,9.049,9.049,0,0,0-.5.974,3.646,3.646,0,0,0-.269.94,2.477,2.477,0,0,0,.034.873,1.067,1.067,0,0,0,.739.873,1.143,1.143,0,0,0,.336.034,1.558,1.558,0,0,0,.638-.134,3.554,3.554,0,0,0,.907-.6,3.787,3.787,0,0,0,.705-.806,2.506,2.506,0,0,0,.235-.4c.067-.134.134-.269.2-.437a1.943,1.943,0,0,0,.168-.47,2.694,2.694,0,0,0,.134-.6,5.125,5.125,0,0,0,.1-1.007v-.772l.269-.067h.034a.5.5,0,0,0,.4-.369C199.249,97.968,199.148,97.767,198.846,97.7ZM197.6,99.614a6.786,6.786,0,0,1-.2,1.142,4.983,4.983,0,0,1-.47,1.075,4.474,4.474,0,0,1-.84.974c-.2.168-.3.235-.336.235a.15.15,0,0,1-.168,0,.262.262,0,0,1-.134-.134,1.006,1.006,0,0,1-.134-.269,1.194,1.194,0,0,1-.067-.336v-.269a3.937,3.937,0,0,1,.269-.84,4.258,4.258,0,0,1,.6-.974,4.454,4.454,0,0,1,.873-.907,2.555,2.555,0,0,1,.638-.4A4.507,4.507,0,0,0,197.6,99.614Zm18.168-9.37a.552.552,0,0,0-.5-.4.2.2,0,0,0-.134.034,1.129,1.129,0,0,0-.47.269,3.557,3.557,0,0,0-.336.4c-.1.134-.134.235-.168.269a5.646,5.646,0,0,0-.5,1.142c-.1.336-.2.672-.3.974a1.455,1.455,0,0,0-.672-.369,1.916,1.916,0,0,0-.873,0,2.035,2.035,0,0,0-.705.369,2.524,2.524,0,0,0-.5.537,3,3,0,0,0-.3.537,8.586,8.586,0,0,0-.3.873,6.338,6.338,0,0,0-.3,1.142,4.6,4.6,0,0,0-.134,1.142,1.493,1.493,0,0,0,.269.94.967.967,0,0,0,.705.3,1.3,1.3,0,0,0,.672-.2,2.555,2.555,0,0,0,.638-.4c.2-.168.369-.336.5-.47.168-.168.3-.336.47-.537V97.6a16.547,16.547,0,0,0,.168,1.813c0,.034.034.067.034.1a.407.407,0,0,0,.4.235h.134a.467.467,0,0,0,.369-.47,15.084,15.084,0,0,1-.1-1.713V95.819l.067-.47a8,8,0,0,0,.6-1.007c.2-.369.369-.739.537-1.108.067-.168.168-.369.269-.638a7.856,7.856,0,0,0,.3-.806,3.544,3.544,0,0,0,.2-.806A1.3,1.3,0,0,0,215.772,90.244Zm-2.855,4.97a17.593,17.593,0,0,1-1.343,1.612,2.4,2.4,0,0,1-.84.638.254.254,0,0,1-.134.034,1.018,1.018,0,0,1-.067-.571,4.3,4.3,0,0,1,.2-1.175,9.346,9.346,0,0,1,.47-1.478,1.411,1.411,0,0,1,.437-.6,1.083,1.083,0,0,1,.6-.2h.034a1.015,1.015,0,0,1,.537.168.9.9,0,0,1,.336.437A11.428,11.428,0,0,0,212.917,95.214Zm2.082-4.2a4.471,4.471,0,0,1-.168.638,5.6,5.6,0,0,1-.269.672l-.437.94c.034-.1.034-.2.067-.3a7.684,7.684,0,0,1,.269-.94,6.347,6.347,0,0,1,.369-.84c.067-.1.1-.2.168-.3C215,90.949,215,90.983,215,91.016Zm-59.34,2.922c.3-.537-.537-1.007-.806-.47a.734.734,0,0,0-.1.168,1.241,1.241,0,0,0-.168-.369c-.067-.1-.2-.235-.3-.369a1.534,1.534,0,0,0-.537-.369,2.129,2.129,0,0,0-1.679.1,1.025,1.025,0,0,0-.437.336,2.156,2.156,0,0,0-.336.437,2.676,2.676,0,0,0-.269.537c-.067.168-.134.369-.2.537a5.183,5.183,0,0,0-.168.571c-.034.168-.1.336-.134.47-.034.168-.067.336-.1.537a3.265,3.265,0,0,0-.034.6,3.764,3.764,0,0,0,.1.806,1.832,1.832,0,0,0,.437.84,1.418,1.418,0,0,0,.907.4h.067a2.4,2.4,0,0,0,1.243-.47,3.506,3.506,0,0,0,.806-.772,6.115,6.115,0,0,0,.5-.907,4.691,4.691,0,0,0,.3-.974c.034-.235.067-.437.1-.638A3.235,3.235,0,0,0,155.659,93.938Zm-1.78,1.377a6.14,6.14,0,0,1-.269.84,3.656,3.656,0,0,1-.47.772,2.7,2.7,0,0,1-.537.537,1.282,1.282,0,0,1-.537.2h-.134a1.188,1.188,0,0,1-.2-.034.767.767,0,0,1-.269-.4,2.457,2.457,0,0,1-.1-.739,4.669,4.669,0,0,1,.1-.907,7.683,7.683,0,0,1,.269-.94,4.482,4.482,0,0,1,.369-.806,1.645,1.645,0,0,1,.4-.5l.034-.034a1.67,1.67,0,0,0,1.075,1.78.93.93,0,0,0,.3.034C153.913,95.248,153.913,95.281,153.879,95.315Zm.034-1.075h-.034a.986.986,0,0,1-.672-1.007c.168-.067.6.168.739.4C153.98,93.77,154.114,94.24,153.913,94.24Zm49.8-.772a.734.734,0,0,0-.1.168,1.242,1.242,0,0,0-.168-.369c-.067-.1-.2-.235-.3-.369a1.535,1.535,0,0,0-.537-.369,2.129,2.129,0,0,0-1.679.1,1.024,1.024,0,0,0-.437.336,2.155,2.155,0,0,0-.336.437,2.677,2.677,0,0,0-.269.537c-.067.168-.134.369-.2.537a5.184,5.184,0,0,0-.168.571c-.034.168-.1.336-.134.47-.034.168-.067.336-.1.537a3.265,3.265,0,0,0-.034.6,3.765,3.765,0,0,0,.1.806,1.832,1.832,0,0,0,.437.84,1.418,1.418,0,0,0,.907.4h.067a2.4,2.4,0,0,0,1.243-.47,3.506,3.506,0,0,0,.806-.772,6.114,6.114,0,0,0,.5-.907,4.69,4.69,0,0,0,.3-.974c.034-.235.067-.437.1-.638a3.2,3.2,0,0,0,.84-.94C204.824,93.4,204.018,92.931,203.715,93.468Zm-.94,1.847a6.142,6.142,0,0,1-.269.84,3.657,3.657,0,0,1-.47.772,2.7,2.7,0,0,1-.537.537,1.282,1.282,0,0,1-.537.2h-.134a1.188,1.188,0,0,1-.2-.034.767.767,0,0,1-.269-.4,2.457,2.457,0,0,1-.1-.739,4.67,4.67,0,0,1,.1-.907,7.683,7.683,0,0,1,.269-.94,4.482,4.482,0,0,1,.369-.806,1.645,1.645,0,0,1,.4-.5l.034-.034a1.67,1.67,0,0,0,1.075,1.78.93.93,0,0,0,.3.034A.719.719,0,0,0,202.775,95.315Zm0-1.075h-.034a.986.986,0,0,1-.672-1.007c.168-.067.6.168.739.4C202.842,93.77,202.977,94.24,202.775,94.24Zm6.078-.772a.734.734,0,0,0-.1.168,1.241,1.241,0,0,0-.168-.369c-.067-.1-.2-.235-.3-.369a1.534,1.534,0,0,0-.537-.369,2.129,2.129,0,0,0-1.679.1,1.025,1.025,0,0,0-.437.336,2.156,2.156,0,0,0-.336.437,2.676,2.676,0,0,0-.269.537c-.067.168-.134.369-.2.537a5.18,5.18,0,0,0-.168.571c-.034.168-.1.336-.134.47-.034.168-.067.336-.1.537a3.263,3.263,0,0,0-.034.6,3.765,3.765,0,0,0,.1.806,1.832,1.832,0,0,0,.437.84,1.418,1.418,0,0,0,.907.4h.067a2.4,2.4,0,0,0,1.243-.47,3.506,3.506,0,0,0,.806-.772,6.114,6.114,0,0,0,.5-.907,4.691,4.691,0,0,0,.3-.974c.034-.235.067-.437.1-.638a3.2,3.2,0,0,0,.84-.94C209.962,93.4,209.156,92.931,208.854,93.468Zm-.94,1.847a6.142,6.142,0,0,1-.269.84,3.657,3.657,0,0,1-.47.772,2.7,2.7,0,0,1-.537.537,1.282,1.282,0,0,1-.537.2h-.134a1.188,1.188,0,0,1-.2-.034.767.767,0,0,1-.269-.4,2.457,2.457,0,0,1-.1-.739,4.67,4.67,0,0,1,.1-.907,7.683,7.683,0,0,1,.269-.94,4.482,4.482,0,0,1,.369-.806,1.645,1.645,0,0,1,.4-.5l.034-.034a1.67,1.67,0,0,0,1.075,1.78.93.93,0,0,0,.3.034A.719.719,0,0,0,207.913,95.315Zm0-1.075h-.034a.986.986,0,0,1-.672-1.007c.168-.067.6.168.739.4C207.98,93.77,208.115,94.24,207.913,94.24Zm-22.9-1.78h-.034l-.84.1.3-1.007.4-1.511v-.067a.451.451,0,0,0-.47-.437.507.507,0,0,0-.47.3v.034c-.134.5-.269,1.007-.4,1.478-.134.437-.235.873-.369,1.31q-.705.1-1.31.2h-.034a.408.408,0,0,0-.336.437.449.449,0,0,0,.47.4h.067c.235-.034.47-.067.672-.1.067,0,.134-.034.2-.034-.067.3-.168.6-.235.907a2.676,2.676,0,0,0-.1.5c-.034.134-.034.3-.067.5s-.034.437-.067.672v.772a1.929,1.929,0,0,0,.47,1.276h0a.89.89,0,0,0,.2.168,1.69,1.69,0,0,0,1.276.2.447.447,0,0,0,.336-.571.488.488,0,0,0-.571-.336c-.1,0-.235.034-.3,0-.1-.034-.134-.034-.168-.067a.567.567,0,0,1-.067-.168,1.382,1.382,0,0,1-.1-.269,4.333,4.333,0,0,1,0-1.612c.1-.6.067-.3.168-.84.067-.235.1-.47.168-.705l.134-.537c.168,0,.3-.034.47-.034a7.085,7.085,0,0,0,.705-.1.5.5,0,0,0,.4-.369C185.413,92.729,185.312,92.528,185.01,92.461Zm5.272,3.392a2.759,2.759,0,0,0-.84-.369c-.3-.067-.638-.168-.974-.235-.134-.034-.269-.034-.47-.067l-.5-.1a1.2,1.2,0,0,1-.369-.134c-.067-.034-.067-.067-.067-.067a.757.757,0,0,1,.067-.235c.067-.134.168-.269.269-.437a2.684,2.684,0,0,1,.437-.437,2.192,2.192,0,0,1,.5-.336,1.485,1.485,0,0,1,.5-.168h.034c.034,0,.1.034.134.034a.3.3,0,0,1,.168.034h.034l.034.034c.034,0,.1.034.134.034s.034.034.067.067h0c-.034-.034,0,0,0,.034v.034c0,.034-.134.134-.168.168a.437.437,0,0,0,0,.638.467.467,0,0,0,.638,0,1.043,1.043,0,0,0,.3-1.343,1.4,1.4,0,0,0-1.209-.6.485.485,0,0,0-.235.067,3.543,3.543,0,0,0-.806.2,4.75,4.75,0,0,0-.806.437,3.76,3.76,0,0,0-.672.571,2.4,2.4,0,0,0-.437.638.871.871,0,0,0-.034.705,1.042,1.042,0,0,0,.672.638,5.81,5.81,0,0,0,.907.269,9.842,9.842,0,0,0,.974.168,2.352,2.352,0,0,1,.772.2.731.731,0,0,1,.3.235c.034.034,0,.168-.134.4l-.034.067h0l-.3.3a1.206,1.206,0,0,1-.336.235,5.737,5.737,0,0,1-.6.235,5.85,5.85,0,0,1-.739.168,2.248,2.248,0,0,1-.672,0c-.168-.034-.269-.067-.336-.168a.322.322,0,0,1-.067-.3c.034-.2.067-.4.1-.571v-.067a.475.475,0,0,0-.47-.437.507.507,0,0,0-.47.3l-.034.067a6.6,6.6,0,0,0-.1.806,1.215,1.215,0,0,0,.47.907,1.136,1.136,0,0,0,.537.235c.168.034.3.034.437.067.134,0,.235.034.369.034a3.7,3.7,0,0,0,.6-.067,4.641,4.641,0,0,0,.907-.269,4.511,4.511,0,0,0,.806-.4,2.662,2.662,0,0,0,.638-.571,1.256,1.256,0,0,0,.369-.94C190.719,96.289,190.551,96.054,190.282,95.852Zm-46.176,2.72a6.349,6.349,0,0,0,.672-.907c.2-.336.94-2.216,1.108-2.552.134-.336.3-.6.437-.907a3.514,3.514,0,0,1,.4-.638c.067-.067.1-.134.168-.168v.1c0,.235-.034.537-.067.873-.067.369-.134.772-.235,1.209-.034.235-.067.437-.1.672h0c-.034.134-.034.269-.067.4a1.455,1.455,0,0,1-.034.168v.134a2.464,2.464,0,0,0,.3,1.511c.336.6,1.243.067.907-.537a1.181,1.181,0,0,1-.168-.806v-.1a2.592,2.592,0,0,1,.067-.5v-.1c.067-.369.134-.772.235-1.175.1-.437.168-.84.235-1.209a2.52,2.52,0,0,0,0-1.007.726.726,0,0,0-.739-.6,1.513,1.513,0,0,0-.94.369,5.365,5.365,0,0,0-.705.772q-.3.453-.6,1.007c-.168.369-.739,1.914-.806,2.082l.1-.6c.067-.3.134-1.108.2-1.41a8.513,8.513,0,0,0,.134-.974.416.416,0,0,0-.47-.437.57.57,0,0,0-.537.3l-.034.067v.067c-.034.336-.1.672-.134,1.007-.067.336-.168,1.175-.2,1.545-.067.336-.1.705-.134,1.041a5.752,5.752,0,0,0,.034,1.075l.034.1a.594.594,0,0,0,.369.235.738.738,0,0,0,.47-.034l.067-.034Z" transform="translate(-137.385 -88.8)"/></g></g></svg>