<?xml version="1.0" encoding="utf-8"?>
<!-- Generator: Adobe Illustrator 22.1.0, SVG Export Plug-In . SVG Version: 6.00 Build 0)  -->
<svg version="1.1" id="Layer_1" xmlns="http://www.w3.org/2000/svg" xmlns:xlink="http://www.w3.org/1999/xlink" x="0px" y="0px"
	 viewBox="0 0 94.5 30.3" style="enable-background:new 0 0 94.5 30.3;" xml:space="preserve">
<style type="text/css">
	.st0{fill:#8DC63F;}
	.st1{fill:#C2B59B;}
	.st2{fill:#65544B;}
</style>
<g transform="translate(0.072 -0.002)">
	<g transform="translate(-0.072 0.002)">
		<path class="st0" d="M64.8,13.4c-0.2,0.7,0.5,1.3,1.9,1.2c1.2-0.1,1.6-0.9,2.1-2.1l0.2-0.8c0,0-0.8,0.1-2.2,0.4
			C65.7,12.3,65,12.8,64.8,13.4z"/>
		<path class="st1" d="M79.6,19.7c-0.8,0-1.6,0.1-2.4,0.4l-1.4,3.2c0.1-0.6,0.3-1.2,0.5-1.8c1.1-3.7,2.1-6.2,2.1-6.2H75l-0.2,0.5
			c-0.8-0.6-1.7-0.8-2.7-0.7c-2.1,0.2-3.8,1.8-3.8,3.9c-0.3,0.4-0.6,0.7-1.1,0.9c-0.6,0.3-0.8-0.1-0.6-0.6c0.1-0.4,1.2-4.2,1.2-4.2
			h-3.4c0,0-0.6,2.2-1.1,3.7c-0.3,0.5-0.7,0.8-1.2,1.1c-0.6,0.3-0.8-0.1-0.6-0.6c0.1-0.4,1.2-4.2,1.2-4.2h-3.4c0,0-0.4,0.9-1,1.1
			c-0.1,0-0.2,0-0.3,0c0.4-1.2,0-1.7,0-1.7l0,0c-0.1-0.1-0.2-0.2-0.4-0.3c-0.7-0.1-1.4,0.4-1.5,1.1c0,0,0,0,0,0.1
			c0,0.5,0.2,1,0.6,1.3c-0.2,0.4-1.2,2.7-2.4,3.2c-0.6,0.3-0.8-0.1-0.6-0.6c0.1-0.4,1.2-4.2,1.2-4.2h-3.4c0,0-0.4,1.5-0.8,2.9
			c-0.3,1-0.7,1.6-1.4,1.9c-0.6,0.3-0.8-0.1-0.6-0.6c0.1-0.4,1.2-4.2,1.2-4.2h-3.4c0,0-0.3,1-0.6,2.2c-0.4,0.8-1.2,2.2-2.1,2.6
			c-0.6,0.3-0.8-0.1-0.6-0.6c0-0.2,0.5-1.7,0.9-3.2h1.5l0.3-0.9H44c0.4-1.2,0.6-2.2,0.6-2.2L41,13.7l-0.4,1.4h-1.3L39,16.1h1.3
			c-0.1,0.4-0.2,0.8-0.3,1.2c-0.4,0.8-1.2,2.2-2.1,2.6c-0.6,0.3-0.8-0.1-0.6-0.6c0.1-0.4,1.2-4.2,1.2-4.2h-3.4c0,0-0.1,0.2-0.2,0.6
			c-0.8-0.6-1.8-0.9-2.8-0.7c-2.1,0.2-3.9,1.9-3.8,4c0.1,1.9,1.7,2.7,3.1,2.7c1,0.1,2-0.3,2.6-1c0.4,0.7,1.2,1.1,2,1
			c1.4,0,2.7-0.8,3.5-2c0,1.3,1,2,2.2,2c1.4,0,2.7-0.8,3.5-2c0,1.3,1,2,2.2,2c1.2,0,2.3-0.5,3-1.5c0.2,1,1.1,1.5,2.1,1.5
			c0.8,0,1.6-0.3,2.3-0.7l0,0c0,0,1.5-1,3.1-3.8c0.1,0,0.2,0,0.3,0.1c0.3,0,0.6,0,0.8-0.2c-0.2,0.7-0.4,1.4-0.6,2
			c-0.5,1.7,0.7,2.7,2,2.7c1.2,0,2.3-0.5,3.1-1.4c0.2,0.9,1.1,1.4,2.1,1.4c1.3,0,2.5-0.7,3.3-1.7c0.5,1.1,1.6,1.8,2.8,1.7
			c0.6,0,1.2-0.1,1.8-0.4l-2,6.8l3.7-0.8c0,0,1.1-3.9,2.5-5.2c2.5-2.4,3.9-1.4,3.9-1.4S81.3,19.9,79.6,19.7z M34,18.8
			c-0.3,1.1-0.9,1.9-1.7,2c-1.1,0.1-1.2-1.4-0.7-2.6c0.5-1.1,1.4-2,2.1-1.9C34.2,16.3,34.6,16.9,34,18.8z M74.2,18.8
			c-0.3,1.1-0.9,1.9-1.7,2c-1.1,0.1-1.2-1.4-0.7-2.6c0.5-1.1,1.4-2,2.1-1.9C74.4,16.3,74.8,16.9,74.2,18.8L74.2,18.8z M29.6,12
			c0.4-0.3,1-0.4,1.5-0.3c0,0-0.4-1.1-1.9-1.3c-1.5-0.2-3.1,0.2-3.7,2.6c-0.2,0.6-0.3,0.9-0.3,0.9L24.3,17l0.6-3.5
			c-0.8-1-1.8-1.7-2.9-2.3c-2.2-1-4.8-0.5-6.5,1.1c-2.1,2.1-1.5,4.7,0.2,5.1c1.8,0.4,2.4-1.6,2.4-1.6s-2.2,0.3-2.5-1.1
			c-0.2-0.9,0.5-2.2,2.4-1.9c0.8,0.1,1.6,0.5,2.2,1c-0.2,1.6-1,4.8-3.5,5.6c-1.1,0.4-2.3,0-3-0.9c-0.7,0.6-0.8,1.5-0.4,2.3
			c1,1.7,4,1.5,5.8-0.8c1.2-1.5,1.6-3.9,1.8-5.3c0.7,1,1.4,2.4,2,4.4c1.2,3.9,1.4,9.2,1.4,9.2l4.2-14.7C28.7,13.6,29,12.4,29.6,12z"
			/>
		<g transform="translate(155.276 11.585)">
			<path class="st1" d="M-75.6,3.7c0.3,0,0.6,0.3,0.6,0.6c0,0.3-0.3,0.6-0.6,0.6c0,0,0,0,0,0c-0.3,0-0.6-0.3-0.6-0.6
				C-76.2,3.9-75.9,3.7-75.6,3.7C-75.6,3.7-75.6,3.7-75.6,3.7z M-75.6,3.8c-0.3,0-0.5,0.2-0.5,0.5c0,0.3,0.2,0.5,0.5,0.5
				c0,0,0,0,0,0c0.3,0,0.5-0.2,0.5-0.5C-75.1,4-75.3,3.8-75.6,3.8L-75.6,3.8z M-75.7,4.6h-0.1V4c0.1,0,0.2,0,0.2,0
				c0.1,0,0.1,0,0.2,0c0,0,0.1,0.1,0.1,0.1c0,0.1-0.1,0.1-0.1,0.1v0c0.1,0,0.1,0.1,0.1,0.2c0,0.1,0,0.1,0,0.2h-0.2c0,0,0-0.1,0-0.2
				c0-0.1,0-0.1-0.1-0.1h-0.1L-75.7,4.6L-75.7,4.6z M-75.7,4.2L-75.7,4.2c0.2,0,0.2,0,0.2-0.1c0-0.1,0-0.1-0.1-0.1c0,0-0.1,0-0.1,0
				L-75.7,4.2z"/>
		</g>
	</g>
</g>
<polygon class="st2" points="51.8,25.4 47.2,29.9 42.7,25.4 "/>
</svg>
