<svg xmlns="http://www.w3.org/2000/svg" viewBox="0 0 141.73 141.73"><defs><style>.cls-1{fill:#ece7df;}.cls-2{fill:#8dc63f;}.cls-3{fill:#c4df9b;}.cls-4{fill:#65544b;}.cls-5{fill:#c2b59b;}.cls-6{fill:#ded5c7;}.cls-7{fill:#fff;}</style></defs><title>Asset 4</title><g id="Layer_2" data-name="Layer 2"><g id="ICONS"><circle class="cls-1" cx="70.87" cy="70.87" r="70.87"/><path class="cls-2" d="M34.25,80s15.09,1.9,31.55-21.13c11.42-16,12.22-29.56,9.79-36.69-6.48,6-17.7,6.9-29.11,22.87S34.25,80,34.25,80Z"/><path class="cls-3" d="M47.22,47.3C57.36,34,67,31.59,73.8,27.56c1.47-5.19,2-4.35,2.38-3.27a17.32,17.32,0,0,0-.59-2.16c-6.48,6-17.7,6.9-29.11,22.87-10,14-11.87,30.32-12.17,34.13C35.16,73.32,38.07,59.33,47.22,47.3Z"/><path class="cls-4" d="M35.21,81a9.78,9.78,0,0,1-1.08,0,1,1,0,0,1-.88-1c0-.79,1-19.47,12.41-35.49,7.7-10.77,15.32-14.81,21.45-18a36.11,36.11,0,0,0,7.8-5,1,1,0,0,1,1.63.42C79.18,29.58,78,43.53,66.62,59.4,52.31,79.42,39,81,35.21,81Zm-1-1h0ZM75.07,23.89a46.1,46.1,0,0,1-7,4.24c-5.94,3.15-13.34,7.07-20.76,17.45-9.63,13.47-11.6,29.29-12,33.4,3.49-.09,16.12-1.8,29.66-20.74C75.21,43.94,76.94,31.42,75.07,23.89Z"/><path class="cls-4" d="M34.25,81a1,1,0,0,1-.72-.31,1,1,0,0,1,0-1.41C47.88,65.47,64,47.88,74.67,21.75a1,1,0,1,1,1.85.76C65.67,49,49.41,66.77,35,80.67A1,1,0,0,1,34.25,81Z"/><ellipse class="cls-4" cx="94.05" cy="95.25" rx="23.49" ry="2.95" transform="translate(-2.19 2.21) rotate(-1.33)"/><ellipse class="cls-4" cx="65.54" cy="114.1" rx="20.33" ry="3.03" transform="translate(-2.64 1.56) rotate(-1.33)"/><ellipse class="cls-4" cx="48.51" cy="90.05" rx="26.3" ry="2.21" transform="translate(-2.08 1.15) rotate(-1.33)"/><path class="cls-5" d="M22.7,84.91c3.17,5.87,21.26,9.28,39.66-.66s33.4-34,31.42-37.72S63.41,42.17,45,52.11,19.53,79,22.7,84.91Z"/><path class="cls-6" d="M22.71,84.93c.73-7.66,8.2-20.19,23-28.18,16.73-9,41.71-9.29,47.6-6.49.65-1.76.84-3.08.49-3.73-2-3.68-30.37-4.36-48.77,5.58S19.53,79,22.7,84.91Z"/><path class="cls-4" d="M38.7,91.55c-.65,0-1.29,0-1.93,0-7.37-.35-13.1-2.7-15-6.12h0c-3.69-6.83,4.23-24.18,22.71-34.16,18.2-9.83,47.61-9.84,50.13-5.18,1.46,2.71-3,10.79-8.14,17.59-7,9.3-15.61,17.13-23.68,21.49A51.72,51.72,0,0,1,38.7,91.55ZM23.58,84.44c1.22,2.27,5.81,4.72,13.29,5.07a49,49,0,0,0,25-6.14c7.82-4.22,16.21-11.85,23-20.93C91.24,54,93.44,48,92.9,47c-1.36-2.5-28.84-4-47.42,6C27.79,62.54,20.7,79.1,23.58,84.44Z"/><path class="cls-4" d="M22.7,85.91a1,1,0,0,1-.88-.52c-1-1.81-.79-4.21.55-7.13,4.93-10.67,24.36-26.43,41.11-30a1,1,0,1,1,.42,2c-15.76,3.37-35,18.7-39.71,28.89-.74,1.59-1.44,3.81-.61,5.34a1,1,0,0,1-.41,1.35A.89.89,0,0,1,22.7,85.91Z"/><path class="cls-4" d="M27.2,81.66a1,1,0,0,1-.84-1.55C38.18,62,66.76,48.82,79.45,46.5a1,1,0,0,1,.36,2C67.43,50.74,39.54,63.61,28,81.21A1,1,0,0,1,27.2,81.66Z"/><path class="cls-4" d="M40.56,73.54a1,1,0,0,1-.67-1.74C53.6,59.37,75.73,51.26,93.47,45.58a1,1,0,1,1,.61,1.9C76.53,53.1,54.66,61.11,41.23,73.28A1,1,0,0,1,40.56,73.54Z"/><path class="cls-4" d="M35,87.82c-.56,0-1.11,0-1.67,0a1,1,0,0,1,.06-2C48.35,86.26,63,80.12,75.8,68a1,1,0,0,1,1.37,1.45C64.47,81.51,49.91,87.82,35,87.82Z"/><path class="cls-4" d="M29.86,85a34,34,0,0,1-3.66-.2,1,1,0,0,1-.88-1.11,1,1,0,0,1,1.11-.88c20.22,2.3,49.69-17.09,61-28C91.61,50.73,93,48.23,93,47.33a1,1,0,0,1,2-.16c.15,1.93-1.92,5-6.16,9.07A127.27,127.27,0,0,1,60.61,75.87C52.28,80.16,40.55,85,29.86,85Z"/><path class="cls-4" d="M34.78,79.36a1,1,0,0,1-1-.87,1,1,0,0,1,.86-1.12c18.68-2.53,31.63-10.86,49-25.35a1,1,0,1,1,1.28,1.54c-17.66,14.73-30.86,23.2-50,25.79Z"/><path class="cls-4" d="M48.59,71.73a1,1,0,0,1-.47-1.88L73.76,56.31a1,1,0,1,1,.93,1.76L49.05,71.61A.93.93,0,0,1,48.59,71.73Z"/><path class="cls-5" d="M120.81,68.5A9.44,9.44,0,1,0,105,77.77a5.73,5.73,0,0,0-6.7,2.67,5.69,5.69,0,0,0-7,1.51,9.44,9.44,0,1,0-18.33,1.12c3.33,11,16.74,16.62,30,12.6,12.42-3.77,20.23-14.74,18.35-25.16A8.9,8.9,0,0,0,120.81,68.5Z"/><path class="cls-6" d="M120.81,68.5A9.44,9.44,0,1,0,102.74,74a9.23,9.23,0,0,0,1.16,2.43,9.43,9.43,0,0,1,17.2-6.58A9.17,9.17,0,0,0,120.81,68.5ZM79.18,71.29a9.44,9.44,0,0,0-6.29,11.78,17.23,17.23,0,0,0,1.24,3,9.44,9.44,0,0,1,17.12-7.12A10.32,10.32,0,0,0,91,77.58,9.44,9.44,0,0,0,79.18,71.29Zm25,6.29a5.73,5.73,0,0,0-5.88,2.86,5.63,5.63,0,0,0-6,.52c0,.14.29.36.15.42-1.32.64-1.08,1.44-.61,2.27a1.9,1.9,0,0,0,2.59.67,5.37,5.37,0,0,1,1.07-.45,5.72,5.72,0,0,1,3-.09,2.16,2.16,0,0,0,2.08-.67A5.67,5.67,0,0,1,103,81.56a6.18,6.18,0,0,1,.93-.2,2.32,2.32,0,0,0,2-2.45c-.06-1.06-.33-1.83-1.79-1.11C104.13,77.84,104.16,77.65,104.14,77.58Z"/><path class="cls-4" d="M94.24,98a27,27,0,0,1-10.47-2.06A20,20,0,0,1,71.93,83.36a10.45,10.45,0,1,1,20.42-3.67,7.26,7.26,0,0,1,1.37-.59,6.75,6.75,0,0,1,4.17.09,6.63,6.63,0,0,1,3.41-2.39,6.14,6.14,0,0,1,1.47-.27,10,10,0,0,1-1-2.24,10.45,10.45,0,0,1,20-6.08h0a11.47,11.47,0,0,1,.42,2.22c2,11-6.2,22.29-19.06,26.2A30.83,30.83,0,0,1,94.24,98ZM81.92,71.88a8.65,8.65,0,0,0-2.45.36,8.46,8.46,0,0,0-5.63,10.54A18.07,18.07,0,0,0,84.55,94.07a26.56,26.56,0,0,0,18,.64c11.88-3.61,19.47-13.94,17.65-24a9.22,9.22,0,0,0-.34-1.9A8.44,8.44,0,0,0,103.7,73.7a8.29,8.29,0,0,0,2,3.38,1,1,0,0,1-1,1.64,4.79,4.79,0,0,0-2.78,0,4.72,4.72,0,0,0-2.74,2.22,1,1,0,0,1-1.33.4A4.72,4.72,0,0,0,92,82.57a1,1,0,0,1-1.19.29,1,1,0,0,1-.58-1.09,8.17,8.17,0,0,0-.23-3.9A8.45,8.45,0,0,0,81.92,71.88Z"/><path class="cls-4" d="M91.72,94.71c-9.61,0-17.63-4.25-19.79-11.35a1,1,0,0,1,.67-1.25,1,1,0,0,1,1.24.67c2.59,8.5,15,12.28,27.65,8.44,11.74-3.57,19.94-12.75,18.68-20.9a1,1,0,1,1,2-.3c1.44,9.26-7.19,19.19-20.07,23.11A35.73,35.73,0,0,1,91.72,94.71Z"/><path class="cls-5" d="M82.57,89.67l-1-2.19a14.21,14.21,0,0,0-3.5-4.84l-1.75-1.58a15.23,15.23,0,0,0-13.58-6.33,21.21,21.21,0,0,0-10.66,4c-9.59,6.92-5.14,27.49-7.87,32.08,5.15-1.36,23.34,9.55,32.93,2.63a21.26,21.26,0,0,0,7.43-9.65A15,15,0,0,0,82.57,89.67Z"/><path class="cls-6" d="M47.37,104c.24-7.53,1-16.45,6.67-20.56a21.22,21.22,0,0,1,10.66-4,15.21,15.21,0,0,1,13.58,6.32L80,87.35a14.48,14.48,0,0,1,3.5,4.84l1,2.19c.23.31.44.63.64,1a15.89,15.89,0,0,0-2.57-5.67l-1-2.19a14.21,14.21,0,0,0-3.5-4.84l-1.75-1.58a15.23,15.23,0,0,0-13.58-6.33,21.21,21.21,0,0,0-10.66,4C44.58,84.12,45.7,98,45.22,105.88A18,18,0,0,1,47.37,104Z"/><path class="cls-7" d="M71.65,81c1.68,2.15,1.23,4.88,3.22,7.63,1.52,2.11,4.28,2.66,5.64,5.42,1.89,3.85,3.23,4,5,4.83a15.45,15.45,0,0,0-2.93-9.24l-1-2.19a14.21,14.21,0,0,0-3.5-4.84l-1.75-1.58a15.44,15.44,0,0,0-7.86-5.69C68.72,76.88,69.39,78.15,71.65,81Z"/><path class="cls-4" d="M68.91,116.71c-5.24,0-10.95-1.74-15.6-3.16-3.74-1.14-7.28-2.22-8.81-1.81a1,1,0,0,1-1.06-.37,1,1,0,0,1-.06-1.11c.81-1.36.9-5,1-8.76.2-7.93.47-18.8,7.15-23.62a22.41,22.41,0,0,1,11.16-4.15,16.31,16.31,0,0,1,14.41,6.65l1.68,1.52a15.28,15.28,0,0,1,3.75,5.18l.92,2.1a15.92,15.92,0,0,1,2.09,14.93,22.16,22.16,0,0,1-7.78,10.1A14.74,14.74,0,0,1,68.91,116.71Zm-23.18-7a39.54,39.54,0,0,1,8.17,2c7.52,2.29,16.88,5.14,22.68,1a20.16,20.16,0,0,0,7.08-9.2,13.92,13.92,0,0,0-1.9-13.13,1.74,1.74,0,0,1-.11-.18l-1-2.19a13.11,13.11,0,0,0-3.26-4.5L75.68,81.8a1.14,1.14,0,0,1-.15-.16,14.26,14.26,0,0,0-12.68-5.91A20.3,20.3,0,0,0,52.69,79.5c-5.87,4.24-6.13,14.53-6.32,22A42,42,0,0,1,45.73,109.66Z"/><path class="cls-4" d="M44.24,111.77a1,1,0,0,1-1-1.29C47.5,96.39,56.63,86.44,66,85.73a1,1,0,1,1,.15,2c-9.81.74-17.73,12.62-20.94,23.34A1,1,0,0,1,44.24,111.77Z"/><path class="cls-4" d="M75.89,83.68a.84.84,0,0,1-.27,0,1,1,0,0,1-.69-1.23l.45-1.62a1,1,0,1,1,1.93.54L76.85,83A1,1,0,0,1,75.89,83.68Z"/><path class="cls-4" d="M81,90.82a1,1,0,0,1-.09-2l1.56-.15a1,1,0,0,1,1.09.9,1,1,0,0,1-.9,1.09l-1.56.15Z"/><path class="cls-4" d="M54.12,124.78c0-.2,0-.39.08-.76C53.82,124.4,53.76,124.59,54.12,124.78Zm.67-18.43-.13-.12-.16,0s0,.15.06.14A.86.86,0,0,0,54.79,106.35Zm-.67,18.43Zm24-67.12c-.06-.06-.12-.16-.18-.17s-.14.09-.24.17c.1.08.17.17.24.17S78,57.72,78.08,57.66ZM52.7,46.2l-.42-.28-.1.14.43.27Zm1.42,78.58c-.06.36-.29.72.08,1.14l1-.32c.2-.68.37-1.23.54-1.79l-.14-.09Zm1.27-87.3s0-.12-.06-.14-.1,0-.15,0l.08.2Zm-3.06,94.38c.14.1.27.2.41.28a1.5,1.5,0,0,0,.19-.24,2.29,2.29,0,0,0-.41-.21C52.47,131.68,52.4,131.8,52.33,131.86Zm2.15-8.45-.08-.13-.34.18.11.19Zm-.07-86.2s-.09-.06-.13-.09l-.08.15.15.08C54.37,37.3,54.42,37.25,54.41,37.21ZM58,95.33s.12.11.18.16a1.28,1.28,0,0,0,.17-.3s-.1-.12-.21-.25A1.71,1.71,0,0,0,58,95.33Zm-.14-68.62.74-.35-.11-.24C58.19,26.12,57.91,26.2,57.88,26.71ZM45.47,133.9c-.7-.45-.79-.46-1.43-.2C44.55,133.83,44.94,134.1,45.47,133.9ZM57.9,32.49l-.2.22.19.17c0-.07.14-.14.15-.21S58,32.55,57.9,32.49Zm0-11.93-.5.18.06.22.52-.23ZM56.48,9.05c.57,1.32,1.1,1.75,2,1.77C57.78,10.22,57.13,9.64,56.48,9.05ZM55,132.55l.17.2.34-.39-.11-.12Zm.79-20.74.14.08s.08-.11.07-.15-.09,0-.14-.08Zm-1,19.71s-.13.06-.13.08a.85.85,0,0,0,.09.22l.4-.18A1.31,1.31,0,0,0,54.79,131.52Zm.21-5.36-.22-.07c0,.15-.05.29-.06.43a.4.4,0,0,0,.15,0C54.92,126.42,55,126.29,55,126.16Zm-1-98a.31.31,0,0,0-.14-.2c-.07,0-.16.05-.33.11a2.76,2.76,0,0,0,.39.23S54.05,28.19,54,28.16ZM53.52,107a1.13,1.13,0,0,0,.2.13s.1-.1.09-.12a.87.87,0,0,0-.17-.16Zm-6-6.1s.11,0,.25.06v-.68C47.38,100.43,47.36,100.64,47.52,100.88Zm1.12-84.49a1.64,1.64,0,0,0,1.6-.64A1.54,1.54,0,0,0,48.64,16.39ZM49.2,11l-.05-.2-.69.12.08.29Zm.95,28.5a.26.26,0,0,0-.18.16c0,.06.06.15.09.23l.32-.19C50.27,39.56,50.2,39.46,50.15,39.47Zm-1,15.77c-.17-.52-.4-.49-.65-.38h0ZM48,55.31l.57-.44h0c-.18-.08-.4-.27-.52-.22S47.71,55,48,55.31Zm2.73-36.83a1.21,1.21,0,0,0,.18-.28c0-.05-.1-.12-.22-.25a1.33,1.33,0,0,0-.13.36C50.52,18.36,50.63,18.42,50.69,18.48Zm-1.5,34.9A1.82,1.82,0,0,0,50.72,53,1.38,1.38,0,0,0,49.19,53.38Zm-2,35.93c-.44.16-.89.18-1.22.6C46.76,90,46.83,89.92,47.18,89.31Zm1.87,29.42s.05.13.07.13a1,1,0,0,0,.22-.08l-.09-.18A1.37,1.37,0,0,0,49.05,118.73Zm-.17,10.2c.06.06.11.16.17.16s.13-.09.23-.17c-.09-.07-.17-.16-.22-.15S48.94,128.87,48.88,128.93ZM47,110.56a.76.76,0,0,0-.21-.14s-.09.06-.14.09a.9.9,0,0,0,.18.16S46.89,110.61,47,110.56ZM48.43,28l-.23-.32-.13.1.24.31ZM47.35,56.63l0-.15-.48-.16,0,.2Zm9.45,50.26c.05,0,.11.08.15.07s0-.09.08-.13l-.15-.08ZM45.08,134.75l.23.23.23-.28c-.1-.09-.19-.19-.21-.18A1.37,1.37,0,0,0,45.08,134.75Zm.45-41.11s0,.12.07.13.1,0,.15,0l-.1-.19Zm1.95,17.21a1.14,1.14,0,0,0,.28.21s.13-.09.25-.19a1.44,1.44,0,0,0-.37-.19S47.53,110.79,47.48,110.85Zm-1.17-3.07,0,.2.48.12.06-.24Zm0,11.8c1.43.11,1.69-.08,1.67-1.24C47.09,118.42,46.9,119.19,46.27,119.58Zm-.51-82.16s-.08,0-.13.08l.09.13.13-.09S45.8,37.43,45.76,37.42Zm.67,54.82-.09.16.58.31.09-.18ZM73.12,83l.15.15.58-.48-.2-.21ZM66.48,2.2c.07.07.14.2.22.22s.18-.1.38-.21c-.21-.09-.3-.17-.4-.17S66.55,2.14,66.48,2.2ZM66,19.13s.07.12.1.12a1.6,1.6,0,0,0,.29-.11c-.19-.1-.25-.15-.28-.14A.2.2,0,0,0,66,19.13Zm-1.62-1.95-.37.28.22.25.32-.36Zm4.21,109a1.65,1.65,0,0,0,.82-1.12l-1.57.93C68.42,126.24,68.42,126.24,68.6,126.14ZM67.19,11.73l.35.42.15-.13-.33-.42ZM63.57,61.41s-.08.06-.11.1l.12.12s.1-.08.09-.12A.13.13,0,0,0,63.57,61.41Zm5.29,16.83-.14-.08s-.07.1-.06.14.08,0,.13.08A.91.91,0,0,1,68.86,78.24Zm-5-5.38S64,73,64,73a1.44,1.44,0,0,0,.24-.09l-.1-.18Zm.2-9.61s-.08-.08-.12-.11-.14.12-.13.17.09.12.18.23A1.28,1.28,0,0,0,64.09,63.25Zm-.34-36.11s-.06-.09-.1-.1-.07.07-.11.1l.11.11Zm0,55.32a.24.24,0,0,0,.17.17s.16-.1.16-.15-.09-.14-.17-.23C63.8,82.34,63.71,82.41,63.71,82.46Zm3.67,47.87a.6.6,0,0,0-.21.08l.14.26a1.19,1.19,0,0,0,.17-.22S67.41,130.33,67.38,130.33ZM74.91,1.39l.19.12.07-.16s-.1-.09-.14-.08S75,1.35,74.91,1.39Zm-1.42,9.89a1,1,0,0,0-.07-.15s-.12,0-.14.08,0,.1.07.15Zm4.5,23s-.06-.08-.09-.12l-.13.1.12.16A.33.33,0,0,0,78,34.33ZM50.52,91.62s0,.08.08.12l.15-.18-.16-.09A.34.34,0,0,0,50.52,91.62ZM78,32.54a.53.53,0,0,0-.12-.1s-.08,0-.08,0l.06.14ZM69.91,58.75c0,.06,0,.15,0,.17a.86.86,0,0,0,.23,0,1.18,1.18,0,0,0,0-.2A1.94,1.94,0,0,0,69.91,58.75Zm1.78,28,0,.15.5-.1,0-.13ZM69.85,14.31s-.09,0-.14.06,0,.13.08.14.09,0,.14-.06S69.89,14.33,69.85,14.31Zm1.22-7.38a.91.91,0,0,0-.13-.19s-.14,0-.13.06A2,2,0,0,0,70.9,7Zm-.24,65a.37.37,0,0,0,.07.14,2.18,2.18,0,0,0,.23-.09L71,71.78A1.48,1.48,0,0,0,70.83,71.91Zm-14-53.08s-.12.05-.12.09,0,.09.08.14l.13-.1Zm2-3.15-.14.12a1.24,1.24,0,0,0,.14.18s.12-.08.11-.1A1,1,0,0,0,58.83,15.68Zm1,47.12-.06.44.13,0c0-.08.1-.15.1-.23a.88.88,0,0,0-.06-.27Zm2.48-18.16a.31.31,0,0,0-.16.19c0,.05.08.18.12.17s.15-.08.45-.25C62.51,44.68,62.42,44.62,62.35,44.64ZM61.19,97.47a1.56,1.56,0,0,0,.16.2,2.7,2.7,0,0,0,.31-.2,2.37,2.37,0,0,0-.32-.09C61.29,97.38,61.24,97.44,61.19,97.47Zm-2,8.25c-.13.16-.22.23-.25.33s.11.18.16.18a.41.41,0,0,0,.27-.16C59.35,106,59.24,105.9,59.15,105.72Zm2.61.79s.15.17.18.15a1.87,1.87,0,0,0,.28-.25c-.13-.08-.24-.18-.26-.17A.76.76,0,0,0,61.76,106.51ZM56.63,41.17a.26.26,0,0,0-.21.14s.06.15.13.29l.27-.29C56.76,41.26,56.69,41.16,56.63,41.17Zm2.51,67.54a1.14,1.14,0,0,0,.31.13s.11-.11.21-.21c-.14-.07-.25-.16-.34-.15S59.2,108.63,59.14,108.71Zm.47-82.82-.16-.07-.14.11a.62.62,0,0,0,.2.1S59.58,25.94,59.61,25.89Zm-.09-14.23s.11.06.16.05,0-.08.06-.13l-.13-.1ZM64.89,78s.1.07.14.06,0-.08.08-.12L65,77.89Zm0-18.77a1.39,1.39,0,0,0-.19.15s.07.13.09.12a.9.9,0,0,0,.22-.11Zm.2-48.4s.08.08.13.11a.86.86,0,0,0,.13-.2s-.08-.07-.16-.13A.84.84,0,0,0,65.06,10.85Zm-.53,16.26-.15-.06a.58.58,0,0,0,0,.14l.07,0Zm-.39-15.27.69.2C64.69,11.65,64.47,11.54,64.14,11.84Zm.27,106.64s0,.1.07.15.12,0,.13-.08,0-.09-.06-.14S64.43,118.45,64.41,118.48Zm-1.19-16.63-.12-.55-.26.06.19.55ZM63.08,42.1,63,42c-.05,0-.12,0-.13.08s0,.09,0,.14Zm2,.46s0-.11-.09-.12-.08.05-.12.07l.09.13Zm-2,60.41h.16v-.5h-.16Zm-.23,25.78s.08.06.13.08l.07-.14-.14-.08S62.87,128.72,62.88,128.75ZM55.51,87.23c-.12-.1-.19-.2-.29-.24s-.19.14-.18.16a.73.73,0,0,0,.2.26S55.38,87.32,55.51,87.23ZM25.7,44a.25.25,0,0,0-.17.16c0,.05.09.12.16.21.08-.09.17-.15.18-.21S25.76,44,25.7,44ZM24.6,67.94a1.39,1.39,0,0,0,.21.11,1.89,1.89,0,0,0,.1-.17.74.74,0,0,0-.22-.08S24.63,67.89,24.6,67.94Zm-7.15-3.85.92-.55C17.5,63.19,17.31,63.34,17.45,64.09Zm7-42.59.05.16.43-.11,0-.16Zm1.73,44.92s-.11.06-.11.1.06.08.1.12l.12-.12S26.23,66.42,26.19,66.42Zm1.06,38.79s.05.09.08.14.12-.06.13-.1-.06-.09-.09-.13S27.25,105.17,27.25,105.21ZM32.54,130s.13.19.16.17a1,1,0,0,0,.26-.22l-.24-.2C32.65,129.83,32.56,129.9,32.54,130ZM23.16,21.44l0,.27.67-.05v-.22Zm-3.7,33.19s.05.09.07.13l.12-.09a.57.57,0,0,0-.13-.08S19.46,54.63,19.46,54.63Zm1.53-6,.07.21.14-.07s0-.13-.05-.15S21.05,48.61,21,48.61Zm1.85,11.3c0,.08,0,.18.08.23s.15,0,.26,0-.06-.22-.11-.26S22.92,59.89,22.84,59.91Zm2.91-35.57s.05.1.08.15l.16-.06-.11-.2S25.77,24.3,25.75,24.34Zm3.79,1.82.13.64C29.92,26.42,29.92,26.42,29.54,26.16Zm.74,36.66,1,.34C30.84,62.64,30.84,62.64,30.28,62.82Zm.92,59.43h-.88C30.76,122.6,30.76,122.6,31.2,122.25Zm1.7-48.73c.17.06.34.1.51.15l.05-.32h-.55S32.88,73.51,32.9,73.52ZM27.44,86.16a.6.6,0,0,0-.13-.09s0,0,0,.06a.46.46,0,0,0,.07.14Zm2.48-13.09c0,.1-.14.23-.11.3s.18.15.28.21c.06-.09.16-.18.16-.28s-.08-.23-.12-.35ZM27,83.7l-.21.27a1.62,1.62,0,0,0,.38.09,1.78,1.78,0,0,0,.39-.07v-.15Zm3-47.21s.09-.05.13-.08,0-.12-.09-.12-.09.05-.13.07S29.89,36.48,29.93,36.49Zm-3,75.95.15,0,.1-.35-.15,0ZM28,123c.05.06.1.16.16.17s.14-.08.27-.16a1.37,1.37,0,0,0-.29-.12S28,123,28,123ZM17,91.46c.56.25.56.25.91.11C17.56,91.34,17.56,91.34,17,91.46ZM7.26,88.62c0,.07.12.12.18.18s.13-.14.12-.21-.1-.13-.19-.24C7.31,88.47,7.24,88.56,7.26,88.62ZM17.55,77.05s-.06-.14-.07-.13a.37.37,0,0,0-.23.1s0,.13.08.25A1.11,1.11,0,0,0,17.55,77.05ZM6.71,42.38s-.11.09-.1.11a.63.63,0,0,0,.12.21c.06-.06.13-.11.12-.12A1.21,1.21,0,0,0,6.71,42.38Zm.82,31.79s.12.08.13.07a.56.56,0,0,0,.16-.18c-.07,0-.14-.1-.15-.09S7.58,74.1,7.53,74.17Zm4.12-38,.24.44.14-.07-.17-.48ZM2.46,57.73c.1-.24.17-.42.25-.59C2.26,57.3,2.26,57.3,2.46,57.73Zm11.61,8.45s0,.1,0,.15l.15,0s0-.1,0-.15S14.09,66.15,14.07,66.18Zm-11-10.49.42.34.13-.17-.43-.32ZM3.24,61a.22.22,0,0,0,.13.1A.2.2,0,0,0,3.48,61a2.2,2.2,0,0,0-.11-.27C3.28,60.89,3.23,61,3.24,61Zm1.9,15.18c.13-.15.21-.21.2-.23a1.83,1.83,0,0,0-.16-.26Zm1.71,24.9a.3.3,0,0,0,.13.23s.15-.05.22-.07l-.13-.38C7,101,6.85,101,6.85,101.06Zm8.27-7a4.52,4.52,0,0,0,.11.53l.32-.07c-.05-.18-.09-.36-.14-.54A2.79,2.79,0,0,0,15.12,94.06Zm.08-63.47-.16,0L15,31l.13,0Zm.16,41,.08-.18-.22-.06s-.07.12-.05.13A.72.72,0,0,0,15.36,71.63Zm1.11,31.09a1,1,0,0,0,.24.17s.11-.1.18-.19c-.09-.06-.17-.14-.23-.14S16.53,102.66,16.47,102.72Zm-2.91-30.6.28.19.37-.58L14,71.58Zm3-25-.51.3.09.16.52-.29Zm-1.83-2.5.14.08c0-.05.08-.1.07-.14s-.09-.06-.14-.08ZM14,63.46a4.69,4.69,0,0,0-.53,0l0,.32.52-.06C14,63.62,14,63.46,14,63.46Zm0-17.24.07.22.19-.06a.84.84,0,0,0-.11-.21S14.08,46.2,14,46.22Zm.61-4.65a.38.38,0,0,0-.1.12s0,.07,0,.07l.15-.06ZM35.5,105.06l.1-.65C35.27,104.73,35.27,104.73,35.5,105.06Zm6.9,4.9a2.43,2.43,0,0,0,.14.2l.22-.2a.77.77,0,0,0-.25-.1S42.4,109.94,42.4,110Zm-.93-77.48a1,1,0,0,0-.19-.21s-.14,0-.14.08a.63.63,0,0,0,.07.22Zm.61,56.93-.15-.1a1.32,1.32,0,0,0-.12.2s.1.08.11.07A.87.87,0,0,0,42.08,89.41ZM38.51,58.23a.8.8,0,0,0-.19.13l.22.2a2.59,2.59,0,0,0,.1-.24S38.54,58.22,38.51,58.23ZM41.2,45c-.11.14-.28.27-.3.41,0,.33.31.7.55.62s.24-.23.46-.46ZM42,98.54l.59-.13,0-.17-.58.05Zm-4.17,25c-.06,0-.16.11-.16.17s.09.13.16.23c.08-.1.17-.17.16-.22S37.93,123.58,37.87,123.52ZM38,89.41a.41.41,0,0,0,.15.29c.05,0,.18-.09.35-.17-.15-.14-.22-.24-.31-.27S38,89.36,38,89.41Zm1.53,14.66a1,1,0,0,0,.14.31l.37-.21c-.15-.13-.22-.23-.32-.25S39.57,104,39.57,104.07Zm.23-76.48c.06,0,.13-.09.22-.16-.09-.08-.16-.17-.22-.17a.25.25,0,0,0-.16.17C39.63,27.48,39.74,27.59,39.8,27.59Zm2,85.79.44.38.18-.25-.48-.32Zm-1-15.64c.08,0,.16.1.23.08a.25.25,0,0,0,.15-.18c0-.07,0-.16-.13-.35Zm6.07-57.65L46.76,40s-.07.11-.06.15.09.06.13.09Zm.27-1.85L47,37.8l-.15,0,.1.47Zm-.68-6.88L45.36,32c.22.44.4.77.58,1.11l.25,0C46.29,32.53,46.38,32,46.5,31.36ZM46,54.46c.8-.16,1.73.09,2.39-.7C47.37,53.3,47,53.4,46,54.46ZM45.77,5.27c.07,0,.13-.1.23-.18-.09-.07-.16-.16-.22-.15a.26.26,0,0,0-.17.17S45.71,5.27,45.77,5.27ZM43.4,62.2V60.55C43,61.47,43,61.56,43.4,62.2ZM40.93,26.84s0-.08,0-.08l-.15,0,.06.15Zm-.19,20s-.11.08-.11.12.06.11.1.11.09-.07.13-.1Zm-.26,57.83a.8.8,0,0,0-.07.28s.11.1.13.09.14-.11.14-.18S40.58,104.77,40.48,104.68ZM38.71,51.33c-.05.11-.11.19-.1.26s.1.13.16.19a.69.69,0,0,0,.14-.25C38.92,51.48,38.8,51.42,38.71,51.33ZM34.29,62.14a.26.26,0,0,0-.18.16c0,.05.06.14.13.28a1.62,1.62,0,0,0,.23-.31S34.35,62.13,34.29,62.14Zm.45,36.94a.66.66,0,0,0-.19-.15s-.08.06-.12.1.11.12.17.17S34.68,99.14,34.74,99.08Zm.73-64.58a2.32,2.32,0,0,0-1.9-.33A1.94,1.94,0,0,0,35.47,34.5Zm-.76,87.92c0,.07.06.15.1.22s.16-.08.18-.14,0-.15-.08-.28C34.82,122.31,34.72,122.36,34.71,122.42Zm-.25,8.78a.54.54,0,0,0,.07.13,1,1,0,0,0,.22-.08l-.09-.17A.82.82,0,0,0,34.46,131.2Zm.91-55.82s-.09,0-.14.06l.07.14.15-.07S35.41,75.39,35.37,75.38Zm-2.63-45-.47-.23-.09.19.47.23Zm-.63,69.91s-.13.06-.13.08a1,1,0,0,0,.09.21l.25-.11A1,1,0,0,0,32.11,100.27Zm2.7,2.47a.34.34,0,0,0,0,.14,1.41,1.41,0,0,0,.22-.06l-.07-.19A.78.78,0,0,0,34.81,102.74ZM50.16,67.22a1.94,1.94,0,0,0,1.74-.07A2.24,2.24,0,0,0,50.16,67.22ZM38.88,30.46s.09.11.12.1a.52.52,0,0,0,.19-.11L39,30.31Zm-.45,47.81a1.06,1.06,0,0,0-.65-1.34l.45,1.38Zm-.38-64.51s0-.09-.08-.13-.12,0-.13.09,0,.09.08.13S38,13.8,38.05,13.76ZM32.79,54.29a1.05,1.05,0,0,0,.24-.06L33,54a.84.84,0,0,0-.21.11S32.78,54.3,32.79,54.29ZM37.1,37.84,37,37.79l-.19.36.21.08Zm-3.41-1a1.22,1.22,0,0,0,.17.15s.07-.07.13-.14a.76.76,0,0,0-.19-.12S33.72,36.82,33.69,36.86Zm5,8.92c-.06,0-.15,0-.22.08s.08.17.14.2.16,0,.29-.06C38.83,45.89,38.78,45.79,38.71,45.78ZM37.25,17.64l-.18-.49a1.71,1.71,0,0,0-.12.4c0,.06,0,.16.07.16A2,2,0,0,0,37.25,17.64Zm0,61,.23-.09-.07-.2a.92.92,0,0,0-.21.13S37.22,78.59,37.24,78.65ZM35.87,34.44l.2.15c0-.05.09-.13.08-.15a1,1,0,0,0-.17-.18Zm1.18,51.32.66-.57C36.92,85.05,36.92,85.05,37.05,85.76Zm78.5-51.48-.27.26.12.12a3.19,3.19,0,0,0,.26-.26S115.59,34.32,115.55,34.28Zm6.65,79s-.08-.05-.13-.08l-.07.15.14.08S122.21,113.34,122.2,113.29Zm.87-90.15c0-.05,0-.13,0-.15s-.09,0-.14,0,0,.12,0,.14S123,23.15,123.07,23.14Zm-.47,95.19-.8-1C121.48,117.89,121.56,118,122.6,118.33Zm-1.06-52a2.18,2.18,0,0,0,.36-.17c-.12-.11-.21-.22-.25-.2a1.26,1.26,0,0,0-.27.2C121.43,66.26,121.5,66.38,121.54,66.37Zm-.52-4.5a.78.78,0,0,0,0,1.19A.78.78,0,0,0,121,61.87Zm2.12-4.77.24-.15a1,1,0,0,0-.23-.15s-.12.07-.11.09A.58.58,0,0,0,123.14,57.1Zm1.11-8.65.16-.12a.79.79,0,0,0-.18-.14s-.09.05-.13.08ZM124.8,115l.29.38.12-.09-.3-.38Zm-1.3-77c-.07,0-.12-.11-.19-.15a.43.43,0,0,0-.12.11.9.9,0,0,0,.16.18Zm-2.39,29.41c-.1.06-.13.24-.22.43h.7C121.57,67.47,121.52,67.2,121.11,67.41Zm2.41,38.78c-.16.11-.25.14-.25.16a2.29,2.29,0,0,0,.07.28ZM123.93,31l.8-.1C124.27,30.53,124.09,30.57,123.93,31Zm-4.12,35.44c0,.07,0,.18.09.2s.14-.05.25-.1a1,1,0,0,0-.21-.18S119.81,66.43,119.81,66.45Zm1.41,11.9c-.08-.45-.31-.6-.76-.6C120.49,78.28,120.67,78.5,121.22,78.35Zm-1.47,42.83s.11.15.17.16.13-.08.2-.12l-.18-.22ZM126.5,29l-.19-.11c0,.05-.08.12-.07.15a.58.58,0,0,0,.17.14Zm-12.39,92.06a.46.46,0,0,0,.14.07c.07-.11.13-.23.2-.35l-.21-.1A2.84,2.84,0,0,0,114.11,121.05Zm6.79-88.13a.89.89,0,0,0-.51-.06,1.52,1.52,0,0,0-.4.24c.13.14.23.35.39.39a.59.59,0,0,0,.48-.17C120.94,33.25,121,32.94,120.9,32.92Zm.57-10.82a.67.67,0,0,0-.76-.59C120.76,22,121,22.08,121.47,22.1Zm-.6,67.35.75.06v-.22A.49.49,0,0,0,120.87,89.45Zm-1.2-56.81s-.07,0-.07,0a.79.79,0,0,0,.13.31c0,.06.17.07.26.1s0-.21,0-.27A.74.74,0,0,0,119.67,32.64Zm.32.46Zm2.81,33.09c-.12-.06-.34.11-.7.24l.88.46.22-.22C123.07,66.5,123,66.27,122.8,66.19ZM115,103a.58.58,0,0,0,.05.14l.13-.08a1.27,1.27,0,0,0-.12-.1Zm.94-73.53a1.12,1.12,0,0,0-.1-.22s-.15,0-.15.06a1.14,1.14,0,0,0,0,.24Zm-1-11.77c0,.07.1.14.15.2s.16-.12.17-.18-.09-.14-.16-.26C115,17.53,114.94,17.6,115,17.66Zm9.64,84s0,.09-.07.14a.85.85,0,0,0,.23,0s0-.09.08-.18A.92.92,0,0,0,124.59,101.62ZM116.05,22.4s-.07-.13-.09-.12a.81.81,0,0,0-.21.1l.14.25C116,22.52,116,22.47,116.05,22.4Zm-2.13,90.35c-.07,0-.12.11-.18.17a1,1,0,0,0,.26.16s.09-.12.16-.21C114.06,112.81,114,112.73,113.92,112.75Zm1.67-27.23.94.17C116.23,85.24,116,85.28,115.59,85.52ZM114.4,108.8l-.16-.07s-.09.11-.08.15.08.08.12.12Zm-.35-31.93a1.59,1.59,0,0,0-.26-.26s-.18.12-.17.16a1.15,1.15,0,0,0,.18.29Zm-.48-53.12a1.32,1.32,0,0,0,0,1.24l.27-1.12Zm2.5,35.43c.06-.1.16-.18.19-.29s-.1-.12-.2-.25a1.28,1.28,0,0,0-.17.37C115.88,59.06,116,59.12,116.07,59.18Zm3-34.52c0,.06.13.1.2.15s.1-.16.1-.24,0-.18-.13-.43C119.11,24.5,119,24.59,119.06,24.66Zm6.68,36.76c-.22.57.1.93.41,1.36C126.42,61.94,126.41,61.91,125.74,61.42Zm-1.87,51.52.24.85-.77.36c.5.32.87.34,1.16-.05S124.39,113.23,123.87,112.94Zm-7.24-16.2s-.09.05-.13.08.06.11.09.12.09,0,.13-.08S116.67,96.75,116.63,96.74Zm2.06-65.3a4.59,4.59,0,0,0,.33.44.88.88,0,0,0,.21-.12c-.08-.17-.17-.33-.27-.5Zm3.81,17.84s-.11-.08-.15-.07-.09.07-.14.1a.62.62,0,0,0,.2.1S122.47,49.32,122.5,49.28Zm-4.68,62.37a1.21,1.21,0,0,0,.28.18s.12-.1.25-.21c-.16-.07-.26-.15-.36-.15S117.88,111.59,117.82,111.65ZM117,37v1.25C117.59,37.43,117.58,37.38,117,37Zm.9,66.65-.37.18.15.16.29-.27Zm-.1-81c.12,0,.23-.13.35-.21l-.28-.37-.37.33C117.58,22.5,117.68,22.66,117.78,22.66Zm8.28,40.66.58.44C126.54,63.27,126.54,63.27,126.06,63.32Zm6.2-21-.25-.23-.48.64.19.16Zm1.25-2.85-.1-.17a.76.76,0,0,0-.19.12s.05.13.07.13A1.19,1.19,0,0,0,133.51,39.43Zm1.87,50.13c.05,0,.1.07.14.06s.06-.08.08-.12l-.14-.07Zm-2.18-19.1.85-.62C133.45,69.71,133.27,69.86,133.2,70.46Zm.8-6.93s.13.07.14.06a.78.78,0,0,0,.11-.2l-.18-.08A.94.94,0,0,0,134,63.53Zm.94,31.36c.05.07.1.17.17.2s.14-.07.34-.17c-.16-.09-.24-.16-.32-.16S135,94.84,134.94,94.89Zm-2.73,7.9-1,.24C132.05,103.5,132.05,103.5,132.21,102.79ZM132,49.41a.74.74,0,0,0,.16.19l.12-.16-.18-.16S132,49.39,132,49.41Zm2,11.92.38.31.11-.13-.39-.31Zm-1.45-11.88.16,0,.1-.46-.16,0C132.65,49.14,132.62,49.29,132.59,49.45Zm.82,10.49.58.2.06-.18a1.08,1.08,0,0,0-.3-.19,1,1,0,0,0-.34,0ZM139,53s0,.16,0,.32l.55-.16c0-.09-.05-.18-.07-.26A3.56,3.56,0,0,0,139,53Zm2,9.51-.36.39.12.13.41-.32Zm-1.39-5.82a1.26,1.26,0,0,0,.79,0c0-.2-.09-.39-.14-.59A2.49,2.49,0,0,0,139.52,56.65ZM.05,72.92c0,.1,0,.2,0,.3L.21,73l-.14-.09ZM137.14,45.76l-.36-.15-.06.13.54.31Zm3.92,25.55s-.09.09-.08.13.07.06.12.09.09-.09.08-.13S141.1,71.34,141.06,71.31ZM137,69.56a1.13,1.13,0,0,0,.25.24s.12-.1.24-.2a1.6,1.6,0,0,0-.33-.2S136.94,69.55,137,69.56Zm1.72,19.79s.06.08.1.12l.11-.12-.12-.11S138.67,89.31,138.67,89.35Zm.1-2.19s.08.06.13.08l.07-.14-.14-.08S138.76,87.12,138.77,87.16Zm2.66-22.65-.23-.08L141,65l.34.11.12-.42S141.44,64.56,141.43,64.51ZM130.69,75.94s0,.09.07.13.12,0,.13-.09,0-.09-.08-.14S130.7,75.9,130.69,75.94Zm-1.88-35.86-.22.49.16.07.22-.49Zm.25-.67-.25-.43-.12.07.23.44ZM128.15,70s.12.17.18.26a2,2,0,0,0,.36-.34c0-.05-.08-.19-.18-.38A2.8,2.8,0,0,0,128.15,70Zm.94,5.8a2,2,0,0,0-.27.32s.08.13.18.26a2.11,2.11,0,0,0,.25-.4S129.15,75.85,129.09,75.78Zm-.54-40.09-.6-.87-.18.13C127.8,35.36,127.94,35.69,128.55,35.69Zm-3,23.08a1.19,1.19,0,0,0-.18.15c.05,0,.1.11.13.1a.68.68,0,0,0,.22-.14C125.65,58.83,125.59,58.76,125.56,58.77Zm4,40.47a2.53,2.53,0,0,0,.12.23c.05,0,.14-.07.13-.1a.78.78,0,0,0-.09-.24C129.63,99.18,129.53,99.23,129.54,99.24Zm-.18-61.3c-.17-.52-.3-.93-.47-1.48C128.46,37.44,128.48,37.5,129.36,37.94Zm-.94,71.26-1.47.52C127.76,110,127.82,110,128.42,109.2Zm-1-51.28a.6.6,0,0,0,.21-.08l-.13-.26a1.73,1.73,0,0,0-.17.21S127.34,57.92,127.37,57.92ZM128,69.11l-.28-.06-.12.62.23.06Zm-1.87-26.72a1.35,1.35,0,0,0-.38-.16c-.06,0-.12.11-.18.17a1.08,1.08,0,0,0,.3.19S126,42.49,126.13,42.39Zm4.1,48.09,0,.17.43-.13a.47.47,0,0,0,0-.15Zm.51-37.84s.06.14.07.13l.22-.09-.09-.17A.86.86,0,0,0,130.74,52.64Zm-.64-18.07c.16,0,.34-.14.64-.29-.25-.19-.39-.38-.5-.37a1.48,1.48,0,0,0-.49.32C129.86,34.35,130,34.56,130.1,34.57Zm.09,10.19-.51-.18-.05.21.52.11Zm.18-.72.2-.12-.35-.44-.07.05C130.23,43.7,130.3,43.87,130.37,44Zm-2.71,54.33.14,0L128,98l-.14-.06Zm2.76-51.6c-.15.07-.39.12-.44.23-.13.35.13.48.66.62Zm-.32-3.84c-.07.11-.19.22-.18.34s.15.17.23.26l.07-.05c0-.09.09-.19.06-.27A.71.71,0,0,0,130.1,42.93Zm.39-2.54-.38.29.1.12.37-.3ZM110,70.59c-.1-.07-.17-.17-.23-.16s-.12.11-.19.17.12.15.18.16S109.85,70.67,110,70.59ZM93.48,42.65c-.63.58-.63.7-.1,1.44C93.94,43.64,93.27,43.19,93.48,42.65Zm.13,49.15s.1.06.2.12c.09-.23.18-.44.26-.66C93.6,91.26,93.51,91.49,93.61,91.8Zm-.86,6.29a.18.18,0,0,0-.12.09s.05.09.09.13l.13-.09S92.79,98.1,92.75,98.09ZM93.5,4.2c-.09-.11-.14-.21-.2-.23s-.16,0-.23.08.08.18.15.2S93.37,4.23,93.5,4.2Zm-.37,12c.07,0,.11-.11.2-.22a.77.77,0,0,0-.26-.05s-.11.11-.1.13S93.09,16.21,93.13,16.2Zm-4.08-.13c.06-.05.15-.11.16-.17s-.09-.13-.16-.23c-.07.1-.17.17-.16.22S89,16,89.05,16.07Zm5.17,32.76,0,.38.21,0-.1-.37Zm-5.3,6.37c.15.23.27.48.74.32l-.6-.48Zm2.27,7.9s-.1,0-.15.07l.15.19.12-.13S91.24,63.11,91.19,63.1Zm.08,7,.11.11s.11,0,.12-.09,0-.1-.06-.14Zm0,35.59s0,.13.07.14.09,0,.14-.06,0-.12-.07-.13S91.33,105.66,91.28,105.68Zm6.31-79a2,2,0,0,0-1.58.62C97,27.39,97.3,27.24,97.59,26.67ZM97,118.45c0,.07,0,.18.09.21s.15,0,.46-.16a2.34,2.34,0,0,0-.4-.13C97.07,118.37,97,118.43,97,118.45ZM95.06,13.79,95,14c.05,0,.12.05.15,0a.18.18,0,0,0,.08-.14S95.12,13.84,95.06,13.79Zm.74,8.54.79-.49C96,21.74,95.75,21.73,95.8,22.33Zm1.44,97.37.18.11.08-.15s-.1-.08-.13-.07S97.28,119.66,97.24,119.7Zm-1.11,10a1.28,1.28,0,0,0-.22.09l.12.25a.85.85,0,0,0,.19-.21S96.16,129.75,96.13,129.75Zm1.36-13.6a.79.79,0,0,0-.18.14l.21.2a.75.75,0,0,0,.1-.25S97.53,116.14,97.49,116.15ZM97.25,7.21c.06,0,.14-.07.21-.11l-.21-.3c-.09.12-.19.19-.17.24A.26.26,0,0,0,97.25,7.21ZM88.57,43.42l.12.14s.14,0,.15-.08,0-.11-.06-.17Zm8.08,89.65c0,.14.23.32.39.39s.24-.21.44-.4l-.47-.44C96.88,132.77,96.65,132.92,96.65,133.07Zm.23-4.27-.18-.12-.15.2s.13.1.15.08A.67.67,0,0,0,96.88,128.8Zm.45-78.11s.12.08.19.1.09-.09.08-.14-.07-.12-.14-.24A.8.8,0,0,0,97.33,50.69ZM82.64,10.26l.24.18c.05,0,.09-.12.14-.18s-.09-.1-.13-.09A1.09,1.09,0,0,0,82.64,10.26ZM77.22,61.45l-.09-.21-1.46.63.12.27C76.32,62,76.88,62,77.22,61.45Zm.13,18.68c.12-.14.24-.22.24-.3s-.13-.21-.2-.21a.3.3,0,0,0-.24.19C77.13,79.88,77.25,80,77.35,80.13ZM82,19.3l.69.43C82.47,19.15,82.47,19.15,82,19.3Zm.34,60.38s-.11.08-.1.13a.88.88,0,0,0,.08.27l.21-.27A.8.8,0,0,0,82.34,79.68Zm.08,54.38.13.11.17-.06c0-.05-.07-.14-.09-.14A1,1,0,0,0,82.42,134.06Zm-5.33-19.78a1.44,1.44,0,0,0-.34-.14c-.06,0-.12.11-.17.17a2.23,2.23,0,0,0,.33.2A1.25,1.25,0,0,0,77.09,114.28Zm37.43-48.77s0,.1,0,.15l.13-.08-.06-.14S114.53,65.48,114.52,65.51ZM77.38,64.07c0,.05.1.13.16.19l.27-.24-.25-.22A.75.75,0,0,0,77.38,64.07Zm-.63,51.37c.39.37.66.36,1,0C77.41,115.09,77.15,115.14,76.75,115.44Zm6.77-50.87.19.13s.09-.08.09-.12a1.24,1.24,0,0,0-.1-.26ZM86.71,42.1A1.43,1.43,0,0,1,86.6,42l-.19.13s.07.13.09.12A.79.79,0,0,0,86.71,42.1Zm.61,71.8c0,.06.12.14.18.14s.1-.1.19-.2a.71.71,0,0,0-.28-.07S87.31,113.88,87.32,113.9ZM87,45.16s0-.08-.08-.13-.11.06-.11.09,0,.09.07.13S87,45.2,87,45.16Zm.55,55.07s-.06-.07-.12-.14a2,2,0,0,0-.07.25s.1.06.12,0A.17.17,0,0,0,87.5,100.23ZM87,108.29l-.73-.87C86.12,108.09,86.39,108.24,87,108.29Zm.49-13.91-1.44.48.08.31a2.29,2.29,0,0,0,1.43-.59Zm.8-82s0,.09,0,.14.13,0,.14-.08,0-.09-.06-.14S88.32,12.33,88.31,12.37ZM82.05,132.28a.63.63,0,0,0-.21.22l.25.16c.06-.09.16-.17.15-.22S82.08,132.26,82.05,132.28ZM83.91,26.79a1.29,1.29,0,0,0,.17.16s.11-.09.1-.11a.85.85,0,0,0-.14-.19Zm.47,1.57a.86.86,0,0,0,0,.27s.11.11.12.1.14-.12.13-.17S84.48,28.46,84.38,28.36Zm-5.75-.08-.18-.07a1.41,1.41,0,0,0-.06.22.34.34,0,0,0,.14.05A1.86,1.86,0,0,0,78.63,28.28Zm33.1,83.07s-.11.08-.17.12l.18.15.15-.1C111.84,111.46,111.8,111.37,111.73,111.35Zm-.64-53.63s-.12.1-.18.16a2.61,2.61,0,0,0,.31.27s.12-.09.25-.2A1.83,1.83,0,0,0,111.09,57.72ZM95.43,38.79l.24.44.19-.11-.3-.41Zm16.3-.74a.8.8,0,0,0,0,.15l.14-.06a.4.4,0,0,0-.1-.12S111.73,38,111.73,38.05Zm-.11-20.49s.06-.07.1-.14l-.25-.05c0,.05,0,.12,0,.14A.17.17,0,0,0,111.62,17.56Zm-4.83,50.66.15.23c.13-.11.27-.21.39-.32a.44.44,0,0,0-.08-.15ZM102.55,99s-.09,0-.13-.08l-.07.15.14.08C102.51,99.13,102.56,99.07,102.55,99Zm4,33.05.19-.11-.57-.34C106.33,132,106.4,132.05,106.56,132.08Zm.56-109.48-.09-.13-.16.12a.33.33,0,0,0,.14.1S107.08,22.64,107.12,22.6ZM107,37c0-.07,0-.15-.09-.16a.21.21,0,0,0-.17,0s0,.1,0,.16Zm2.33,38a1.21,1.21,0,0,0,.16.16s.12-.07.11-.09a.71.71,0,0,0-.12-.2Zm1.92,32.43a1.28,1.28,0,0,0,.2.11l.09-.19a.71.71,0,0,0-.23-.06S111.22,107.36,111.24,107.37Zm-2.73-27.85.67.14.06-.23-.64-.2ZM77.92,68c.72.13.89-.41,1.22-.75L79,67ZM112.3,17.74s.06.05.07,0a.63.63,0,0,0,.11-.12l-.15-.07A.8.8,0,0,0,112.3,17.74Zm1.94,16.67c-.1.19-.23.34-.2.43a.46.46,0,0,0,.34.22c.09,0,.23-.22.22-.32S114.41,34.55,114.24,34.41ZM109.7,80s.08.1.12.1a1.52,1.52,0,0,0,.25-.09l-.25-.19A1.88,1.88,0,0,0,109.7,80Zm1.23-42.11a1.08,1.08,0,0,0-.15.22s.08.1.12.1a.78.78,0,0,0,.2-.11Zm-1.22-19.81s.1-.12.09-.13l-.32-.24-.13.21C109.47,18,109.59,18.08,109.71,18.12Zm1.14-4.69-2.07.34A1.78,1.78,0,0,0,110.85,13.43Zm-8.24,103.65c-.07,0-.18,0-.19.11s.06.13.12.24a.8.8,0,0,0,.16-.23S102.63,117.07,102.61,117.08Zm4.1-73.74c-.12.27-.21.49-.33.78C107.22,44,107.22,43.94,106.71,43.34ZM98.46,6.76l.43.11,0-.24-.45,0Zm1.1,18.48c-.06,0-.11-.12-.13-.11a1,1,0,0,0-.22.14c.05.05.12.15.15.14A.65.65,0,0,0,99.56,25.24Zm-.94,100a.89.89,0,0,0-.15.29c0,.08,0,.16.11.36.17-.29.26-.39.27-.49S98.7,125.32,98.62,125.27Zm.7-7.38a.36.36,0,0,0,.28.26c.1,0,.21-.15.38-.28-.18-.13-.31-.29-.41-.27A.37.37,0,0,0,99.32,117.89Zm-.16,1.29s-.08.09-.08.12.08.06.12.09.09-.08.08-.12S99.21,119.21,99.16,119.18ZM97.84,51.25a1.8,1.8,0,0,0,.06.22l.18-.07a.75.75,0,0,0-.1-.2S97.84,51.23,97.84,51.25ZM95.72,6.64a1.51,1.51,0,0,0-.17-.47c-.14.16-.27.24-.27.32a.36.36,0,0,0,.17.28C95.52,6.8,95.72,6.68,95.72,6.64Zm4.56,118.72a.62.62,0,0,0,.1.22l.26-.14a1,1,0,0,0-.23-.18S100.28,125.33,100.28,125.36Zm-4.63-14.9a1,1,0,0,0-.19.28c0,.05.1.13.21.26a1.28,1.28,0,0,0,.16-.36C95.83,110.58,95.71,110.52,95.65,110.46Zm7.28-3.35c.65.19.83.13,1.23-.41C103.4,106.56,103.21,106.62,102.93,107.11ZM97.82,29.17a1.34,1.34,0,0,0,.18.28l.44-.32A2.31,2.31,0,0,0,98,29C97.94,29,97.81,29.14,97.82,29.17Zm7.44,8.52.73-.35-.1-.25C105.56,37.1,105.29,37.18,105.26,37.69Zm-.91-7.77a1.83,1.83,0,0,0-.24-.18s-.13.08-.13.1.06.18.12.2S104.23,30,104.35,29.92Zm.1,66.67-.12.28.71.31.11-.22C105,96.69,104.86,96.39,104.45,96.59Zm-.69-44.29c0,.05.09.12.16.22.08-.1.17-.16.17-.22s-.1-.16-.16-.16A.27.27,0,0,0,103.76,52.3Zm.14-41.17a5.25,5.25,0,0,0-.22-.55s-.14,0-.29-.06l.3.66Zm1.64,10.52L104,20.38C104.35,21.05,104.74,21.62,105.54,21.65ZM102.73,101s-.11.11-.17.17l.35.34.19-.19C103,101.25,102.86,101.14,102.73,101Zm-1.87,9.55s.07.09.11.14l.15-.17-.15-.09S100.86,110.55,100.86,110.59ZM101,39a1.72,1.72,0,0,0,.24.31l.19-.22a1.1,1.1,0,0,0-.27-.23S101,39,101,39ZM103,11.89l-.08-.2a1.13,1.13,0,0,0-.22.11s0,.14.06.14A.74.74,0,0,0,103,11.89Z"/></g></g></svg>