<svg xmlns="http://www.w3.org/2000/svg" viewBox="0 0 141.73 141.73"><defs><style>.cls-1{fill:#ece7df;}.cls-2{fill:#8dc63f;}.cls-3{fill:#c4df9b;}.cls-4{fill:#65544b;}.cls-5{fill:#c2b59b;}.cls-6{fill:#fff;}.cls-7{fill:#ded5c7;}</style></defs><title>Asset 6</title><g id="Layer_2" data-name="Layer 2"><g id="ICONS"><circle class="cls-1" cx="70.87" cy="70.87" r="70.87"/><path class="cls-2" d="M91.34,59.75C98.8,62.4,112.51,52.58,112,40,102.44,40,84.73,52.27,91.34,59.75Z"/><path class="cls-3" d="M112,40v0c-9.52,0-27.23,12.32-20.62,19.8a7.25,7.25,0,0,0,1,.26c-1.44-6.17,8.7-14,17.07-16.53A3.55,3.55,0,0,0,112,40Z"/><path class="cls-4" d="M94,61.17a9.12,9.12,0,0,1-3-.48,1.07,1.07,0,0,1-.41-.28c-1.9-2.15-2.21-4.81-.91-7.7C92.87,45.64,104.93,39,112,39h0a1,1,0,0,1,1,1c.28,6.58-3.1,13.14-9,17.54A17.31,17.31,0,0,1,94,61.17Zm-2.08-2.28c2.92.89,7-.26,10.8-3,4-2.94,8.12-8.32,8.25-14.85-6.92.59-17,6.95-19.46,12.54C90.57,55.62,90.7,57.38,91.92,58.89Z"/><path class="cls-4" d="M87.11,63.11a1,1,0,0,1-.84-.45,1,1,0,0,1,.29-1.38l2.21-1.45c8.12-5.29,11.16-7.27,19.27-17a1,1,0,1,1,1.54,1.28c-8.3,10-11.41,12-19.72,17.39L87.66,63A1,1,0,0,1,87.11,63.11Z"/><path class="cls-2" d="M82.91,83.55c-2.48,7.52,7.67,21,20.28,20.13C103,94.17,90.22,76.76,82.91,83.55Z"/><path class="cls-4" d="M102.05,104.72c-6.17,0-12.28-3.17-16.54-8.66-3.37-4.33-4.73-9.24-3.55-12.83a1,1,0,0,1,.27-.42c2.09-1.94,4.75-2.32,7.67-1.09,7.15,3,14.11,14.91,14.29,21.94a1,1,0,0,1-.93,1C102.86,104.71,102.45,104.72,102.05,104.72ZM83.78,84.11c-.82,2.94.42,7,3.31,10.73,3,3.89,8.47,7.88,15,7.88h.08c-.76-6.9-7.35-16.77-13-19.15C87,82.68,85.26,82.85,83.78,84.11Z"/><path class="cls-2" d="M54.89,88.24c29.93,6.73,35.48-1.5,38-12.62s1-20.93-28.93-27.66C41.22,42.85,27.13,59.42,16.72,58.51,27.1,62,32.47,83.2,54.89,88.24Z"/><path class="cls-3" d="M63.94,52c22.23,5,28.77,11.69,29.65,19.36C94.51,62,90,53.82,63.94,48,41.22,42.85,27.13,59.42,16.72,58.51a10.09,10.09,0,0,1,1.33.55,12,12,0,0,0,10.51,0C37.5,54.84,48.8,48.63,63.94,52Z"/><path class="cls-4" d="M72.84,91.62a86.71,86.71,0,0,1-18.47-2.47C40.37,86,32.86,76.72,26.83,69.26c-3.73-4.61-6.95-8.6-10.73-9.87a1,1,0,0,1,.41-2c3.66.33,8-1.79,13.13-4.24,8.8-4.25,19.75-9.54,34.22-6.28,28.68,6.44,32.62,15.82,29.69,28.85C91.39,85.4,86.69,91.61,72.84,91.62ZM20,59.18c2.9,2,5.5,5.25,8.38,8.82,5.84,7.22,13.11,16.2,26.43,19.2h0c30,6.74,34.52-1.77,36.79-11.87s1.82-19.72-28.18-26.46C49.63,45.77,39,50.89,30.51,55,26.67,56.85,23.2,58.52,20,59.18Z"/><path class="cls-4" d="M96.86,77.51a.78.78,0,0,1-.22,0L24.24,61.22A1,1,0,0,1,23.49,60a1,1,0,0,1,1.19-.76L97.07,75.54a1,1,0,0,1-.21,2Z"/><path class="cls-4" d="M50.79,88.08a1,1,0,0,1-.67-.25A1,1,0,0,1,50,86.41L65.68,69a1,1,0,1,1,1.49,1.33L51.53,87.75A1,1,0,0,1,50.79,88.08Z"/><path class="cls-4" d="M76.91,73a1,1,0,0,1-.91-.57L64.78,48.79a1,1,0,0,1,1.81-.85L77.81,71.6a1,1,0,0,1-.47,1.34A1.11,1.11,0,0,1,76.91,73Z"/><path class="cls-4" d="M71,91.62a1,1,0,0,1-.7-.29,1,1,0,0,1,0-1.41L86.44,73.63A1,1,0,1,1,87.86,75L71.73,91.33A1,1,0,0,1,71,91.62Z"/><path class="cls-2" d="M70.67,105.39c12.91-20.07,8.48-26.27,1.12-31S57,68.19,44,88.26c-9.8,15.24-1.64,29.85-5.11,37.2C44.26,118.81,61,120.43,70.67,105.39Z"/><path class="cls-3" d="M48.42,90.43c10.2-15.85,17-18.26,23-16.25C64.22,69.62,56.77,68.49,44,88.26c-9.8,15.24-1.64,29.85-5.11,37.2a8.74,8.74,0,0,1,1-1.07,10.71,10.71,0,0,0,3.78-9C43.1,108.22,42.63,99.44,48.42,90.43Z"/><path class="cls-4" d="M38.8,126.66a1,1,0,0,1-.53-.15,1,1,0,0,1-.37-1.28c1.19-2.53.85-6.25.45-10.57-.69-7.56-1.56-17,4.72-26.74,12.48-19.38,20.4-19.8,29.14-14.17,3.44,2.21,7,5.19,7.49,10.5s-2.17,12.32-8.32,21.88h0c-6.08,9.46-14.84,12.52-21.88,15-4.3,1.5-8,2.8-9.92,5.18A1,1,0,0,1,38.8,126.66ZM63.46,72.6c-4.81,0-10.58,3.78-18.7,16.4-5.92,9.19-5.08,18.22-4.42,25.48a41.61,41.61,0,0,1,.26,8.28,40.28,40.28,0,0,1,8.24-3.54c6.75-2.36,15.15-5.3,20.86-14.17,5.82-9,8.44-15.79,8-20.63-.4-4.43-3.4-6.94-6.59-9C68.71,73.88,66.25,72.6,63.46,72.6Zm7.08,33h0Z"/><path class="cls-4" d="M43,120.18a1,1,0,0,1-.54-.16,1,1,0,0,1-.3-1.38L72.67,71.18a1,1,0,1,1,1.68,1.08L43.82,119.72A1,1,0,0,1,43,120.18Z"/><path class="cls-4" d="M42.45,113.11a1,1,0,0,1-.21-2l5.55-1.24a1,1,0,1,1,.44,2l-5.56,1.23A.83.83,0,0,1,42.45,113.11Z"/><path class="cls-4" d="M52.19,116.57a1,1,0,0,1-.94-.66l-2.49-6.83a1,1,0,1,1,1.87-.69l2.5,6.84a1,1,0,0,1-.6,1.28A1,1,0,0,1,52.19,116.57Z"/><path class="cls-4" d="M68.73,109.08a1,1,0,0,1-.89-.53l-8.35-16a1,1,0,0,1,1.78-.93l8.34,16a1,1,0,0,1-.42,1.35A1,1,0,0,1,68.73,109.08Z"/><path class="cls-4" d="M44.81,88.09a1,1,0,0,1-.1-2l20.1-2a1,1,0,1,1,.19,2l-20.09,2Z"/><path class="cls-4" d="M76.73,95.25a1,1,0,0,1-.91-.58l-7.4-16a1,1,0,0,1,1.81-.83l7.41,16a1,1,0,0,1-.49,1.33A1.06,1.06,0,0,1,76.73,95.25Z"/><path class="cls-5" d="M93.66,76.47c-3.67-1.54-7.28-1.28-8.06.58s1.56,4.61,5.23,6.15C104.48,88.93,107,86,107,86S107.3,82.19,93.66,76.47Z"/><path class="cls-4" d="M104,87.75c-2.56,0-6.75-.78-13.52-3.62-4.32-1.81-6.79-5-5.77-7.47s5-2.92,9.37-1.12c13.63,5.72,14,9.8,13.91,10.56a1,1,0,0,1-.24.56C107.48,87,106.55,87.75,104,87.75ZM89.08,76.46c-1.34,0-2.3.36-2.55,1C86,78.59,88,80.91,91.22,82.28c9.69,4.07,13.42,3.62,14.59,3.23-.53-1.05-2.8-4-12.54-8.12h0A11,11,0,0,0,89.08,76.46Z"/><path class="cls-5" d="M50.9,58.53c3.67,1.54,6,4.29,5.23,6.15s-4.39,2.12-8.06.59c-13.64-5.73-13.3-9.55-13.3-9.55S37.25,52.8,50.9,58.53Z"/><path class="cls-4" d="M52.63,67.27a13.17,13.17,0,0,1-4.94-1.08c-13.63-5.72-14-9.8-13.92-10.56a1,1,0,0,1,.24-.55c.49-.58,3.64-3.19,17.27,2.53h0c4.32,1.81,6.8,5,5.77,7.46-.53,1.27-1.88,2-3.79,2.18Zm-16.71-11c.53,1.05,2.8,4,12.54,8.12a10.58,10.58,0,0,0,4.65.91c1.1-.08,1.88-.43,2.1-1,.48-1.16-1.42-3.48-4.7-4.85h0C40.83,55.39,37.09,55.84,35.92,56.22Z"/><path class="cls-5" d="M94.2,68.33c-4-.19-7.27,1.29-7.37,3.31s3,3.8,7,4c14.78.71,16.11-2.88,16.11-2.88S109,69.05,94.2,68.33Z"/><path class="cls-4" d="M97.51,76.72c-1.13,0-2.37,0-3.71-.09a12.55,12.55,0,0,1-5.48-1.44c-1.67-1-2.56-2.23-2.49-3.6.13-2.65,3.74-4.48,8.42-4.26,14.76.72,16.49,4.43,16.68,5.16a1.06,1.06,0,0,1,0,.61C110.66,73.75,108.92,76.72,97.51,76.72Zm-4-7.4c-3.23,0-5.63,1.19-5.68,2.36,0,.57.52,1.23,1.48,1.77a10.59,10.59,0,0,0,4.59,1.18c10.48.51,13.85-1.19,14.81-1.95-.85-.81-4-2.84-14.56-3.35Z"/><path class="cls-5" d="M47.88,66.1c4,.19,7.12,2,7,4s-3.39,3.49-7.37,3.3C32.75,72.69,31.77,69,31.77,69S33.1,65.39,47.88,66.1Z"/><path class="cls-4" d="M48.25,74.42l-.77,0C32.72,73.69,31,70,30.8,69.24a1.06,1.06,0,0,1,0-.61c.27-.71,2.34-4.24,17.1-3.53a12.52,12.52,0,0,1,5.48,1.45c1.67,1,2.56,2.23,2.49,3.6C55.78,72.65,52.55,74.42,48.25,74.42ZM33,69.06c.85.8,4,2.83,14.56,3.34,3.53.18,6.26-1.1,6.32-2.35,0-.56-.52-1.22-1.47-1.77a10.78,10.78,0,0,0-4.6-1.18h0C37.35,66.59,34,68.3,33,69.06Z"/><path class="cls-5" d="M91.93,60.5c-3.8,1.18-6.4,3.7-5.8,5.63s4.16,2.53,8,1.35c14.13-4.38,14.16-8.22,14.16-8.22S106.06,56.12,91.93,60.5Z"/><path class="cls-4" d="M90.33,69.1c-2.63,0-4.62-1-5.16-2.67-.4-1.31.13-2.77,1.51-4.11a12.66,12.66,0,0,1,4.95-2.77h0c14.12-4.38,17-1.48,17.44-.86a1,1,0,0,1,.18.58c0,.76-.75,4.79-14.86,9.17A14.06,14.06,0,0,1,90.33,69.1Zm1.89-7.64a10.73,10.73,0,0,0-4.14,2.29c-.79.77-1.16,1.55-1,2.08.38,1.2,3.33,1.75,6.72.7,10-3.12,12.6-5.86,13.25-6.91-1.08-.46-4.74-1.29-14.83,1.84Z"/><path class="cls-5" d="M47.64,74.25c3.8-1.18,7.36-.57,8,1.35s-2,4.45-5.8,5.63c-14.13,4.38-16.32,1.24-16.32,1.24S33.51,78.64,47.64,74.25Z"/><path class="cls-4" d="M37.74,84.56c-3.72,0-4.82-1.15-5.08-1.52a1,1,0,0,1-.18-.58c0-.76.75-4.78,14.86-9.16,4.47-1.39,8.43-.53,9.22,2s-2,5.49-6.46,6.87C44.28,84,40.36,84.56,37.74,84.56Zm-3.05-2.45c1.07.46,4.74,1.29,14.82-1.84,3.39-1,5.51-3.17,5.14-4.37s-3.32-1.75-6.71-.69h0C37.9,78.32,35.33,81.06,34.69,82.11Zm13-7.86h0Z"/><path class="cls-5" d="M87.11,53.93c-3.16,2.4-4.74,5.66-3.52,7.26s4.78,1,8-1.45c11.77-9,10.49-12.56,10.49-12.56S98.89,45,87.11,53.93Z"/><path class="cls-4" d="M85.77,63.08a3.56,3.56,0,0,1-3-1.28c-1.6-2.11,0-5.84,3.72-8.67h0c11.76-9,15.47-7.21,16.09-6.77a1,1,0,0,1,.37.48c.26.72.94,4.75-10.83,13.7A12.48,12.48,0,0,1,87,63,6.92,6.92,0,0,1,85.77,63.08Zm2-8.36c-2.83,2.15-4.09,4.87-3.34,5.87.35.45,1.19.6,2.27.4a10.71,10.71,0,0,0,4.28-2c8.36-6.36,9.84-9.82,10.09-11-1.17-.07-4.9.4-13.3,6.79Z"/><path class="cls-5" d="M50.2,82c3.17-2.41,6.72-3.06,7.94-1.45s-.35,4.86-3.52,7.27c-11.78,9-14.92,6.75-14.92,6.75S38.42,90.94,50.2,82Z"/><path class="cls-4" d="M40.91,95.8a3,3,0,0,1-1.78-.43,1,1,0,0,1-.37-.48c-.25-.72-.93-4.75,10.83-13.7h0c3.73-2.83,7.75-3.37,9.35-1.26s0,5.84-3.72,8.67C47.32,94.61,43.05,95.8,40.91,95.8Zm-.2-2c1.17.07,4.9-.4,13.3-6.79,2.83-2.15,4.09-4.87,3.34-5.87s-3.72-.5-6.55,1.65h0C42.44,89.14,41,92.6,40.71,93.8Z"/><path class="cls-5" d="M80.34,49.39c-2.15,3.35-2.52,6.94-.83,8s4.82-.74,7-4.09C94.49,40.9,92.05,38,92.05,38S88.35,37,80.34,49.39Z"/><path class="cls-4" d="M80.66,58.74A3.08,3.08,0,0,1,79,58.27c-1.15-.74-1.68-2.21-1.48-4.12a12.45,12.45,0,0,1,2-5.3c8-12.43,12.07-12.07,12.81-11.87a1,1,0,0,1,.51.33c.48.59,2.5,4.15-5.5,16.57a12.48,12.48,0,0,1-4,4A5.29,5.29,0,0,1,80.66,58.74ZM91.36,39c-1.13.33-4.47,2-10.18,10.93h0a10.75,10.75,0,0,0-1.7,4.43c-.11,1.09.1,1.92.57,2.23a2.4,2.4,0,0,0,2.27-.4,10.66,10.66,0,0,0,3.32-3.39C91.33,44,91.53,40.21,91.36,39Zm-11,10.39h0Z"/><path class="cls-5" d="M55.25,88.39c2.15-3.35,5.27-5.18,7-4.08s1.33,4.69-.83,8c-8,12.44-11.7,11.44-11.7,11.44S47.24,100.83,55.25,88.39Z"/><path class="cls-4" d="M49.92,104.81a1.87,1.87,0,0,1-.5-.06,1,1,0,0,1-.5-.33c-.49-.58-2.51-4.14,5.49-16.57h0c2.53-3.94,6.12-5.82,8.35-4.38,1.15.74,1.68,2.2,1.48,4.11a12.45,12.45,0,0,1-2,5.3C55.33,103.61,51.35,104.81,49.92,104.81ZM61.06,85c-1.26,0-3.36,1.44-5,4h0c-5.76,8.94-5.91,12.68-5.74,13.81,1.09-.31,4.44-2,10.2-10.94a10.49,10.49,0,0,0,1.7-4.42c.12-1.1-.1-1.93-.57-2.23A1.13,1.13,0,0,0,61.06,85Zm-5.81,3.41h0Z"/><path class="cls-5" d="M72.42,47.45c-.87,3.88,0,7.38,2,7.83s4.27-2.34,5.15-6.22c3.27-14.43,0-16.37,0-16.37S75.69,33,72.42,47.45Z"/><path class="cls-4" d="M74.83,56.33a3,3,0,0,1-.66-.08c-1.33-.3-2.33-1.49-2.8-3.36a12.53,12.53,0,0,1,.08-5.67h0c3.26-14.41,7.22-15.46,8-15.53a1,1,0,0,1,.59.14c.65.38,3.77,3,.5,17.45a12.41,12.41,0,0,1-2.37,5.15A4.5,4.5,0,0,1,74.83,56.33Zm4.39-22.42c-.94.7-3.49,3.46-5.82,13.76h0a10.61,10.61,0,0,0-.09,4.74c.27,1.06.76,1.77,1.31,1.89s1.29-.3,2-1.15a10.61,10.61,0,0,0,2-4.31C80.89,38.59,79.8,35,79.22,33.91Zm-6.8,13.54h0Z"/><path class="cls-5" d="M62.18,92.67c.88-3.88,3.19-6.66,5.16-6.22s2.85,4,2,7.84C66,108.72,62.22,109,62.22,109S58.92,107.1,62.18,92.67Z"/><path class="cls-4" d="M62.22,110a1,1,0,0,1-.5-.13c-.66-.39-3.78-3-.51-17.46h0c1-4.56,3.77-7.56,6.35-7s3.76,4.47,2.72,9C67,108.92,63.07,110,62.31,110Zm.94-17.15c-2.32,10.25-1.23,13.85-.65,14.93.94-.7,3.49-3.46,5.82-13.75.79-3.47,0-6.37-1.21-6.64s-3.18,2-4,5.46Z"/><path class="cls-5" d="M64.32,48.33c.5,3.94,2.53,6.94,4.53,6.68s3.22-3.66,2.72-7.61C69.7,32.73,65.93,32,65.93,32S62.45,33.65,64.32,48.33Z"/><path class="cls-4" d="M68.61,56a4.31,4.31,0,0,1-3.41-2.22,12.49,12.49,0,0,1-1.87-5.36h0c-1.87-14.66,1.49-17,2.18-17.32a1,1,0,0,1,.6-.08c.75.14,4.59,1.57,6.45,16.23.59,4.64-1,8.39-3.58,8.72ZM66.08,33.28c-.65,1-2.1,4.45-.77,14.92h0a10.64,10.64,0,0,0,1.54,4.48c.62.91,1.32,1.41,1.88,1.34,1.24-.16,2.29-3,1.84-6.49C69.25,37.11,67,34.1,66.08,33.28Z"/><path class="cls-5" d="M70.17,94.33c-.51-4,.71-7.36,2.71-7.61s4,2.74,4.53,6.69c1.87,14.68-1.61,16.29-1.61,16.29S72,109,70.17,94.33Z"/><path class="cls-4" d="M75.8,110.7l-.18,0c-.75-.14-4.58-1.56-6.45-16.23h0c-.59-4.64,1-8.39,3.58-8.72,1.36-.17,2.71.61,3.79,2.2a12.53,12.53,0,0,1,1.86,5.35c1.87,14.66-1.49,17-2.18,17.33A1,1,0,0,1,75.8,110.7ZM71.16,94.2c1.32,10.42,3.58,13.43,4.49,14.25.65-1,2.1-4.44.77-14.92a10.64,10.64,0,0,0-1.54-4.48c-.61-.91-1.31-1.41-1.87-1.34-1.25.16-2.3,3-1.85,6.49Z"/><path class="cls-5" d="M57,51.92c1.82,3.54,4.75,5.66,6.54,4.74s1.77-4.54,0-8.08C56.73,35.42,53,36.06,53,36.06S50.23,38.77,57,51.92Z"/><path class="cls-4" d="M62.62,57.88c-2.18,0-4.76-2.11-6.5-5.5h0c-6.77-13.14-4.42-16.49-3.88-17a1,1,0,0,1,.54-.28c.76-.13,4.85-.09,11.61,13,2.14,4.16,2,8.21-.38,9.43A3.09,3.09,0,0,1,62.62,57.88Zm-4.73-6.41c1.63,3.15,4.09,4.87,5.2,4.3s1.15-3.58-.48-6.73c-4.81-9.34-8-11.4-9.1-11.85-.27,1.14-.45,4.89,4.38,14.28Z"/><path class="cls-5" d="M78.23,93.15c-1.82-3.54-1.84-7.15,0-8.08s4.73,1.2,6.55,4.74c6.77,13.15,4,15.86,4,15.86S85,106.31,78.23,93.15Z"/><path class="cls-4" d="M88.68,106.68c-1.22,0-5.16-1.08-11.34-13.07h0c-2.14-4.16-2-8.21.38-9.42s5.75,1,7.9,5.16c6.76,13.14,4.41,16.49,3.87,17a1,1,0,0,1-.54.27A1,1,0,0,1,88.68,106.68Zm-9.56-14c4.81,9.34,8,11.4,9.1,11.86.27-1.15.45-4.9-4.38-14.28-1.63-3.16-4.08-4.88-5.2-4.31s-1.14,3.58.48,6.74Z"/><path class="cls-5" d="M51.36,57.81c2.92,2.7,6.4,3.69,7.77,2.21s.11-4.88-2.81-7.58c-10.86-10-14.19-8.15-14.19-8.15S40.5,47.76,51.36,57.81Z"/><path class="cls-4" d="M57.28,61.71c-1.93,0-4.37-1.11-6.6-3.17h0c-10.85-10-9.78-14-9.46-14.67a1,1,0,0,1,.41-.45c.66-.37,4.52-1.74,15.37,8.29a12.38,12.38,0,0,1,3.27,4.63c.67,1.8.53,3.35-.4,4.36A3.43,3.43,0,0,1,57.28,61.71ZM52,57.07c2.61,2.41,5.51,3.19,6.36,2.27a2.4,2.4,0,0,0,0-2.31,10.7,10.7,0,0,0-2.76-3.85c-7.71-7.13-11.37-8-12.6-8,.14,1.17,1.25,4.76,9,11.92Z"/><path class="cls-5" d="M85.41,89.29c-2.92-2.7-4.18-6.09-2.81-7.57s4.85-.5,7.77,2.21c10.86,10,9.24,13.51,9.24,13.51S96.27,99.33,85.41,89.29Z"/><path class="cls-4" d="M98.78,98.59c-2,0-6.15-1.26-14-8.57h0a12.5,12.5,0,0,1-3.27-4.63c-.67-1.8-.53-3.35.41-4.35s2.46-1.28,4.31-.75a12.62,12.62,0,0,1,4.87,2.9c10.85,10,9.79,14,9.46,14.68a1,1,0,0,1-.41.44A2.71,2.71,0,0,1,98.78,98.59Zm-12.69-10c7.71,7.14,11.38,8,12.6,8-.13-1.17-1.25-4.75-9-11.92a10.74,10.74,0,0,0-4.06-2.45,2.4,2.4,0,0,0-2.3.18,2.4,2.4,0,0,0,0,2.31,10.7,10.7,0,0,0,2.76,3.85Z"/><path class="cls-6" d="M85.06,80a16.88,16.88,0,1,0-23.33,5.06A16.89,16.89,0,0,0,85.06,80Z"/><path class="cls-5" d="M70.84,88.74a17.88,17.88,0,1,1,15.06-8.2h0A17.86,17.86,0,0,1,70.84,88.74ZM70.9,55a15.89,15.89,0,0,0-8.63,29.24,15.9,15.9,0,0,0,21.95-4.76h0A15.89,15.89,0,0,0,70.9,55Z"/><path class="cls-5" d="M69.83,73.18A1.16,1.16,0,0,1,70.92,72h0a1.15,1.15,0,0,1,1.21,1.09h0A1.15,1.15,0,0,1,71,74.27H71A1.15,1.15,0,0,1,69.83,73.18Zm-2.14-1.09h0a1.15,1.15,0,0,1,.66-1.49h0a1.16,1.16,0,0,1,1.49.66h0a1.14,1.14,0,0,1-.66,1.49h0a1.15,1.15,0,0,1-.41.08h0A1.14,1.14,0,0,1,67.69,72.09Zm5,.48a1.14,1.14,0,0,1-.8-1.41h0a1.15,1.15,0,0,1,1.41-.81h0a1.15,1.15,0,0,1,.8,1.41h0a1.14,1.14,0,0,1-1.1.85h0A1.1,1.1,0,0,1,72.74,72.57Zm-4.19-2.73a1.14,1.14,0,0,1,.17-1.61h0a1.16,1.16,0,0,1,1.62.16h0A1.16,1.16,0,0,1,70.17,70h0a1.16,1.16,0,0,1-.72.26h0A1.16,1.16,0,0,1,68.55,69.84Zm2.93.11h0a1.15,1.15,0,0,1-.35-1.59h0A1.15,1.15,0,0,1,72.71,68h0a1.15,1.15,0,0,1,.33,1.59h0a1.17,1.17,0,0,1-1,.52h0A1.19,1.19,0,0,1,71.48,70Z"/><path class="cls-5" d="M70.49,77.89a1.25,1.25,0,0,1-1.19-1.31h0a1.25,1.25,0,0,1,1.32-1.18h0a1.24,1.24,0,0,1,1.18,1.31h0a1.24,1.24,0,0,1-1.25,1.18h-.06Zm1.87-1.3a1.26,1.26,0,0,1,.55-1.68h0a1.25,1.25,0,0,1,1.68.55h0A1.26,1.26,0,0,1,74,77.15h0a1.25,1.25,0,0,1-.56.14h0A1.25,1.25,0,0,1,72.36,76.59ZM67,76.76h0A1.25,1.25,0,0,1,66.66,75h0a1.26,1.26,0,0,1,1.74-.36h0a1.25,1.25,0,0,1,.36,1.73h0a1.26,1.26,0,0,1-1.05.56h0A1.22,1.22,0,0,1,67,76.76Zm8-1.68a1.25,1.25,0,0,1-.36-1.73h0A1.25,1.25,0,0,1,76.39,73h0a1.25,1.25,0,0,1,.36,1.73h0a1.25,1.25,0,0,1-1,.57h0A1.23,1.23,0,0,1,75,75.08Zm-10.42-1a1.25,1.25,0,0,1,.55-1.68h0a1.25,1.25,0,0,1,1.68.55h0a1.25,1.25,0,0,1-.55,1.68h0a1.25,1.25,0,0,1-.57.13h0A1.25,1.25,0,0,1,64.6,74.06Zm12-1.61a1.25,1.25,0,0,1-1.18-1.32h0A1.25,1.25,0,0,1,76.71,70h0a1.25,1.25,0,0,1,1.18,1.32h0a1.26,1.26,0,0,1-1.25,1.18h-.07ZM65,71.82a1.26,1.26,0,0,1-1.19-1.31h0a1.27,1.27,0,0,1,1.32-1.19h0a1.26,1.26,0,0,1,1.18,1.31h0a1.25,1.25,0,0,1-1.25,1.19H65Zm9.89-3h0a1.24,1.24,0,0,1,.55-1.67h0a1.25,1.25,0,0,1,1.68.55h0a1.25,1.25,0,0,1-.56,1.68h0a1.24,1.24,0,0,1-.56.13h0A1.24,1.24,0,0,1,74.92,68.83Zm-9.58,0A1.26,1.26,0,0,1,65,67.05h0a1.25,1.25,0,0,1,1.73-.37h0a1.25,1.25,0,0,1,.37,1.73h0A1.25,1.25,0,0,1,66,69h0A1.27,1.27,0,0,1,65.34,68.78Zm8-1.7h0A1.25,1.25,0,0,1,73,65.33h0A1.23,1.23,0,0,1,74.67,65h0l0,0h0a0,0,0,0,1,0,0h0a1.25,1.25,0,0,1,.36,1.73h0a1.26,1.26,0,0,1-1,.56h0A1.23,1.23,0,0,1,73.36,67.08Zm-6.24-.79a1.24,1.24,0,0,1,.54-1.68h0a1.25,1.25,0,0,1,1.68.54h0a1.24,1.24,0,0,1-.54,1.68h0a1.17,1.17,0,0,1-.57.14h0A1.25,1.25,0,0,1,67.12,66.29Zm4,0A1.25,1.25,0,0,1,69.9,65h0a1.26,1.26,0,0,1,1.31-1.19h0a1.26,1.26,0,0,1,1.19,1.31h0a1.25,1.25,0,0,1-1.25,1.19h-.06Z"/><path class="cls-5" d="M70.05,81.4h0a1.26,1.26,0,0,1-1.15-1.34h0a1.24,1.24,0,0,1,1.34-1.15h0a1.24,1.24,0,0,1,1.15,1.34h0a1.25,1.25,0,0,1-1.24,1.15h-.1ZM72,80.19a1.25,1.25,0,0,1,.9-1.52h0a1.25,1.25,0,0,1,1.52.9h0a1.25,1.25,0,0,1-.9,1.52h0a1.1,1.1,0,0,1-.31,0h0A1.25,1.25,0,0,1,72,80.19Zm-5.31.37A1.24,1.24,0,0,1,66,78.92h0a1.24,1.24,0,0,1,1.64-.65h0a1.24,1.24,0,0,1,.65,1.64h0a1.25,1.25,0,0,1-1.15.76h0A1.24,1.24,0,0,1,66.68,80.56ZM75,79.33a1.26,1.26,0,0,1,.36-1.74h0A1.25,1.25,0,0,1,77,78h0a1.25,1.25,0,0,1-.35,1.73h0a1.27,1.27,0,0,1-.69.21h0A1.26,1.26,0,0,1,75,79.33Zm-11.19-.65a1.26,1.26,0,0,1-.09-1.77h0a1.25,1.25,0,0,1,1.77-.08h0a1.25,1.25,0,0,1,.09,1.76h0a1.23,1.23,0,0,1-.93.41h0A1.23,1.23,0,0,1,63.76,78.68Zm13.72-1.14a1.24,1.24,0,0,1-.23-1.75h0A1.25,1.25,0,0,1,79,75.56h0a1.25,1.25,0,0,1,.23,1.75h0a1.23,1.23,0,0,1-1,.49h0A1.21,1.21,0,0,1,77.48,77.54ZM61.61,76a1.25,1.25,0,0,1,.5-1.7h0a1.24,1.24,0,0,1,1.69.5h0a1.25,1.25,0,0,1-.49,1.69h0a1.2,1.2,0,0,1-.6.16h0A1.26,1.26,0,0,1,61.61,76ZM79.29,75a1.25,1.25,0,0,1-.79-1.58h0a1.26,1.26,0,0,1,1.59-.78h0a1.25,1.25,0,0,1,.78,1.58h0a1.25,1.25,0,0,1-1.18.85h0A1.12,1.12,0,0,1,79.29,75ZM60.46,72.67a1.26,1.26,0,0,1,1-1.45h0a1.26,1.26,0,0,1,1.45,1h0a1.26,1.26,0,0,1-1,1.45h0l-.21,0h0A1.26,1.26,0,0,1,60.46,72.67Zm18.47-1.84a1.24,1.24,0,0,1,1.24-1.25h0a1.25,1.25,0,0,1,1.26,1.24h0a1.27,1.27,0,0,1-1.25,1.26h0A1.25,1.25,0,0,1,78.93,70.83Zm-17.45-.2a1.25,1.25,0,0,1-1-1.44h0a1.25,1.25,0,0,1,1.43-1h0a1.25,1.25,0,0,1,1,1.43h0a1.25,1.25,0,0,1-1.23,1h-.2Zm17-2.41a1.25,1.25,0,0,1,.77-1.59h0a1.25,1.25,0,0,1,1.59.77h0A1.26,1.26,0,0,1,80.07,69h0a1.22,1.22,0,0,1-.41.07h0A1.26,1.26,0,0,1,78.48,68.22Zm-16.42-.63a1.26,1.26,0,0,1-.51-1.69h0a1.24,1.24,0,0,1,1.69-.51h0a1.25,1.25,0,0,1,.52,1.69h0a1.26,1.26,0,0,1-1.11.66h0A1.26,1.26,0,0,1,62.06,67.59Zm15.15-1.7h0a1.23,1.23,0,0,1,.21-1.75h0a1.24,1.24,0,0,1,1.75.21h0A1.24,1.24,0,0,1,79,66.1h0a1.25,1.25,0,0,1-.77.27h0A1.22,1.22,0,0,1,77.21,65.89Zm-13.61-1a1.25,1.25,0,0,1,.07-1.77h0a1.26,1.26,0,0,1,1.77.06h0A1.25,1.25,0,0,1,65.37,65h0a1.23,1.23,0,0,1-.85.34h0A1.24,1.24,0,0,1,63.6,64.91Zm11.67-.79,0,0h0a1.25,1.25,0,0,1-.38-1.72h0A1.26,1.26,0,0,1,76.58,62h0l0,0h0A1.24,1.24,0,0,1,77,63.73h0a1.23,1.23,0,0,1-1,.58h0A1.23,1.23,0,0,1,75.27,64.12Zm-9.34-1.24a1.25,1.25,0,0,1,.63-1.65h0a1.26,1.26,0,0,1,1.66.63h0a1.25,1.25,0,0,1-.64,1.65h0a1.3,1.3,0,0,1-.51.11h0A1.27,1.27,0,0,1,65.93,62.88Zm6.86.16a1.24,1.24,0,0,1-.91-1.51h0a1.25,1.25,0,0,1,1.51-.92h0a1.27,1.27,0,0,1,.92,1.52h0a1.26,1.26,0,0,1-1.22.95h0A1,1,0,0,1,72.79,63Zm-4-1.33a1.26,1.26,0,0,1,1.13-1.36h0a1.26,1.26,0,0,1,1.36,1.14h0a1.24,1.24,0,0,1-1.13,1.35H70A1.26,1.26,0,0,1,68.79,61.71Z"/><path class="cls-5" d="M69.72,83.72A1.24,1.24,0,0,1,71,82.46h0a1.25,1.25,0,0,1,1.26,1.24h0A1.24,1.24,0,0,1,71,85h0A1.25,1.25,0,0,1,69.72,83.72Zm-2,.88h0a1.25,1.25,0,0,1-.94-1.49h0a1.25,1.25,0,0,1,1.5-.94h0a1.25,1.25,0,0,1,.94,1.49h0a1.26,1.26,0,0,1-1.22,1h0A.9.9,0,0,1,67.73,84.6Zm5-1a1.25,1.25,0,0,1,.92-1.51h0a1.25,1.25,0,0,1,1.51.91h0a1.25,1.25,0,0,1-.91,1.52h0a1.53,1.53,0,0,1-.3,0h0A1.26,1.26,0,0,1,72.71,83.63Zm-8.06-.12a1.26,1.26,0,0,1-.57-1.68h0a1.24,1.24,0,0,1,1.67-.56h0a1.24,1.24,0,0,1,.57,1.67h0a1.26,1.26,0,0,1-1.12.7h0A1.23,1.23,0,0,1,64.65,83.51Zm11-.65a1.25,1.25,0,0,1,.54-1.68h0a1.25,1.25,0,0,1,1.68.55h0a1.25,1.25,0,0,1-.54,1.68h0a1.28,1.28,0,0,1-.57.13h0A1.25,1.25,0,0,1,75.61,82.86Zm-13.7-1.12A1.25,1.25,0,0,1,61.73,80h0a1.24,1.24,0,0,1,1.76-.17h0a1.24,1.24,0,0,1,.18,1.75h0a1.23,1.23,0,0,1-1,.46h0A1.23,1.23,0,0,1,61.91,81.74Zm16.34-.29a1.24,1.24,0,0,1,.14-1.76h0a1.24,1.24,0,0,1,1.76.14h0A1.25,1.25,0,0,1,80,81.59h0a1.27,1.27,0,0,1-.81.3h0A1.22,1.22,0,0,1,78.25,81.45ZM59.64,79.38a1.24,1.24,0,0,1,.24-1.75h0a1.24,1.24,0,0,1,1.75.24h0a1.25,1.25,0,0,1-.24,1.75h0a1.25,1.25,0,0,1-.75.25h0A1.26,1.26,0,0,1,59.64,79.38Zm20.84.08a1.25,1.25,0,0,1-.27-1.74h0A1.25,1.25,0,0,1,82,77.45h0a1.24,1.24,0,0,1,.27,1.74h0a1.23,1.23,0,0,1-1,.52h0A1.22,1.22,0,0,1,80.48,79.46ZM58,76.56a1.25,1.25,0,0,1,.64-1.65h0a1.25,1.25,0,0,1,1.65.64h0a1.25,1.25,0,0,1-.64,1.65h0a1.25,1.25,0,0,1-.5.11h0A1.26,1.26,0,0,1,58,76.56ZM82.21,77a1.25,1.25,0,0,1-.67-1.64h0a1.25,1.25,0,0,1,1.64-.67h0a1.25,1.25,0,0,1,.66,1.64h0a1.24,1.24,0,0,1-1.15.76h0A1.32,1.32,0,0,1,82.21,77ZM57,73.44A1.25,1.25,0,0,1,58,72h0a1.25,1.25,0,0,1,1.46,1h0a1.26,1.26,0,0,1-1,1.46h0l-.23,0h0A1.25,1.25,0,0,1,57,73.44Zm26.3.8a1.26,1.26,0,0,1-1-1.44h0a1.25,1.25,0,0,1,1.44-1h0a1.25,1.25,0,0,1,1,1.44h0a1.24,1.24,0,0,1-1.23,1h-.21ZM58,71.49a1.25,1.25,0,0,1-1.19-1.31h0A1.25,1.25,0,0,1,58.11,69h0a1.24,1.24,0,0,1,1.18,1.31h0a1.24,1.24,0,0,1-1.24,1.19H58Zm24.44-1.38h0a1.24,1.24,0,0,1,1.16-1.33h0A1.25,1.25,0,0,1,84.92,70h0a1.25,1.25,0,0,1-1.16,1.33h-.09A1.25,1.25,0,0,1,82.43,70.11ZM58.19,68.5A1.24,1.24,0,0,1,57.34,67h0a1.24,1.24,0,0,1,1.54-.85h0a1.25,1.25,0,0,1,.86,1.55h0a1.26,1.26,0,0,1-1.2.9h0A1.34,1.34,0,0,1,58.19,68.5Zm23.75-1a1.26,1.26,0,0,1,.83-1.57h0a1.25,1.25,0,0,1,1.56.83h0a1.25,1.25,0,0,1-.83,1.56h0a1.13,1.13,0,0,1-.36.06h0A1.26,1.26,0,0,1,81.94,67.47ZM59.08,65.64a1.25,1.25,0,0,1-.47-1.7h0a1.25,1.25,0,0,1,1.7-.47h0a1.25,1.25,0,0,1,.47,1.7h0a1.23,1.23,0,0,1-1.09.63h0A1.21,1.21,0,0,1,59.08,65.64ZM80.86,65a1.25,1.25,0,0,1,.45-1.71h0a1.25,1.25,0,0,1,1.71.45h0a1.25,1.25,0,0,1-.45,1.71h0a1.32,1.32,0,0,1-.63.17h0A1.24,1.24,0,0,1,80.86,65ZM60.6,63.06a1.24,1.24,0,0,1-.07-1.76h0a1.25,1.25,0,0,1,1.77-.07h0A1.25,1.25,0,0,1,62.37,63h0a1.25,1.25,0,0,1-.92.41h0A1.23,1.23,0,0,1,60.6,63.06Zm18.64-.2h0a1.25,1.25,0,0,1,0-1.77h0a1.25,1.25,0,0,1,1.77,0h0a1.26,1.26,0,0,1,0,1.77h0a1.24,1.24,0,0,1-.87.34h0A1.24,1.24,0,0,1,79.24,62.86Zm-16.57-2A1.26,1.26,0,0,1,63,59.17h0a1.25,1.25,0,0,1,1.73.34h0a1.26,1.26,0,0,1-.34,1.74h0a1.3,1.3,0,0,1-.7.21h0A1.26,1.26,0,0,1,62.67,60.91Zm14.5.24h0a1.26,1.26,0,0,1-.38-1.73h0A1.25,1.25,0,0,1,78.49,59h0l0,0h0a1.25,1.25,0,0,1,.37,1.73h0a1.25,1.25,0,0,1-1.05.57h0A1.28,1.28,0,0,1,77.17,61.15Zm-12-1.86a1.26,1.26,0,0,1,.73-1.61h0a1.25,1.25,0,0,1,1.61.73h0A1.24,1.24,0,0,1,66.8,60h0a1.11,1.11,0,0,1-.44.08h0A1.26,1.26,0,0,1,65.19,59.29Zm9.53.65A1.24,1.24,0,0,1,74,58.35h0a1.25,1.25,0,0,1,1.6-.77h0a1.26,1.26,0,0,1,.76,1.6h0a1.26,1.26,0,0,1-1.18.83h0A1.23,1.23,0,0,1,74.72,59.94ZM68,58.29A1.25,1.25,0,0,1,69.1,56.9h0A1.23,1.23,0,0,1,70.49,58h0a1.25,1.25,0,0,1-1.08,1.4h-.16A1.25,1.25,0,0,1,68,58.29Zm4.09,1.06h0A1.26,1.26,0,0,1,71,58h0a1.25,1.25,0,0,1,1.37-1.11h0a1.26,1.26,0,0,1,1.12,1.38h0a1.26,1.26,0,0,1-1.25,1.12H72.1Z"/><path class="cls-5" d="M94.27,81.19c-3.64-2.34-7.56-2.75-8.75-.9s.8,5.25,4.45,7.6C103.53,96.62,106.75,94,106.75,94S107.84,89.92,94.27,81.19Z"/><path class="cls-7" d="M94.27,81.19c-3.64-2.34-7.56-2.75-8.75-.9L106.75,94S107.84,89.92,94.27,81.19Z"/><path class="cls-4" d="M105,95.35c-2.47,0-7.13-1.19-15.57-6.62-4.24-2.73-6.28-6.59-4.75-9s5.9-2.13,10.15.6c13.49,8.68,13.11,13.07,12.89,13.86a1,1,0,0,1-.32.51A3.7,3.7,0,0,1,105,95.35ZM88.25,80.13a2.16,2.16,0,0,0-1.89.7c-.76,1.19.85,4.1,4.15,6.22,9.86,6.35,13.95,6.45,15.2,6.22-.31-1.17-2.06-4.86-12-11.24h0A10.83,10.83,0,0,0,88.25,80.13Z"/><path class="cls-5" d="M51.77,53.84c3.64,2.35,5.64,5.75,4.45,7.6s-5.11,1.45-8.76-.9C33.89,51.81,35,47.78,35,47.78S38.2,45.12,51.77,53.84Z"/><path class="cls-7" d="M56.22,61.44c-1.19,1.85-5.11,1.45-8.76-.9C33.89,51.81,35,47.78,35,47.78Z"/><path class="cls-4" d="M53.45,63.61a12.62,12.62,0,0,1-6.53-2.23C33.42,52.7,33.81,48.31,34,47.52a1,1,0,0,1,.33-.51c.63-.52,4.46-2.69,18,6,4.24,2.73,6.28,6.59,4.75,9A4.05,4.05,0,0,1,53.45,63.61ZM36,48.46c.31,1.18,2.06,4.86,12,11.24,3.3,2.12,6.61,2.38,7.38,1.2s-.86-4.09-4.15-6.22h0C41.36,48.34,37.27,48.24,36,48.46Z"/><path class="cls-5" d="M96.39,72.56c-4.23-1-8,0-8.53,2.15s2.55,4.66,6.78,5.62c15.73,3.56,17.84,0,17.84,0S112.12,76.13,96.39,72.56Z"/><path class="cls-7" d="M96.39,72.56c-4.23-1-8,0-8.53,2.15l24.62,5.58S112.12,76.13,96.39,72.56Z"/><path class="cls-4" d="M106.21,82.91a55,55,0,0,1-11.79-1.6c-4.93-1.12-8.17-4-7.54-6.82s4.81-4,9.74-2.9h0c15.65,3.54,16.79,7.8,16.86,8.61a1,1,0,0,1-.14.59C113.07,81.26,111.71,82.91,106.21,82.91Zm-13-9.71c-2.4,0-4.15.74-4.38,1.73-.31,1.38,2.2,3.56,6,4.43,11.44,2.58,15.31,1.28,16.42.64-.7-1-3.61-3.86-15.11-6.46h0A13.26,13.26,0,0,0,93.21,73.2Z"/><path class="cls-5" d="M47.1,61.4c4.23,1,7.26,3.47,6.78,5.62s-4.31,3.11-8.54,2.15c-15.73-3.56-16.09-7.73-16.09-7.73S31.37,57.84,47.1,61.4Z"/><path class="cls-7" d="M53.88,67c-.49,2.14-4.31,3.11-8.54,2.15-15.73-3.56-16.09-7.73-16.09-7.73Z"/><path class="cls-4" d="M48.58,70.55a15.43,15.43,0,0,1-3.46-.41c-15.65-3.54-16.79-7.79-16.86-8.61a.94.94,0,0,1,.13-.59c.41-.71,3.28-4.06,18.93-.51h0c4.92,1.11,8.16,4,7.53,6.81C54.38,69.33,51.89,70.55,48.58,70.55ZM30.46,61.73c.69,1,3.6,3.86,15.1,6.46,3.82.87,7,0,7.34-1.39s-2.2-3.56-6-4.42C35.43,59.79,31.56,61.09,30.46,61.73Z"/><path class="cls-5" d="M95.44,63.73c-4.31.55-7.57,2.76-7.29,4.94s4,3.51,8.29,3c16-2,16.75-6.14,16.75-6.14S111.44,61.7,95.44,63.73Z"/><path class="cls-7" d="M95.44,63.73c-4.31.55-7.57,2.76-7.29,4.94l25-3.18S111.44,61.7,95.44,63.73Z"/><path class="cls-4" d="M94.52,72.75a12,12,0,0,1-4.07-.64c-1.94-.69-3.11-1.87-3.29-3.31s.65-2.89,2.35-4a13.58,13.58,0,0,1,5.8-2h0c15.92-2,18.45,1.58,18.79,2.33a1,1,0,0,1,.08.6c-.15.8-1.7,4.93-17.61,7A16,16,0,0,1,94.52,72.75Zm1-8a11.63,11.63,0,0,0-4.92,1.69c-1,.71-1.58,1.48-1.5,2.13s.8,1.27,2,1.69a11.58,11.58,0,0,0,5.19.41c11.64-1.48,14.84-4,15.65-5-1-.7-4.7-2.39-16.4-.91Z"/><path class="cls-5" d="M45.29,70.1c4.31-.54,8,.78,8.3,3s-3,4.4-7.29,4.94c-16,2-17.76-1.76-17.76-1.76S29.29,72.14,45.29,70.1Z"/><path class="cls-7" d="M53.59,73.06c.27,2.18-3,4.4-7.29,4.94-16,2-17.76-1.76-17.76-1.76Z"/><path class="cls-4" d="M37.92,79.6c-8.4,0-10-2.35-10.29-2.93a1,1,0,0,1-.07-.61c.14-.8,1.69-4.93,17.61-7h0a13.61,13.61,0,0,1,6.11.51c1.94.69,3.11,1.87,3.3,3.32s-.66,2.88-2.36,4a13.53,13.53,0,0,1-5.8,2A66.87,66.87,0,0,1,37.92,79.6Zm-8.17-3.51c1,.69,4.66,2.42,16.42.92a11.73,11.73,0,0,0,4.93-1.69c1-.7,1.58-1.48,1.49-2.13s-.8-1.27-2-1.69a11.57,11.57,0,0,0-5.19-.41h0C33.69,72.58,30.52,75.17,29.75,76.09Zm15.54-6h0Z"/><path class="cls-5" d="M91.51,55.76c-3.85,2-6.16,5.18-5.16,7.13s5,1.93,8.81,0c14.34-7.39,13.64-11.51,13.64-11.51S105.85,48.37,91.51,55.76Z"/><path class="cls-7" d="M91.51,55.76c-3.85,2-6.16,5.18-5.16,7.13L108.8,51.33S105.85,48.37,91.51,55.76Z"/><path class="cls-4" d="M89.64,65.34c-2,0-3.51-.7-4.18-2s-.37-2.93.84-4.6a13.49,13.49,0,0,1,4.76-3.88c14.26-7.35,17.87-4.82,18.45-4.24a1,1,0,0,1,.28.54c.13.81.09,5.21-14.17,12.56a13.6,13.6,0,0,1-5.93,1.61Zm16.69-13.6c-2.09,0-6.36.79-14.36,4.91h0a11.52,11.52,0,0,0-4,3.27c-.73,1-1,1.93-.68,2.51s1.18.9,2.44.91a11.56,11.56,0,0,0,5-1.39c10.43-5.37,12.56-8.86,13-10.06A5.56,5.56,0,0,0,106.33,51.74Zm-14.82,4h0Z"/><path class="cls-5" d="M46.57,78.9c3.86-2,7.8-2,8.81-.06S54.07,84,50.22,86C35.88,93.36,32.93,90.4,32.93,90.4S32.23,86.28,46.57,78.9Z"/><path class="cls-7" d="M55.38,78.84c1,2-1.31,5.15-5.16,7.14C35.88,93.36,32.93,90.4,32.93,90.4Z"/><path class="cls-4" d="M35.41,92c-2.09,0-2.93-.63-3.19-.89a1,1,0,0,1-.27-.54c-.14-.8-.1-5.21,14.17-12.55h0c4.48-2.31,8.85-2.15,10.15.37s-1.11,6.17-5.59,8.48C42.7,91,38.05,92,35.41,92ZM34,89.84c1.17.32,5.24.64,15.72-4.75,3.49-1.8,5.37-4.54,4.73-5.79s-4-1.31-7.46.48h0C36.6,85.16,34.47,88.64,34,89.84ZM46.57,78.9h0Z"/><path class="cls-5" d="M85.1,49.61c-2.94,3.18-4,7-2.41,8.47S88,58.2,91,55c11-11.84,8.88-15.47,8.88-15.47S96.05,37.76,85.1,49.61Z"/><path class="cls-7" d="M85.1,49.61c-2.94,3.18-4,7-2.41,8.47L99.83,39.54S96.05,37.76,85.1,49.61Z"/><path class="cls-4" d="M84.45,59.69A3.54,3.54,0,0,1,82,58.81c-1.07-1-1.35-2.63-.78-4.61a13.42,13.42,0,0,1,3.14-5.27h0c10.89-11.78,15.15-10.64,15.89-10.3a1,1,0,0,1,.44.41c.41.72,1.88,4.87-9,16.65C89.31,58.26,86.59,59.69,84.45,59.69ZM99,40.44c-1.21.1-5.14,1.19-13.14,9.85h0a11.48,11.48,0,0,0-2.69,4.46c-.34,1.2-.26,2.14.22,2.59,1,1,4.18-.13,6.84-3C98.18,45.72,99,41.71,99,40.44ZM85.1,49.61h0Z"/><path class="cls-5" d="M50.78,86.72c2.95-3.19,6.65-4.56,8.26-3.06s.54,5.28-2.41,8.47C45.68,104,41.9,102.19,41.9,102.19S39.84,98.56,50.78,86.72Z"/><path class="cls-7" d="M59,83.66c1.61,1.49.54,5.28-2.41,8.47C45.68,104,41.9,102.19,41.9,102.19Z"/><path class="cls-4" d="M42.56,103.3a2.57,2.57,0,0,1-1.09-.2,1,1,0,0,1-.44-.41c-.41-.71-1.87-4.87,9-16.65h0a13.61,13.61,0,0,1,5-3.54c1.93-.72,3.59-.57,4.66.42s1.35,2.63.79,4.61a13.66,13.66,0,0,1-3.14,5.27C49,101.91,44.49,103.3,42.56,103.3Zm9-15.9c-8,8.68-8.79,12.69-8.79,13.9,1.19-.1,5.12-1.15,13.17-9.85A11.55,11.55,0,0,0,58.58,87c.34-1.2.26-2.14-.22-2.59s-1.43-.45-2.6,0a11.56,11.56,0,0,0-4.24,3Z"/><path class="cls-5" d="M77,46c-1.68,4-1.39,7.93.63,8.78s5-1.7,6.71-5.7c6.24-14.87,3.06-17.58,3.06-17.58S83.21,31.15,77,46Z"/><path class="cls-7" d="M77,46c-1.68,4-1.39,7.93.63,8.78l9.77-23.28S83.21,31.15,77,46Z"/><path class="cls-4" d="M78.44,56a3,3,0,0,1-1.22-.25c-2.62-1.09-3.12-5.43-1.17-10.09h0c6.21-14.8,10.6-15.18,11.41-15.11a1,1,0,0,1,.56.24c.62.53,3.42,3.93-2.78,18.73a13.6,13.6,0,0,1-3.5,5A5.24,5.24,0,0,1,78.44,56Zm-.55-9.56c-1.51,3.61-1.2,6.93.1,7.47.61.25,1.5-.06,2.45-.87a11.52,11.52,0,0,0,3-4.3c4.54-10.82,3.93-14.86,3.49-16.05-1.1.51-4.43,2.87-9,13.75Z"/><path class="cls-5" d="M57.42,92.63c1.68-4,4.68-6.55,6.71-5.7s2.31,4.78.63,8.78c-6.24,14.87-10.4,14.5-10.4,14.5S51.18,107.5,57.42,92.63Z"/><path class="cls-7" d="M64.13,86.93c2,.85,2.31,4.78.63,8.78-6.24,14.87-10.4,14.5-10.4,14.5Z"/><path class="cls-4" d="M54.41,111.21h-.14a1,1,0,0,1-.56-.24c-.62-.53-3.42-3.93,2.79-18.73,2-4.65,5.4-7.33,8-6.23,1.35.56,2.17,2,2.32,4.06a13.62,13.62,0,0,1-1.15,6C59.77,110.2,55.5,111.21,54.41,111.21Zm8.88-23.44c-1.38,0-3.59,2-4.95,5.25h0c-4.54,10.82-3.93,14.86-3.49,16.06,1.11-.52,4.43-2.88,9-13.75a11.61,11.61,0,0,0,1-5.12c-.09-1.24-.49-2.1-1.1-2.36A1.12,1.12,0,0,0,63.29,87.77Zm-5.87,4.86h0Z"/><path class="cls-5" d="M68.11,45.43c-.21,4.33,1.4,7.93,3.59,8s4.15-3.32,4.36-7.66c.78-16.11-3.14-17.56-3.14-17.56S68.88,29.32,68.11,45.43Z"/><path class="cls-7" d="M68.11,45.43c-.21,4.33,1.4,7.93,3.59,8l1.22-25.22S68.88,29.32,68.11,45.43Z"/><path class="cls-4" d="M71.81,54.47h-.15c-1.46-.08-2.73-1.15-3.57-3a13.6,13.6,0,0,1-1-6.06h0c.77-16,4.76-17.89,5.55-18.1a1.06,1.06,0,0,1,.61,0c.77.29,4.56,2.52,3.79,18.55A13.59,13.59,0,0,1,75.5,51.8C74.51,53.53,73.21,54.47,71.81,54.47Zm1-25c-.87.86-3.18,4.22-3.75,16h0a11.52,11.52,0,0,0,.82,5.14c.51,1.14,1.18,1.82,1.83,1.85s1.39-.58,2-1.66a11.58,11.58,0,0,0,1.3-5C75.62,34.05,73.67,30.46,72.85,29.48Zm-4.74,16h0Z"/><path class="cls-5" d="M65.67,95.92c.21-4.33,2.16-7.76,4.36-7.65s3.81,3.7,3.6,8c-.78,16.11-4.82,17.18-4.82,17.18S64.9,112,65.67,95.92Z"/><path class="cls-7" d="M70,88.27c2.19.1,3.81,3.7,3.6,8-.78,16.11-4.82,17.18-4.82,17.18Z"/><path class="cls-4" d="M68.81,114.48a1.07,1.07,0,0,1-.35-.06c-.76-.28-4.56-2.52-3.79-18.55h0a13.59,13.59,0,0,1,1.57-5.94c1-1.79,2.38-2.73,3.84-2.66s2.72,1.14,3.56,3a13.73,13.73,0,0,1,1,6.06c-.78,16-4.77,17.89-5.56,18.1A1.09,1.09,0,0,1,68.81,114.48Zm1.12-25.22c-.64,0-1.35.6-2,1.66a11.77,11.77,0,0,0-1.3,5h0c-.56,11.72,1.39,15.3,2.21,16.28.87-.86,3.18-4.22,3.75-16a11.67,11.67,0,0,0-.81-5.14C71.31,90,70.64,89.3,70,89.26Zm-4.26,6.66h0Z"/><path class="cls-5" d="M59.57,47.91c1.29,4.14,4,7,6.13,6.32s2.76-4.54,1.48-8.68c-4.78-15.41-9-15.43-9-15.43S54.79,32.51,59.57,47.91Z"/><path class="cls-7" d="M59.57,47.91c1.29,4.14,4,7,6.13,6.32L58.22,30.12S54.79,32.51,59.57,47.91Z"/><path class="cls-4" d="M65.07,55.32a5,5,0,0,1-3.46-1.76,13.45,13.45,0,0,1-3-5.36c-4.76-15.32-1.65-18.44-1-18.9a1.36,1.36,0,0,1,.58-.18c.82,0,5.15.81,9.9,16.13,1.5,4.82.58,9.09-2.13,9.93A2.91,2.91,0,0,1,65.07,55.32Zm-6.49-24c-.52,1.1-1.55,5.05,2,16.31h0a11.45,11.45,0,0,0,2.52,4.56c.87.9,1.73,1.3,2.36,1.1,1.34-.41,2-3.68.81-7.43C62.74,34.64,59.68,31.94,58.58,31.3Z"/><path class="cls-5" d="M74.55,96.18c-1.28-4.14-.62-8,1.48-8.68s4.84,2.18,6.13,6.32c4.78,15.41,1.35,17.8,1.35,17.8S79.34,111.59,74.55,96.18Z"/><path class="cls-7" d="M76,87.5c2.1-.65,4.84,2.18,6.13,6.32,4.78,15.41,1.35,17.8,1.35,17.8Z"/><path class="cls-4" d="M83.51,112.62h0c-.82,0-5.15-.81-9.91-16.14h0c-1.5-4.82-.58-9.09,2.13-9.93,1.4-.43,3,.14,4.39,1.62a13.66,13.66,0,0,1,3,5.36c4.75,15.32,1.64,18.44,1,18.91A1,1,0,0,1,83.51,112.62Zm-8-16.73c3.48,11.2,6.54,13.91,7.65,14.54.52-1.1,1.54-5.05-2-16.31a11.58,11.58,0,0,0-2.53-4.56c-.87-.89-1.72-1.3-2.35-1.1-1.35.42-2,3.68-.82,7.43Z"/><path class="cls-5" d="M52.4,53.16C55,56.61,58.57,58.33,60.32,57s1-5.21-1.58-8.66C49,35.5,45,36.9,45,36.9S42.64,40.32,52.4,53.16Z"/><path class="cls-7" d="M52.4,53.16C55,56.61,58.57,58.33,60.32,57L45,36.9S42.64,40.32,52.4,53.16Z"/><path class="cls-4" d="M58.86,58.46c-2.21,0-5-1.73-7.25-4.7h0C41.89,41,43.75,37,44.23,36.32a1,1,0,0,1,.48-.36c.77-.28,5.12-1,14.83,11.77a13.68,13.68,0,0,1,2.62,5.55c.37,2-.07,3.63-1.23,4.51A3.35,3.35,0,0,1,58.86,58.46ZM53.2,52.55c2.37,3.12,5.4,4.5,6.52,3.65.52-.4.69-1.33.47-2.56a11.55,11.55,0,0,0-2.25-4.7c-7.1-9.34-10.9-10.83-12.16-11-.11,1.22.28,5.28,7.42,14.66Z"/><path class="cls-5" d="M83,93.4c-2.62-3.46-3.33-7.34-1.58-8.67s5.3.39,7.92,3.85c9.76,12.84,7.36,16.25,7.36,16.25S92.75,106.23,83,93.4Z"/><path class="cls-7" d="M81.41,84.73c1.75-1.33,5.3.39,7.92,3.85,9.76,12.84,7.36,16.25,7.36,16.25Z"/><path class="cls-4" d="M96.27,105.89c-1.72,0-6.08-1.37-14.07-11.89a13.36,13.36,0,0,1-2.62-5.55c-.37-2,.06-3.63,1.22-4.51s2.82-.88,4.68,0a13.69,13.69,0,0,1,4.65,4c9.71,12.78,7.85,16.77,7.38,17.44a1,1,0,0,1-.49.37A2.45,2.45,0,0,1,96.27,105.89ZM82.87,85.28a1.37,1.37,0,0,0-.86.25c-.52.4-.69,1.33-.47,2.56a11.55,11.55,0,0,0,2.25,4.7h0c7.1,9.34,10.9,10.83,12.16,11,.11-1.21-.28-5.27-7.41-14.66a11.65,11.65,0,0,0-3.93-3.42A4.13,4.13,0,0,0,82.87,85.28Z"/><path class="cls-4" d="M54.12,124.78c0-.2,0-.39.08-.76C53.82,124.4,53.76,124.59,54.12,124.78Zm.67-18.43-.13-.12-.16,0s0,.15.06.14A.86.86,0,0,0,54.79,106.35Zm-.67,18.43Zm24-67.12c-.06-.06-.12-.16-.18-.17s-.14.09-.24.17c.1.08.17.17.24.17S78,57.72,78.08,57.66ZM52.7,46.2l-.42-.28-.1.14.43.27Zm1.42,78.58c-.06.36-.29.72.08,1.14l1-.32c.2-.68.37-1.23.54-1.79l-.14-.09Zm1.27-87.3s0-.12-.06-.14-.1,0-.15,0l.08.2Zm-3.06,94.38c.14.1.27.2.41.28a1.5,1.5,0,0,0,.19-.24,2.29,2.29,0,0,0-.41-.21C52.47,131.68,52.4,131.8,52.33,131.86Zm2.15-8.45-.08-.13-.34.18.11.19Zm-.07-86.2s-.09-.06-.13-.09l-.08.15.15.08C54.37,37.3,54.42,37.25,54.41,37.21ZM58,95.33s.12.11.18.16a1.28,1.28,0,0,0,.17-.3s-.1-.12-.21-.25A1.71,1.71,0,0,0,58,95.33Zm-.14-68.62.74-.35-.11-.24C58.19,26.12,57.91,26.2,57.88,26.71ZM45.47,133.9c-.7-.45-.79-.46-1.43-.2C44.55,133.83,44.94,134.1,45.47,133.9ZM57.9,32.49l-.2.22.19.17c0-.07.14-.14.15-.21S58,32.55,57.9,32.49Zm0-11.93-.5.18.06.22.52-.23ZM56.48,9.05c.57,1.32,1.1,1.75,2,1.77C57.78,10.22,57.13,9.64,56.48,9.05ZM55,132.55l.17.2.34-.39-.11-.12Zm.79-20.74.14.08s.08-.11.07-.15-.09,0-.14-.08Zm-1,19.71s-.13.06-.13.08a.85.85,0,0,0,.09.22l.4-.18A1.31,1.31,0,0,0,54.79,131.52Zm.21-5.36-.22-.07c0,.15-.05.29-.06.43a.4.4,0,0,0,.15,0C54.92,126.42,55,126.29,55,126.16Zm-1-98a.31.31,0,0,0-.14-.2c-.07,0-.16.05-.33.11a2.76,2.76,0,0,0,.39.23S54.05,28.19,54,28.16ZM53.52,107a1.13,1.13,0,0,0,.2.13s.1-.1.09-.12a.87.87,0,0,0-.17-.16Zm-6-6.1s.11,0,.25.06v-.68C47.38,100.43,47.36,100.64,47.52,100.88Zm1.12-84.49a1.64,1.64,0,0,0,1.6-.64A1.54,1.54,0,0,0,48.64,16.39ZM49.2,11l-.05-.2-.69.12.08.29Zm.95,28.5a.26.26,0,0,0-.18.16c0,.06.06.15.09.23l.32-.19C50.27,39.56,50.2,39.46,50.15,39.47Zm-1,15.77c-.17-.52-.4-.49-.65-.38h0ZM48,55.31l.57-.44h0c-.18-.08-.4-.27-.52-.22S47.71,55,48,55.31Zm2.73-36.83a1.21,1.21,0,0,0,.18-.28c0-.05-.1-.12-.22-.25a1.33,1.33,0,0,0-.13.36C50.52,18.36,50.63,18.42,50.69,18.48Zm-1.5,34.9A1.82,1.82,0,0,0,50.72,53,1.38,1.38,0,0,0,49.19,53.38Zm-2,35.93c-.44.16-.89.18-1.22.6C46.76,90,46.83,89.92,47.18,89.31Zm1.87,29.42s.05.13.07.13a1,1,0,0,0,.22-.08l-.09-.18A1.37,1.37,0,0,0,49.05,118.73Zm-.17,10.2c.06.06.11.16.17.16s.13-.09.23-.17c-.09-.07-.17-.16-.22-.15S48.94,128.87,48.88,128.93ZM47,110.56a.76.76,0,0,0-.21-.14s-.09.06-.14.09a.9.9,0,0,0,.18.16S46.89,110.61,47,110.56ZM48.43,28l-.23-.32-.13.1.24.31ZM47.35,56.63l0-.15-.48-.16,0,.2Zm9.45,50.26c.05,0,.11.08.15.07s0-.09.08-.13l-.15-.08ZM45.08,134.75l.23.23.23-.28c-.1-.09-.19-.19-.21-.18A1.37,1.37,0,0,0,45.08,134.75Zm.45-41.11s0,.12.07.13.1,0,.15,0l-.1-.19Zm1.95,17.21a1.14,1.14,0,0,0,.28.21s.13-.09.25-.19a1.44,1.44,0,0,0-.37-.19S47.53,110.79,47.48,110.85Zm-1.17-3.07,0,.2.48.12.06-.24Zm0,11.8c1.43.11,1.69-.08,1.67-1.24C47.09,118.42,46.9,119.19,46.27,119.58Zm-.51-82.16s-.08,0-.13.08l.09.13.13-.09S45.8,37.43,45.76,37.42Zm.67,54.82-.09.16.58.31.09-.18ZM73.12,83l.15.15.58-.48-.2-.21ZM66.48,2.2c.07.07.14.2.22.22s.18-.1.38-.21c-.21-.09-.3-.17-.4-.17S66.55,2.14,66.48,2.2ZM66,19.13s.07.12.1.12a1.6,1.6,0,0,0,.29-.11c-.19-.1-.25-.15-.28-.14A.2.2,0,0,0,66,19.13Zm-1.62-1.95-.37.28.22.25.32-.36Zm4.21,109a1.65,1.65,0,0,0,.82-1.12l-1.57.93C68.42,126.24,68.42,126.24,68.6,126.14ZM67.19,11.73l.35.42.15-.13-.33-.42ZM63.57,61.41s-.08.06-.11.1l.12.12s.1-.08.09-.12A.13.13,0,0,0,63.57,61.41Zm5.29,16.83-.14-.08s-.07.1-.06.14.08,0,.13.08A.91.91,0,0,1,68.86,78.24Zm-5-5.38S64,73,64,73a1.44,1.44,0,0,0,.24-.09l-.1-.18Zm.2-9.61s-.08-.08-.12-.11-.14.12-.13.17.09.12.18.23A1.28,1.28,0,0,0,64.09,63.25Zm-.34-36.11s-.06-.09-.1-.1-.07.07-.11.1l.11.11Zm0,55.32a.24.24,0,0,0,.17.17s.16-.1.16-.15-.09-.14-.17-.23C63.8,82.34,63.71,82.41,63.71,82.46Zm3.67,47.87a.6.6,0,0,0-.21.08l.14.26a1.19,1.19,0,0,0,.17-.22S67.41,130.33,67.38,130.33ZM74.91,1.39l.19.12.07-.16s-.1-.09-.14-.08S75,1.35,74.91,1.39Zm-1.42,9.89a1,1,0,0,0-.07-.15s-.12,0-.14.08,0,.1.07.15Zm4.5,23s-.06-.08-.09-.12l-.13.1.12.16A.33.33,0,0,0,78,34.33ZM50.52,91.62s0,.08.08.12l.15-.18-.16-.09A.34.34,0,0,0,50.52,91.62ZM78,32.54a.53.53,0,0,0-.12-.1s-.08,0-.08,0l.06.14ZM69.91,58.75c0,.06,0,.15,0,.17a.86.86,0,0,0,.23,0,1.18,1.18,0,0,0,0-.2A1.94,1.94,0,0,0,69.91,58.75Zm1.78,28,0,.15.5-.1,0-.13ZM69.85,14.31s-.09,0-.14.06,0,.13.08.14.09,0,.14-.06S69.89,14.33,69.85,14.31Zm1.22-7.38a.91.91,0,0,0-.13-.19s-.14,0-.13.06A2,2,0,0,0,70.9,7Zm-.24,65a.37.37,0,0,0,.07.14,2.18,2.18,0,0,0,.23-.09L71,71.78A1.48,1.48,0,0,0,70.83,71.91Zm-14-53.08s-.12.05-.12.09,0,.09.08.14l.13-.1Zm2-3.15-.14.12a1.24,1.24,0,0,0,.14.18s.12-.08.11-.1A1,1,0,0,0,58.83,15.68Zm1,47.12-.06.44.13,0c0-.08.1-.15.1-.23a.88.88,0,0,0-.06-.27Zm2.48-18.16a.31.31,0,0,0-.16.19c0,.05.08.18.12.17s.15-.08.45-.25C62.51,44.68,62.42,44.62,62.35,44.64ZM61.19,97.47a1.56,1.56,0,0,0,.16.2,2.7,2.7,0,0,0,.31-.2,2.37,2.37,0,0,0-.32-.09C61.29,97.38,61.24,97.44,61.19,97.47Zm-2,8.25c-.13.16-.22.23-.25.33s.11.18.16.18a.41.41,0,0,0,.27-.16C59.35,106,59.24,105.9,59.15,105.72Zm2.61.79s.15.17.18.15a1.87,1.87,0,0,0,.28-.25c-.13-.08-.24-.18-.26-.17A.76.76,0,0,0,61.76,106.51ZM56.63,41.17a.26.26,0,0,0-.21.14s.06.15.13.29l.27-.29C56.76,41.26,56.69,41.16,56.63,41.17Zm2.51,67.54a1.14,1.14,0,0,0,.31.13s.11-.11.21-.21c-.14-.07-.25-.16-.34-.15S59.2,108.63,59.14,108.71Zm.47-82.82-.16-.07-.14.11a.62.62,0,0,0,.2.1S59.58,25.94,59.61,25.89Zm-.09-14.23s.11.06.16.05,0-.08.06-.13l-.13-.1ZM64.89,78s.1.07.14.06,0-.08.08-.12L65,77.89Zm0-18.77a1.39,1.39,0,0,0-.19.15s.07.13.09.12a.9.9,0,0,0,.22-.11Zm.2-48.4s.08.08.13.11a.86.86,0,0,0,.13-.2s-.08-.07-.16-.13A.84.84,0,0,0,65.06,10.85Zm-.53,16.26-.15-.06a.58.58,0,0,0,0,.14l.07,0Zm-.39-15.27.69.2C64.69,11.65,64.47,11.54,64.14,11.84Zm.27,106.64s0,.1.07.15.12,0,.13-.08,0-.09-.06-.14S64.43,118.45,64.41,118.48Zm-1.19-16.63-.12-.55-.26.06.19.55ZM63.08,42.1,63,42c-.05,0-.12,0-.13.08s0,.09,0,.14Zm2,.46s0-.11-.09-.12-.08.05-.12.07l.09.13Zm-2,60.41h.16v-.5h-.16Zm-.23,25.78s.08.06.13.08l.07-.14-.14-.08S62.87,128.72,62.88,128.75ZM55.51,87.23c-.12-.1-.19-.2-.29-.24s-.19.14-.18.16a.73.73,0,0,0,.2.26S55.38,87.32,55.51,87.23ZM25.7,44a.25.25,0,0,0-.17.16c0,.05.09.12.16.21.08-.09.17-.15.18-.21S25.76,44,25.7,44ZM24.6,67.94a1.39,1.39,0,0,0,.21.11,1.89,1.89,0,0,0,.1-.17.74.74,0,0,0-.22-.08S24.63,67.89,24.6,67.94Zm-7.15-3.85.92-.55C17.5,63.19,17.31,63.34,17.45,64.09Zm7-42.59.05.16.43-.11,0-.16Zm1.73,44.92s-.11.06-.11.1.06.08.1.12l.12-.12S26.23,66.42,26.19,66.42Zm1.06,38.79s.05.09.08.14.12-.06.13-.1-.06-.09-.09-.13S27.25,105.17,27.25,105.21ZM32.54,130s.13.19.16.17a1,1,0,0,0,.26-.22l-.24-.2C32.65,129.83,32.56,129.9,32.54,130ZM23.16,21.44l0,.27.67-.05v-.22Zm-3.7,33.19s.05.09.07.13l.12-.09a.57.57,0,0,0-.13-.08S19.46,54.63,19.46,54.63Zm1.53-6,.07.21.14-.07s0-.13-.05-.15S21.05,48.61,21,48.61Zm1.85,11.3c0,.08,0,.18.08.23s.15,0,.26,0-.06-.22-.11-.26S22.92,59.89,22.84,59.91Zm2.91-35.57s.05.1.08.15l.16-.06-.11-.2S25.77,24.3,25.75,24.34Zm3.79,1.82.13.64C29.92,26.42,29.92,26.42,29.54,26.16Zm.74,36.66,1,.34C30.84,62.64,30.84,62.64,30.28,62.82Zm.92,59.43h-.88C30.76,122.6,30.76,122.6,31.2,122.25Zm1.7-48.73c.17.06.34.1.51.15l.05-.32h-.55S32.88,73.51,32.9,73.52ZM27.44,86.16a.6.6,0,0,0-.13-.09s0,0,0,.06a.46.46,0,0,0,.07.14Zm2.48-13.09c0,.1-.14.23-.11.3s.18.15.28.21c.06-.09.16-.18.16-.28s-.08-.23-.12-.35ZM27,83.7l-.21.27a1.62,1.62,0,0,0,.38.09,1.78,1.78,0,0,0,.39-.07v-.15Zm3-47.21s.09-.05.13-.08,0-.12-.09-.12-.09.05-.13.07S29.89,36.48,29.93,36.49Zm-3,75.95.15,0,.1-.35-.15,0ZM28,123c.05.06.1.16.16.17s.14-.08.27-.16a1.37,1.37,0,0,0-.29-.12S28,123,28,123ZM17,91.46c.56.25.56.25.91.11C17.56,91.34,17.56,91.34,17,91.46ZM7.26,88.62c0,.07.12.12.18.18s.13-.14.12-.21-.1-.13-.19-.24C7.31,88.47,7.24,88.56,7.26,88.62ZM17.55,77.05s-.06-.14-.07-.13a.37.37,0,0,0-.23.1s0,.13.08.25A1.11,1.11,0,0,0,17.55,77.05ZM6.71,42.38s-.11.09-.1.11a.63.63,0,0,0,.12.21c.06-.06.13-.11.12-.12A1.21,1.21,0,0,0,6.71,42.38Zm.82,31.79s.12.08.13.07a.56.56,0,0,0,.16-.18c-.07,0-.14-.1-.15-.09S7.58,74.1,7.53,74.17Zm4.12-38,.24.44.14-.07-.17-.48ZM2.46,57.73c.1-.24.17-.42.25-.59C2.26,57.3,2.26,57.3,2.46,57.73Zm11.61,8.45s0,.1,0,.15l.15,0s0-.1,0-.15S14.09,66.15,14.07,66.18Zm-11-10.49.42.34.13-.17-.43-.32ZM3.24,61a.22.22,0,0,0,.13.1A.2.2,0,0,0,3.48,61a2.2,2.2,0,0,0-.11-.27C3.28,60.89,3.23,61,3.24,61Zm1.9,15.18c.13-.15.21-.21.2-.23a1.83,1.83,0,0,0-.16-.26Zm1.71,24.9a.3.3,0,0,0,.13.23s.15-.05.22-.07l-.13-.38C7,101,6.85,101,6.85,101.06Zm8.27-7a4.52,4.52,0,0,0,.11.53l.32-.07c-.05-.18-.09-.36-.14-.54A2.79,2.79,0,0,0,15.12,94.06Zm.08-63.47-.16,0L15,31l.13,0Zm.16,41,.08-.18-.22-.06s-.07.12-.05.13A.72.72,0,0,0,15.36,71.63Zm1.11,31.09a1,1,0,0,0,.24.17s.11-.1.18-.19c-.09-.06-.17-.14-.23-.14S16.53,102.66,16.47,102.72Zm-2.91-30.6.28.19.37-.58L14,71.58Zm3-25-.51.3.09.16.52-.29Zm-1.83-2.5.14.08c0-.05.08-.1.07-.14s-.09-.06-.14-.08ZM14,63.46a4.69,4.69,0,0,0-.53,0l0,.32.52-.06C14,63.62,14,63.46,14,63.46Zm0-17.24.07.22.19-.06a.84.84,0,0,0-.11-.21S14.08,46.2,14,46.22Zm.61-4.65a.38.38,0,0,0-.1.12s0,.07,0,.07l.15-.06ZM35.5,105.06l.1-.65C35.27,104.73,35.27,104.73,35.5,105.06Zm6.9,4.9a2.43,2.43,0,0,0,.14.2l.22-.2a.77.77,0,0,0-.25-.1S42.4,109.94,42.4,110Zm-.93-77.48a1,1,0,0,0-.19-.21s-.14,0-.14.08a.63.63,0,0,0,.07.22Zm.61,56.93-.15-.1a1.32,1.32,0,0,0-.12.2s.1.08.11.07A.87.87,0,0,0,42.08,89.41ZM38.51,58.23a.8.8,0,0,0-.19.13l.22.2a2.59,2.59,0,0,0,.1-.24S38.54,58.22,38.51,58.23ZM41.2,45c-.11.14-.28.27-.3.41,0,.33.31.7.55.62s.24-.23.46-.46ZM42,98.54l.59-.13,0-.17-.58.05Zm-4.17,25c-.06,0-.16.11-.16.17s.09.13.16.23c.08-.1.17-.17.16-.22S37.93,123.58,37.87,123.52ZM38,89.41a.41.41,0,0,0,.15.29c.05,0,.18-.09.35-.17-.15-.14-.22-.24-.31-.27S38,89.36,38,89.41Zm1.53,14.66a1,1,0,0,0,.14.31l.37-.21c-.15-.13-.22-.23-.32-.25S39.57,104,39.57,104.07Zm.23-76.48c.06,0,.13-.09.22-.16-.09-.08-.16-.17-.22-.17a.25.25,0,0,0-.16.17C39.63,27.48,39.74,27.59,39.8,27.59Zm2,85.79.44.38.18-.25-.48-.32Zm-1-15.64c.08,0,.16.1.23.08a.25.25,0,0,0,.15-.18c0-.07,0-.16-.13-.35Zm6.07-57.65L46.76,40s-.07.11-.06.15.09.06.13.09Zm.27-1.85L47,37.8l-.15,0,.1.47Zm-.68-6.88L45.36,32c.22.44.4.77.58,1.11l.25,0C46.29,32.53,46.38,32,46.5,31.36ZM46,54.46c.8-.16,1.73.09,2.39-.7C47.37,53.3,47,53.4,46,54.46ZM45.77,5.27c.07,0,.13-.1.23-.18-.09-.07-.16-.16-.22-.15a.26.26,0,0,0-.17.17S45.71,5.27,45.77,5.27ZM43.4,62.2V60.55C43,61.47,43,61.56,43.4,62.2ZM40.93,26.84s0-.08,0-.08l-.15,0,.06.15Zm-.19,20s-.11.08-.11.12.06.11.1.11.09-.07.13-.1Zm-.26,57.83a.8.8,0,0,0-.07.28s.11.1.13.09.14-.11.14-.18S40.58,104.77,40.48,104.68ZM38.71,51.33c-.05.11-.11.19-.1.26s.1.13.16.19a.69.69,0,0,0,.14-.25C38.92,51.48,38.8,51.42,38.71,51.33ZM34.29,62.14a.26.26,0,0,0-.18.16c0,.05.06.14.13.28a1.62,1.62,0,0,0,.23-.31S34.35,62.13,34.29,62.14Zm.45,36.94a.66.66,0,0,0-.19-.15s-.08.06-.12.1.11.12.17.17S34.68,99.14,34.74,99.08Zm.73-64.58a2.32,2.32,0,0,0-1.9-.33A1.94,1.94,0,0,0,35.47,34.5Zm-.76,87.92c0,.07.06.15.1.22s.16-.08.18-.14,0-.15-.08-.28C34.82,122.31,34.72,122.36,34.71,122.42Zm-.25,8.78a.54.54,0,0,0,.07.13,1,1,0,0,0,.22-.08l-.09-.17A.82.82,0,0,0,34.46,131.2Zm.91-55.82s-.09,0-.14.06l.07.14.15-.07S35.41,75.39,35.37,75.38Zm-2.63-45-.47-.23-.09.19.47.23Zm-.63,69.91s-.13.06-.13.08a1,1,0,0,0,.09.21l.25-.11A1,1,0,0,0,32.11,100.27Zm2.7,2.47a.34.34,0,0,0,0,.14,1.41,1.41,0,0,0,.22-.06l-.07-.19A.78.78,0,0,0,34.81,102.74ZM50.16,67.22a1.94,1.94,0,0,0,1.74-.07A2.24,2.24,0,0,0,50.16,67.22ZM38.88,30.46s.09.11.12.1a.52.52,0,0,0,.19-.11L39,30.31Zm-.45,47.81a1.06,1.06,0,0,0-.65-1.34l.45,1.38Zm-.38-64.51s0-.09-.08-.13-.12,0-.13.09,0,.09.08.13S38,13.8,38.05,13.76ZM32.79,54.29a1.05,1.05,0,0,0,.24-.06L33,54a.84.84,0,0,0-.21.11S32.78,54.3,32.79,54.29ZM37.1,37.84,37,37.79l-.19.36.21.08Zm-3.41-1a1.22,1.22,0,0,0,.17.15s.07-.07.13-.14a.76.76,0,0,0-.19-.12S33.72,36.82,33.69,36.86Zm5,8.92c-.06,0-.15,0-.22.08s.08.17.14.2.16,0,.29-.06C38.83,45.89,38.78,45.79,38.71,45.78ZM37.25,17.64l-.18-.49a1.71,1.71,0,0,0-.12.4c0,.06,0,.16.07.16A2,2,0,0,0,37.25,17.64Zm0,61,.23-.09-.07-.2a.92.92,0,0,0-.21.13S37.22,78.59,37.24,78.65ZM35.87,34.44l.2.15c0-.05.09-.13.08-.15a1,1,0,0,0-.17-.18Zm1.18,51.32.66-.57C36.92,85.05,36.92,85.05,37.05,85.76Zm78.5-51.48-.27.26.12.12a3.19,3.19,0,0,0,.26-.26S115.59,34.32,115.55,34.28Zm6.65,79s-.08-.05-.13-.08l-.07.15.14.08S122.21,113.34,122.2,113.29Zm.87-90.15c0-.05,0-.13,0-.15s-.09,0-.14,0,0,.12,0,.14S123,23.15,123.07,23.14Zm-.47,95.19-.8-1C121.48,117.89,121.56,118,122.6,118.33Zm-1.06-52a2.18,2.18,0,0,0,.36-.17c-.12-.11-.21-.22-.25-.2a1.26,1.26,0,0,0-.27.2C121.43,66.26,121.5,66.38,121.54,66.37Zm-.52-4.5a.78.78,0,0,0,0,1.19A.78.78,0,0,0,121,61.87Zm2.12-4.77.24-.15a1,1,0,0,0-.23-.15s-.12.07-.11.09A.58.58,0,0,0,123.14,57.1Zm1.11-8.65.16-.12a.79.79,0,0,0-.18-.14s-.09.05-.13.08ZM124.8,115l.29.38.12-.09-.3-.38Zm-1.3-77c-.07,0-.12-.11-.19-.15a.43.43,0,0,0-.12.11.9.9,0,0,0,.16.18Zm-2.39,29.41c-.1.06-.13.24-.22.43h.7C121.57,67.47,121.52,67.2,121.11,67.41Zm2.41,38.78c-.16.11-.25.14-.25.16a2.29,2.29,0,0,0,.07.28ZM123.93,31l.8-.1C124.27,30.53,124.09,30.57,123.93,31Zm-4.12,35.44c0,.07,0,.18.09.2s.14-.05.25-.1a1,1,0,0,0-.21-.18S119.81,66.43,119.81,66.45Zm1.41,11.9c-.08-.45-.31-.6-.76-.6C120.49,78.28,120.67,78.5,121.22,78.35Zm-1.47,42.83s.11.15.17.16.13-.08.2-.12l-.18-.22ZM126.5,29l-.19-.11c0,.05-.08.12-.07.15a.58.58,0,0,0,.17.14Zm-12.39,92.06a.46.46,0,0,0,.14.07c.07-.11.13-.23.2-.35l-.21-.1A2.84,2.84,0,0,0,114.11,121.05Zm6.79-88.13a.89.89,0,0,0-.51-.06,1.52,1.52,0,0,0-.4.24c.13.14.23.35.39.39a.59.59,0,0,0,.48-.17C120.94,33.25,121,32.94,120.9,32.92Zm.57-10.82a.67.67,0,0,0-.76-.59C120.76,22,121,22.08,121.47,22.1Zm-.6,67.35.75.06v-.22A.49.49,0,0,0,120.87,89.45Zm-1.2-56.81s-.07,0-.07,0a.79.79,0,0,0,.13.31c0,.06.17.07.26.1s0-.21,0-.27A.74.74,0,0,0,119.67,32.64Zm.32.46Zm2.81,33.09c-.12-.06-.34.11-.7.24l.88.46.22-.22C123.07,66.5,123,66.27,122.8,66.19ZM115,103a.58.58,0,0,0,.05.14l.13-.08a1.27,1.27,0,0,0-.12-.1Zm.94-73.53a1.12,1.12,0,0,0-.1-.22s-.15,0-.15.06a1.14,1.14,0,0,0,0,.24Zm-1-11.77c0,.07.1.14.15.2s.16-.12.17-.18-.09-.14-.16-.26C115,17.53,114.94,17.6,115,17.66Zm9.64,84s0,.09-.07.14a.85.85,0,0,0,.23,0s0-.09.08-.18A.92.92,0,0,0,124.59,101.62ZM116.05,22.4s-.07-.13-.09-.12a.81.81,0,0,0-.21.1l.14.25C116,22.52,116,22.47,116.05,22.4Zm-2.13,90.35c-.07,0-.12.11-.18.17a1,1,0,0,0,.26.16s.09-.12.16-.21C114.06,112.81,114,112.73,113.92,112.75Zm1.67-27.23.94.17C116.23,85.24,116,85.28,115.59,85.52ZM114.4,108.8l-.16-.07s-.09.11-.08.15.08.08.12.12Zm-.35-31.93a1.59,1.59,0,0,0-.26-.26s-.18.12-.17.16a1.15,1.15,0,0,0,.18.29Zm-.48-53.12a1.32,1.32,0,0,0,0,1.24l.27-1.12Zm2.5,35.43c.06-.1.16-.18.19-.29s-.1-.12-.2-.25a1.28,1.28,0,0,0-.17.37C115.88,59.06,116,59.12,116.07,59.18Zm3-34.52c0,.06.13.1.2.15s.1-.16.1-.24,0-.18-.13-.43C119.11,24.5,119,24.59,119.06,24.66Zm6.68,36.76c-.22.57.1.93.41,1.36C126.42,61.94,126.41,61.91,125.74,61.42Zm-1.87,51.52.24.85-.77.36c.5.32.87.34,1.16-.05S124.39,113.23,123.87,112.94Zm-7.24-16.2s-.09.05-.13.08.06.11.09.12.09,0,.13-.08S116.67,96.75,116.63,96.74Zm2.06-65.3a4.59,4.59,0,0,0,.33.44.88.88,0,0,0,.21-.12c-.08-.17-.17-.33-.27-.5Zm3.81,17.84s-.11-.08-.15-.07-.09.07-.14.1a.62.62,0,0,0,.2.1S122.47,49.32,122.5,49.28Zm-4.68,62.37a1.21,1.21,0,0,0,.28.18s.12-.1.25-.21c-.16-.07-.26-.15-.36-.15S117.88,111.59,117.82,111.65ZM117,37v1.25C117.59,37.43,117.58,37.38,117,37Zm.9,66.65-.37.18.15.16.29-.27Zm-.1-81c.12,0,.23-.13.35-.21l-.28-.37-.37.33C117.58,22.5,117.68,22.66,117.78,22.66Zm8.28,40.66.58.44C126.54,63.27,126.54,63.27,126.06,63.32Zm6.2-21-.25-.23-.48.64.19.16Zm1.25-2.85-.1-.17a.76.76,0,0,0-.19.12s.05.13.07.13A1.19,1.19,0,0,0,133.51,39.43Zm1.87,50.13c.05,0,.1.07.14.06s.06-.08.08-.12l-.14-.07Zm-2.18-19.1.85-.62C133.45,69.71,133.27,69.86,133.2,70.46Zm.8-6.93s.13.07.14.06a.78.78,0,0,0,.11-.2l-.18-.08A.94.94,0,0,0,134,63.53Zm.94,31.36c.05.07.1.17.17.2s.14-.07.34-.17c-.16-.09-.24-.16-.32-.16S135,94.84,134.94,94.89Zm-2.73,7.9-1,.24C132.05,103.5,132.05,103.5,132.21,102.79ZM132,49.41a.74.74,0,0,0,.16.19l.12-.16-.18-.16S132,49.39,132,49.41Zm2,11.92.38.31.11-.13-.39-.31Zm-1.45-11.88.16,0,.1-.46-.16,0C132.65,49.14,132.62,49.29,132.59,49.45Zm.82,10.49.58.2.06-.18a1.08,1.08,0,0,0-.3-.19,1,1,0,0,0-.34,0ZM139,53s0,.16,0,.32l.55-.16c0-.09-.05-.18-.07-.26A3.56,3.56,0,0,0,139,53Zm2,9.51-.36.39.12.13.41-.32Zm-1.39-5.82a1.26,1.26,0,0,0,.79,0c0-.2-.09-.39-.14-.59A2.49,2.49,0,0,0,139.52,56.65ZM.05,72.92c0,.1,0,.2,0,.3L.21,73l-.14-.09ZM137.14,45.76l-.36-.15-.06.13.54.31Zm3.92,25.55s-.09.09-.08.13.07.06.12.09.09-.09.08-.13S141.1,71.34,141.06,71.31ZM137,69.56a1.13,1.13,0,0,0,.25.24s.12-.1.24-.2a1.6,1.6,0,0,0-.33-.2S136.94,69.55,137,69.56Zm1.72,19.79s.06.08.1.12l.11-.12-.12-.11S138.67,89.31,138.67,89.35Zm.1-2.19s.08.06.13.08l.07-.14-.14-.08S138.76,87.12,138.77,87.16Zm2.66-22.65-.23-.08L141,65l.34.11.12-.42S141.44,64.56,141.43,64.51ZM130.69,75.94s0,.09.07.13.12,0,.13-.09,0-.09-.08-.14S130.7,75.9,130.69,75.94Zm-1.88-35.86-.22.49.16.07.22-.49Zm.25-.67-.25-.43-.12.07.23.44ZM128.15,70s.12.17.18.26a2,2,0,0,0,.36-.34c0-.05-.08-.19-.18-.38A2.8,2.8,0,0,0,128.15,70Zm.94,5.8a2,2,0,0,0-.27.32s.08.13.18.26a2.11,2.11,0,0,0,.25-.4S129.15,75.85,129.09,75.78Zm-.54-40.09-.6-.87-.18.13C127.8,35.36,127.94,35.69,128.55,35.69Zm-3,23.08a1.19,1.19,0,0,0-.18.15c.05,0,.1.11.13.1a.68.68,0,0,0,.22-.14C125.65,58.83,125.59,58.76,125.56,58.77Zm4,40.47a2.53,2.53,0,0,0,.12.23c.05,0,.14-.07.13-.1a.78.78,0,0,0-.09-.24C129.63,99.18,129.53,99.23,129.54,99.24Zm-.18-61.3c-.17-.52-.3-.93-.47-1.48C128.46,37.44,128.48,37.5,129.36,37.94Zm-.94,71.26-1.47.52C127.76,110,127.82,110,128.42,109.2Zm-1-51.28a.6.6,0,0,0,.21-.08l-.13-.26a1.73,1.73,0,0,0-.17.21S127.34,57.92,127.37,57.92ZM128,69.11l-.28-.06-.12.62.23.06Zm-1.87-26.72a1.35,1.35,0,0,0-.38-.16c-.06,0-.12.11-.18.17a1.08,1.08,0,0,0,.3.19S126,42.49,126.13,42.39Zm4.1,48.09,0,.17.43-.13a.47.47,0,0,0,0-.15Zm.51-37.84s.06.14.07.13l.22-.09-.09-.17A.86.86,0,0,0,130.74,52.64Zm-.64-18.07c.16,0,.34-.14.64-.29-.25-.19-.39-.38-.5-.37a1.48,1.48,0,0,0-.49.32C129.86,34.35,130,34.56,130.1,34.57Zm.09,10.19-.51-.18-.05.21.52.11Zm.18-.72.2-.12-.35-.44-.07.05C130.23,43.7,130.3,43.87,130.37,44Zm-2.71,54.33.14,0L128,98l-.14-.06Zm2.76-51.6c-.15.07-.39.12-.44.23-.13.35.13.48.66.62Zm-.32-3.84c-.07.11-.19.22-.18.34s.15.17.23.26l.07-.05c0-.09.09-.19.06-.27A.71.71,0,0,0,130.1,42.93Zm.39-2.54-.38.29.1.12.37-.3ZM110,70.59c-.1-.07-.17-.17-.23-.16s-.12.11-.19.17.12.15.18.16S109.85,70.67,110,70.59ZM93.48,42.65c-.63.58-.63.7-.1,1.44C93.94,43.64,93.27,43.19,93.48,42.65Zm.13,49.15s.1.06.2.12c.09-.23.18-.44.26-.66C93.6,91.26,93.51,91.49,93.61,91.8Zm-.86,6.29a.18.18,0,0,0-.12.09s.05.09.09.13l.13-.09S92.79,98.1,92.75,98.09ZM93.5,4.2c-.09-.11-.14-.21-.2-.23s-.16,0-.23.08.08.18.15.2S93.37,4.23,93.5,4.2Zm-.37,12c.07,0,.11-.11.2-.22a.77.77,0,0,0-.26-.05s-.11.11-.1.13S93.09,16.21,93.13,16.2Zm-4.08-.13c.06-.05.15-.11.16-.17s-.09-.13-.16-.23c-.07.1-.17.17-.16.22S89,16,89.05,16.07Zm5.17,32.76,0,.38.21,0-.1-.37Zm-5.3,6.37c.15.23.27.48.74.32l-.6-.48Zm2.27,7.9s-.1,0-.15.07l.15.19.12-.13S91.24,63.11,91.19,63.1Zm.08,7,.11.11s.11,0,.12-.09,0-.1-.06-.14Zm0,35.59s0,.13.07.14.09,0,.14-.06,0-.12-.07-.13S91.33,105.66,91.28,105.68Zm6.31-79a2,2,0,0,0-1.58.62C97,27.39,97.3,27.24,97.59,26.67ZM97,118.45c0,.07,0,.18.09.21s.15,0,.46-.16a2.34,2.34,0,0,0-.4-.13C97.07,118.37,97,118.43,97,118.45ZM95.06,13.79,95,14c.05,0,.12.05.15,0a.18.18,0,0,0,.08-.14S95.12,13.84,95.06,13.79Zm.74,8.54.79-.49C96,21.74,95.75,21.73,95.8,22.33Zm1.44,97.37.18.11.08-.15s-.1-.08-.13-.07S97.28,119.66,97.24,119.7Zm-1.11,10a1.28,1.28,0,0,0-.22.09l.12.25a.85.85,0,0,0,.19-.21S96.16,129.75,96.13,129.75Zm1.36-13.6a.79.79,0,0,0-.18.14l.21.2a.75.75,0,0,0,.1-.25S97.53,116.14,97.49,116.15ZM97.25,7.21c.06,0,.14-.07.21-.11l-.21-.3c-.09.12-.19.19-.17.24A.26.26,0,0,0,97.25,7.21ZM88.57,43.42l.12.14s.14,0,.15-.08,0-.11-.06-.17Zm8.08,89.65c0,.14.23.32.39.39s.24-.21.44-.4l-.47-.44C96.88,132.77,96.65,132.92,96.65,133.07Zm.23-4.27-.18-.12-.15.2s.13.1.15.08A.67.67,0,0,0,96.88,128.8Zm.45-78.11s.12.08.19.1.09-.09.08-.14-.07-.12-.14-.24A.8.8,0,0,0,97.33,50.69ZM82.64,10.26l.24.18c.05,0,.09-.12.14-.18s-.09-.1-.13-.09A1.09,1.09,0,0,0,82.64,10.26ZM77.22,61.45l-.09-.21-1.46.63.12.27C76.32,62,76.88,62,77.22,61.45Zm.13,18.68c.12-.14.24-.22.24-.3s-.13-.21-.2-.21a.3.3,0,0,0-.24.19C77.13,79.88,77.25,80,77.35,80.13ZM82,19.3l.69.43C82.47,19.15,82.47,19.15,82,19.3Zm.34,60.38s-.11.08-.1.13a.88.88,0,0,0,.08.27l.21-.27A.8.8,0,0,0,82.34,79.68Zm.08,54.38.13.11.17-.06c0-.05-.07-.14-.09-.14A1,1,0,0,0,82.42,134.06Zm-5.33-19.78a1.44,1.44,0,0,0-.34-.14c-.06,0-.12.11-.17.17a2.23,2.23,0,0,0,.33.2A1.25,1.25,0,0,0,77.09,114.28Zm37.43-48.77s0,.1,0,.15l.13-.08-.06-.14S114.53,65.48,114.52,65.51ZM77.38,64.07c0,.05.1.13.16.19l.27-.24-.25-.22A.75.75,0,0,0,77.38,64.07Zm-.63,51.37c.39.37.66.36,1,0C77.41,115.09,77.15,115.14,76.75,115.44Zm6.77-50.87.19.13s.09-.08.09-.12a1.24,1.24,0,0,0-.1-.26ZM86.71,42.1A1.43,1.43,0,0,1,86.6,42l-.19.13s.07.13.09.12A.79.79,0,0,0,86.71,42.1Zm.61,71.8c0,.06.12.14.18.14s.1-.1.19-.2a.71.71,0,0,0-.28-.07S87.31,113.88,87.32,113.9ZM87,45.16s0-.08-.08-.13-.11.06-.11.09,0,.09.07.13S87,45.2,87,45.16Zm.55,55.07s-.06-.07-.12-.14a2,2,0,0,0-.07.25s.1.06.12,0A.17.17,0,0,0,87.5,100.23ZM87,108.29l-.73-.87C86.12,108.09,86.39,108.24,87,108.29Zm.49-13.91-1.44.48.08.31a2.29,2.29,0,0,0,1.43-.59Zm.8-82s0,.09,0,.14.13,0,.14-.08,0-.09-.06-.14S88.32,12.33,88.31,12.37ZM82.05,132.28a.63.63,0,0,0-.21.22l.25.16c.06-.09.16-.17.15-.22S82.08,132.26,82.05,132.28ZM83.91,26.79a1.29,1.29,0,0,0,.17.16s.11-.09.1-.11a.85.85,0,0,0-.14-.19Zm.47,1.57a.86.86,0,0,0,0,.27s.11.11.12.1.14-.12.13-.17S84.48,28.46,84.38,28.36Zm-5.75-.08-.18-.07a1.41,1.41,0,0,0-.06.22.34.34,0,0,0,.14.05A1.86,1.86,0,0,0,78.63,28.28Zm33.1,83.07s-.11.08-.17.12l.18.15.15-.1C111.84,111.46,111.8,111.37,111.73,111.35Zm-.64-53.63s-.12.1-.18.16a2.61,2.61,0,0,0,.31.27s.12-.09.25-.2A1.83,1.83,0,0,0,111.09,57.72ZM95.43,38.79l.24.44.19-.11-.3-.41Zm16.3-.74a.8.8,0,0,0,0,.15l.14-.06a.4.4,0,0,0-.1-.12S111.73,38,111.73,38.05Zm-.11-20.49s.06-.07.1-.14l-.25-.05c0,.05,0,.12,0,.14A.17.17,0,0,0,111.62,17.56Zm-4.83,50.66.15.23c.13-.11.27-.21.39-.32a.44.44,0,0,0-.08-.15ZM102.55,99s-.09,0-.13-.08l-.07.15.14.08C102.51,99.13,102.56,99.07,102.55,99Zm4,33.05.19-.11-.57-.34C106.33,132,106.4,132.05,106.56,132.08Zm.56-109.48-.09-.13-.16.12a.33.33,0,0,0,.14.1S107.08,22.64,107.12,22.6ZM107,37c0-.07,0-.15-.09-.16a.21.21,0,0,0-.17,0s0,.1,0,.16Zm2.33,38a1.21,1.21,0,0,0,.16.16s.12-.07.11-.09a.71.71,0,0,0-.12-.2Zm1.92,32.43a1.28,1.28,0,0,0,.2.11l.09-.19a.71.71,0,0,0-.23-.06S111.22,107.36,111.24,107.37Zm-2.73-27.85.67.14.06-.23-.64-.2ZM77.92,68c.72.13.89-.41,1.22-.75L79,67ZM112.3,17.74s.06.05.07,0a.63.63,0,0,0,.11-.12l-.15-.07A.8.8,0,0,0,112.3,17.74Zm1.94,16.67c-.1.19-.23.34-.2.43a.46.46,0,0,0,.34.22c.09,0,.23-.22.22-.32S114.41,34.55,114.24,34.41ZM109.7,80s.08.1.12.1a1.52,1.52,0,0,0,.25-.09l-.25-.19A1.88,1.88,0,0,0,109.7,80Zm1.23-42.11a1.08,1.08,0,0,0-.15.22s.08.1.12.1a.78.78,0,0,0,.2-.11Zm-1.22-19.81s.1-.12.09-.13l-.32-.24-.13.21C109.47,18,109.59,18.08,109.71,18.12Zm1.14-4.69-2.07.34A1.78,1.78,0,0,0,110.85,13.43Zm-8.24,103.65c-.07,0-.18,0-.19.11s.06.13.12.24a.8.8,0,0,0,.16-.23S102.63,117.07,102.61,117.08Zm4.1-73.74c-.12.27-.21.49-.33.78C107.22,44,107.22,43.94,106.71,43.34ZM98.46,6.76l.43.11,0-.24-.45,0Zm1.1,18.48c-.06,0-.11-.12-.13-.11a1,1,0,0,0-.22.14c.05.05.12.15.15.14A.65.65,0,0,0,99.56,25.24Zm-.94,100a.89.89,0,0,0-.15.29c0,.08,0,.16.11.36.17-.29.26-.39.27-.49S98.7,125.32,98.62,125.27Zm.7-7.38a.36.36,0,0,0,.28.26c.1,0,.21-.15.38-.28-.18-.13-.31-.29-.41-.27A.37.37,0,0,0,99.32,117.89Zm-.16,1.29s-.08.09-.08.12.08.06.12.09.09-.08.08-.12S99.21,119.21,99.16,119.18ZM97.84,51.25a1.8,1.8,0,0,0,.06.22l.18-.07a.75.75,0,0,0-.1-.2S97.84,51.23,97.84,51.25ZM95.72,6.64a1.51,1.51,0,0,0-.17-.47c-.14.16-.27.24-.27.32a.36.36,0,0,0,.17.28C95.52,6.8,95.72,6.68,95.72,6.64Zm4.56,118.72a.62.62,0,0,0,.1.22l.26-.14a1,1,0,0,0-.23-.18S100.28,125.33,100.28,125.36Zm-4.63-14.9a1,1,0,0,0-.19.28c0,.05.1.13.21.26a1.28,1.28,0,0,0,.16-.36C95.83,110.58,95.71,110.52,95.65,110.46Zm7.28-3.35c.65.19.83.13,1.23-.41C103.4,106.56,103.21,106.62,102.93,107.11ZM97.82,29.17a1.34,1.34,0,0,0,.18.28l.44-.32A2.31,2.31,0,0,0,98,29C97.94,29,97.81,29.14,97.82,29.17Zm7.44,8.52.73-.35-.1-.25C105.56,37.1,105.29,37.18,105.26,37.69Zm-.91-7.77a1.83,1.83,0,0,0-.24-.18s-.13.08-.13.1.06.18.12.2S104.23,30,104.35,29.92Zm.1,66.67-.12.28.71.31.11-.22C105,96.69,104.86,96.39,104.45,96.59Zm-.69-44.29c0,.05.09.12.16.22.08-.1.17-.16.17-.22s-.1-.16-.16-.16A.27.27,0,0,0,103.76,52.3Zm.14-41.17a5.25,5.25,0,0,0-.22-.55s-.14,0-.29-.06l.3.66Zm1.64,10.52L104,20.38C104.35,21.05,104.74,21.62,105.54,21.65ZM102.73,101s-.11.11-.17.17l.35.34.19-.19C103,101.25,102.86,101.14,102.73,101Zm-1.87,9.55s.07.09.11.14l.15-.17-.15-.09S100.86,110.55,100.86,110.59ZM101,39a1.72,1.72,0,0,0,.24.31l.19-.22a1.1,1.1,0,0,0-.27-.23S101,39,101,39ZM103,11.89l-.08-.2a1.13,1.13,0,0,0-.22.11s0,.14.06.14A.74.74,0,0,0,103,11.89Z"/></g></g></svg>